<svg width="20" height="23" viewBox="0 0 20 23" fill="none" xmlns="http://www.w3.org/2000/svg">
<path fill-rule="evenodd" clip-rule="evenodd" d="M12.5663 10.8658C14.311 9.94376 15.5 8.11073 15.5 6C15.5 2.96243 13.0376 0.5 10 0.5C6.96243 0.5 4.5 2.96243 4.5 6C4.5 8.11073 5.68899 9.94376 7.43374 10.8658C3.42247 12.038 0.5 15.8901 0.5 20.4286C0.5 20.6346 0.62638 20.8195 0.818333 20.8944L0.819832 20.895L0.822804 20.8961L0.833131 20.9001L0.871075 20.9144C0.903959 20.9268 0.951904 20.9445 1.01415 20.9668C1.13864 21.0114 1.3204 21.0745 1.55338 21.1498C2.01921 21.3005 2.69052 21.5006 3.5188 21.7003C5.17351 22.0995 7.46426 22.5 10 22.5C12.5357 22.5 14.8265 22.0995 16.4812 21.7003C17.3095 21.5006 17.9808 21.3005 18.4466 21.1498C18.6796 21.0745 18.8614 21.0114 18.9858 20.9668C19.0481 20.9445 19.096 20.9268 19.1289 20.9144L19.1669 20.9001L19.1772 20.8961L19.1802 20.895L19.1817 20.8944C19.3736 20.8195 19.5 20.6346 19.5 20.4286C19.5 15.8901 16.5775 12.038 12.5663 10.8658ZM5.5 6C5.5 3.51472 7.51472 1.5 10 1.5C12.4853 1.5 14.5 3.51472 14.5 6C14.5 8.48528 12.4853 10.5 10 10.5C7.51472 10.5 5.5 8.48528 5.5 6ZM1 20.4286L0.818333 20.8944C0.818333 20.8944 0.818333 20.8944 1 20.4286ZM10 11.5C5.43742 11.5 1.68096 15.29 1.50634 20.0799C1.6041 20.1136 1.72286 20.1536 1.86115 20.1984C2.30616 20.3423 2.95288 20.5352 3.75328 20.7282C5.35593 21.1148 7.56517 21.5 10 21.5C12.4348 21.5 14.6441 21.1148 16.2467 20.7282C17.0471 20.5352 17.6938 20.3423 18.1388 20.1984C18.2771 20.1536 18.3959 20.1136 18.4937 20.0799C18.319 15.29 14.5626 11.5 10 11.5Z" fill="black"/>
</svg>
