<svg width="27" height="12" viewBox="0 0 27 12" fill="none" xmlns="http://www.w3.org/2000/svg">
<path d="M4.93284 2.04189C4.61644 2.40218 4.11019 2.68635 3.60394 2.64575C3.54066 2.1586 3.78851 1.641 4.07855 1.3213C4.39495 0.950861 4.94866 0.686985 5.39691 0.666687C5.44964 1.17414 5.24398 1.67144 4.93284 2.04189ZM5.39163 2.74217C4.65863 2.70157 4.03109 3.14306 3.68304 3.14306C3.32972 3.14306 2.7971 2.76247 2.21702 2.77262C1.46292 2.78277 0.761555 3.1938 0.376594 3.84842C-0.414421 5.15765 0.17093 7.09612 0.935579 8.16177C1.30999 8.68952 1.75823 9.26802 2.34886 9.24772C2.90784 9.22742 3.12933 8.89758 3.80433 8.89758C4.4846 8.89758 4.67972 9.24772 5.27034 9.23757C5.88206 9.22742 6.26702 8.70982 6.64144 8.18207C7.06859 7.58327 7.24261 6.9997 7.25316 6.96926C7.24261 6.95911 6.07191 6.52777 6.06136 5.22869C6.05081 4.14274 6.98421 3.62514 7.0264 3.59469C6.49906 2.84366 5.6764 2.76247 5.39163 2.74217ZM9.6262 1.27056V9.18175H10.9024V6.47703H12.669C14.2826 6.47703 15.4164 5.41137 15.4164 3.86872C15.4164 2.32606 14.3037 1.27056 12.7112 1.27056H9.6262ZM10.9024 2.30576H12.3737C13.4811 2.30576 14.1139 2.87411 14.1139 3.87379C14.1139 4.87347 13.4811 5.4469 12.3684 5.4469H10.9024V2.30576ZM17.7473 9.24265C18.5489 9.24265 19.2924 8.85191 19.6299 8.23281H19.6563V9.18175H20.8375V5.24391C20.8375 4.10214 19.8883 3.36634 18.4276 3.36634C17.0723 3.36634 16.0703 4.11229 16.0334 5.13735H17.183C17.278 4.65019 17.7473 4.3305 18.3907 4.3305C19.1711 4.3305 19.6088 4.68064 19.6088 5.32511V5.76152L18.0162 5.85286C16.5344 5.93913 15.7328 6.5227 15.7328 7.5376C15.7328 8.56266 16.5608 9.24265 17.7473 9.24265ZM18.0901 8.30386C17.4098 8.30386 16.9774 7.98924 16.9774 7.50716C16.9774 7.00985 17.394 6.7206 18.1903 6.67493L19.6088 6.58867V7.03522C19.6088 7.77611 18.9549 8.30386 18.0901 8.30386ZM22.4143 11.3334C23.6588 11.3334 24.2442 10.8766 24.7557 9.4913L26.9969 3.44246H25.6996L24.1967 8.1161H24.1703L22.6674 3.44246H21.3332L23.4953 9.20205L23.3793 9.55219C23.1842 10.1459 22.8678 10.3743 22.3035 10.3743C22.2034 10.3743 22.0082 10.3641 21.9291 10.354V11.3029C22.003 11.3232 22.3194 11.3334 22.4143 11.3334Z" fill="#AEAEAE"/>
</svg>
