<svg width="22" height="24" viewBox="0 0 22 24" fill="none" xmlns="http://www.w3.org/2000/svg">
<path fill-rule="evenodd" clip-rule="evenodd" d="M5.52242 5.5C5.77504 2.69675 8.13098 0.5 11 0.5C13.869 0.5 16.225 2.69675 16.4776 5.5H19.75C20.0119 5.5 20.2294 5.70212 20.2487 5.96333L21.4987 22.9633C21.5088 23.1019 21.4609 23.2385 21.3663 23.3403C21.2717 23.4422 21.139 23.5 21 23.5H1C0.861023 23.5 0.728315 23.4422 0.633714 23.3403C0.539113 23.2385 0.491156 23.1019 0.501348 22.9633L1.75135 5.96333C1.77055 5.70212 1.98808 5.5 2.25 5.5H5.52242ZM6.52746 5.5C6.77619 3.25002 8.68372 1.5 11 1.5C13.3163 1.5 15.2238 3.25002 15.4725 5.5H6.52746ZM5.5 6.5V7C5.5 7.27614 5.72386 7.5 6 7.5C6.27614 7.5 6.5 7.27614 6.5 7V6.5H15.5V7C15.5 7.27614 15.7239 7.5 16 7.5C16.2761 7.5 16.5 7.27614 16.5 7V6.5H19.2854L20.4619 22.5H1.53812L2.71459 6.5H5.5Z" fill="black"/>
</svg>
