<svg width="22" height="20" viewBox="0 0 22 20" fill="none" xmlns="http://www.w3.org/2000/svg">
<path d="M6 11C6.55228 11 7 10.5523 7 10C7 9.44771 6.55228 9 6 9C5.44772 9 5 9.44771 5 10C5 10.5523 5.44772 11 6 11Z" fill="#949494"/>
<path d="M7 14C7 14.5523 6.55228 15 6 15C5.44772 15 5 14.5523 5 14C5 13.4477 5.44772 13 6 13C6.55228 13 7 13.4477 7 14Z" fill="#949494"/>
<path d="M11 11C11.5523 11 12 10.5523 12 10C12 9.44771 11.5523 9 11 9C10.4477 9 10 9.44771 10 10C10 10.5523 10.4477 11 11 11Z" fill="#949494"/>
<path d="M12 14C12 14.5523 11.5523 15 11 15C10.4477 15 10 14.5523 10 14C10 13.4477 10.4477 13 11 13C11.5523 13 12 13.4477 12 14Z" fill="#949494"/>
<path d="M16 11C16.5523 11 17 10.5523 17 10C17 9.44771 16.5523 9 16 9C15.4477 9 15 9.44771 15 10C15 10.5523 15.4477 11 16 11Z" fill="#949494"/>
<path fill-rule="evenodd" clip-rule="evenodd" d="M6.5 1C6.5 0.723858 6.27614 0.5 6 0.5C5.72386 0.5 5.5 0.723858 5.5 1V2.5H1C0.723858 2.5 0.5 2.72386 0.5 3V19C0.5 19.2761 0.723858 19.5 1 19.5H21C21.2761 19.5 21.5 19.2761 21.5 19V3C21.5 2.72386 21.2761 2.5 21 2.5H16.5V1C16.5 0.723858 16.2761 0.5 16 0.5C15.7239 0.5 15.5 0.723858 15.5 1V2.5H6.5V1ZM1.5 3.5H5.5V5C5.5 5.27614 5.72386 5.5 6 5.5C6.27614 5.5 6.5 5.27614 6.5 5V3.5H15.5V5C15.5 5.27614 15.7239 5.5 16 5.5C16.2761 5.5 16.5 5.27614 16.5 5V3.5H20.5V18.5H1.5V3.5Z" fill="#949494"/>
</svg>
