<svg id="svg" version="1.1" xmlns="http://www.w3.org/2000/svg" xmlns:xlink="http://www.w3.org/1999/xlink" width="25" height="25" viewBox="0, 0, 400,400"><g id="svgg"><path id="path0" d="M195.217 32.338 C 193.892 33.598,193.600 34.145,193.600 35.367 C 193.600 37.611,192.958 38.000,189.252 38.000 C 187.489 38.000,185.936 38.180,185.800 38.400 C 185.664 38.620,184.494 38.800,183.200 38.800 C 181.906 38.800,180.736 38.980,180.600 39.200 C 180.464 39.420,179.643 39.600,178.776 39.600 C 177.909 39.600,177.200 39.780,177.200 40.000 C 177.200 40.220,176.480 40.400,175.600 40.400 C 174.720 40.400,174.000 40.580,174.000 40.800 C 174.000 41.020,173.295 41.200,172.433 41.200 C 171.572 41.200,170.807 41.378,170.733 41.597 C 170.660 41.815,170.105 42.034,169.500 42.084 C 168.895 42.134,168.400 42.315,168.400 42.487 C 168.400 42.659,168.040 42.800,167.600 42.800 C 167.160 42.800,166.797 43.025,166.794 43.300 C 166.790 43.633,166.658 43.600,166.400 43.200 C 166.142 42.800,166.010 42.767,166.006 43.100 C 166.003 43.375,165.667 43.600,165.260 43.600 C 163.966 43.600,161.989 44.458,162.262 44.901 C 162.417 45.152,162.332 45.205,162.052 45.032 C 161.546 44.720,159.200 45.596,159.200 46.098 C 159.200 46.264,158.840 46.400,158.400 46.400 C 157.960 46.400,157.597 46.535,157.594 46.700 C 157.590 46.865,156.690 47.440,155.594 47.979 C 154.497 48.517,153.600 49.102,153.600 49.279 C 153.600 49.455,153.336 49.600,153.014 49.600 C 152.692 49.600,152.235 49.960,152.000 50.400 C 151.765 50.840,151.348 51.200,151.074 51.200 C 150.801 51.200,150.317 51.560,150.000 52.000 C 149.683 52.440,149.193 52.800,148.912 52.800 C 148.630 52.800,148.400 52.980,148.400 53.200 C 148.400 53.420,148.170 53.600,147.888 53.600 C 147.607 53.600,147.112 53.988,146.788 54.462 C 146.465 54.936,145.801 55.683,145.314 56.122 C 144.826 56.561,144.522 57.073,144.637 57.260 C 144.753 57.447,144.644 57.600,144.395 57.600 C 143.748 57.600,142.800 58.637,142.800 59.344 C 142.800 59.675,142.440 60.060,142.000 60.200 C 141.560 60.340,141.200 60.712,141.200 61.027 C 141.200 61.342,141.020 61.600,140.800 61.600 C 140.580 61.600,140.400 61.830,140.400 62.112 C 140.400 62.393,140.040 62.883,139.600 63.200 C 139.160 63.517,138.800 64.097,138.800 64.488 C 138.800 64.880,138.620 65.200,138.400 65.200 C 138.180 65.200,138.000 65.520,138.000 65.912 C 138.000 66.303,137.640 66.883,137.200 67.200 C 136.760 67.517,136.400 68.086,136.400 68.465 C 136.400 68.843,136.220 69.264,136.000 69.400 C 135.780 69.536,135.600 70.087,135.600 70.624 C 135.600 71.161,135.420 71.600,135.200 71.600 C 134.980 71.600,134.800 71.842,134.800 72.139 C 134.800 72.435,134.492 73.290,134.115 74.039 C 133.737 74.787,133.372 75.760,133.303 76.200 C 133.234 76.640,133.002 77.060,132.788 77.133 C 132.575 77.207,132.400 77.702,132.400 78.233 C 132.400 78.765,132.258 79.200,132.085 79.200 C 131.912 79.200,131.740 79.602,131.703 80.093 C 131.666 80.584,131.468 81.349,131.263 81.793 C 130.473 83.507,129.901 85.978,130.110 86.778 C 130.231 87.239,130.076 87.867,129.764 88.178 C 129.445 88.498,129.200 89.527,129.200 90.548 C 129.200 91.541,129.040 92.452,128.844 92.573 C 128.648 92.694,128.467 94.158,128.442 95.826 C 128.417 97.494,128.239 99.161,128.047 99.530 C 127.598 100.393,127.547 108.000,127.991 108.000 C 128.176 108.000,128.327 109.530,128.327 111.400 C 128.327 113.270,128.169 114.800,127.977 114.800 C 127.519 114.800,127.834 126.409,128.362 129.000 C 128.586 130.100,128.887 131.585,129.030 132.300 C 129.174 133.015,129.450 133.600,129.645 133.600 C 129.840 133.600,130.000 133.834,130.000 134.120 C 130.000 134.856,130.941 136.793,131.300 136.797 C 131.465 136.799,131.600 136.998,131.600 137.239 C 131.600 137.914,135.712 141.585,136.476 141.593 C 136.848 141.597,137.264 141.780,137.400 142.000 C 137.536 142.220,138.267 142.400,139.024 142.400 C 140.359 142.400,140.400 142.447,140.400 143.976 C 140.400 144.843,140.580 145.664,140.800 145.800 C 141.020 145.936,141.200 146.667,141.200 147.424 C 141.200 148.181,141.380 148.800,141.600 148.800 C 141.820 148.800,142.000 149.520,142.000 150.400 C 142.000 151.280,142.180 152.000,142.400 152.000 C 142.620 152.000,142.800 152.540,142.800 153.200 C 142.800 153.860,142.980 154.400,143.200 154.400 C 143.420 154.400,143.600 154.861,143.600 155.424 C 143.600 155.996,143.774 156.340,143.995 156.203 C 144.226 156.061,144.287 156.229,144.142 156.606 C 143.918 157.190,144.165 157.967,145.247 160.095 C 145.441 160.477,145.600 161.062,145.600 161.395 C 145.600 161.728,145.780 162.000,146.000 162.000 C 146.220 162.000,146.400 162.360,146.400 162.800 C 146.400 163.240,146.580 163.600,146.800 163.600 C 147.020 163.600,147.200 163.960,147.200 164.400 C 147.200 164.840,147.380 165.200,147.600 165.200 C 147.820 165.200,148.000 165.483,148.000 165.829 C 148.000 166.174,148.272 166.729,148.604 167.061 C 148.936 167.393,149.105 167.830,148.980 168.032 C 148.855 168.235,148.943 168.400,149.176 168.400 C 149.409 168.400,149.600 168.681,149.600 169.024 C 149.600 169.393,149.788 169.531,150.062 169.362 C 150.320 169.202,150.416 169.251,150.279 169.471 C 150.145 169.689,150.477 170.517,151.018 171.312 C 151.558 172.107,152.000 172.947,152.000 173.179 C 152.000 173.410,152.180 173.600,152.400 173.600 C 152.620 173.600,152.800 173.778,152.800 173.995 C 152.800 174.454,153.664 175.556,155.500 177.440 C 156.215 178.173,156.800 178.955,156.800 179.176 C 156.800 179.398,157.565 180.361,158.500 181.317 C 159.435 182.273,160.458 183.438,160.773 183.906 C 161.088 184.374,161.474 184.678,161.631 184.581 C 161.788 184.484,162.024 184.685,162.155 185.028 C 162.289 185.376,162.599 185.524,162.859 185.364 C 163.148 185.185,163.216 185.251,163.039 185.537 C 162.762 185.986,164.628 187.961,165.353 187.987 C 165.547 187.994,165.997 188.321,166.353 188.714 C 167.184 189.632,171.401 192.400,171.968 192.400 C 172.206 192.400,172.400 192.580,172.400 192.800 C 172.400 193.020,172.760 193.200,173.200 193.200 C 173.640 193.200,174.000 193.380,174.000 193.600 C 174.000 193.820,174.360 194.000,174.800 194.000 C 175.240 194.000,175.600 194.180,175.600 194.400 C 175.600 194.620,175.960 194.800,176.400 194.800 C 176.840 194.800,177.200 194.980,177.200 195.200 C 177.200 195.420,177.470 195.600,177.800 195.600 C 178.130 195.600,178.400 195.780,178.400 196.000 C 178.400 196.220,178.850 196.400,179.400 196.400 C 179.950 196.400,180.400 196.580,180.400 196.800 C 180.400 197.020,180.850 197.200,181.400 197.200 C 181.950 197.200,182.400 197.380,182.400 197.600 C 182.400 197.820,182.940 198.000,183.600 198.000 C 184.260 198.000,184.800 198.180,184.800 198.400 C 184.800 198.620,185.520 198.800,186.400 198.800 C 187.280 198.800,188.000 198.980,188.000 199.200 C 188.000 199.420,189.001 199.600,190.224 199.600 C 191.604 199.600,192.353 199.752,192.200 200.000 C 192.038 200.261,194.604 200.400,199.600 200.400 C 203.806 200.400,207.160 200.259,207.053 200.086 C 206.946 199.913,207.161 199.752,207.529 199.729 C 207.898 199.706,208.965 199.638,209.900 199.578 C 210.835 199.518,211.600 199.318,211.600 199.134 C 211.600 198.950,212.219 198.800,212.976 198.800 C 213.733 198.800,214.464 198.620,214.600 198.400 C 214.736 198.180,215.452 198.000,216.190 198.000 C 216.929 198.000,217.597 197.810,217.674 197.578 C 217.751 197.346,218.121 197.111,218.496 197.056 C 218.870 197.001,219.302 196.831,219.455 196.678 C 219.608 196.525,220.153 196.400,220.667 196.400 C 221.180 196.400,221.600 196.220,221.600 196.000 C 221.600 195.780,221.881 195.600,222.224 195.600 C 222.567 195.600,222.736 195.420,222.600 195.200 C 222.456 194.967,222.863 194.800,223.576 194.800 C 224.249 194.800,224.800 194.620,224.800 194.400 C 224.800 194.180,225.070 194.000,225.400 194.000 C 225.730 194.000,226.000 193.820,226.000 193.600 C 226.000 193.380,226.320 193.200,226.712 193.200 C 227.103 193.200,227.683 192.840,228.000 192.400 C 228.317 191.960,228.869 191.600,229.227 191.600 C 229.585 191.600,230.293 191.240,230.800 190.800 C 231.307 190.360,231.856 190.000,232.019 190.000 C 232.182 190.000,232.893 189.460,233.600 188.800 C 234.307 188.140,235.016 187.600,235.177 187.600 C 235.847 187.600,244.000 178.970,244.000 178.261 C 244.000 178.059,244.317 177.603,244.705 177.247 C 245.093 176.891,245.858 175.926,246.405 175.103 C 246.952 174.279,247.535 173.604,247.700 173.603 C 247.865 173.601,248.000 173.330,248.000 173.000 C 248.000 172.670,248.180 172.400,248.400 172.400 C 248.620 172.400,248.800 172.130,248.800 171.800 C 248.800 171.470,248.946 171.200,249.125 171.200 C 249.304 171.200,249.698 170.570,250.000 169.800 C 250.302 169.030,250.696 168.400,250.875 168.400 C 251.054 168.400,251.200 168.051,251.200 167.624 C 251.200 167.197,251.375 166.739,251.589 166.607 C 252.064 166.314,253.222 163.930,253.366 162.953 C 253.423 162.563,253.679 162.174,253.935 162.088 C 254.191 162.003,254.400 161.588,254.400 161.167 C 254.400 160.745,254.580 160.400,254.800 160.400 C 255.020 160.400,255.200 160.051,255.200 159.624 C 255.200 159.197,255.380 158.736,255.600 158.600 C 255.820 158.464,256.000 157.943,256.000 157.443 C 256.000 156.943,256.122 156.411,256.271 156.262 C 256.895 155.639,258.424 150.415,258.660 148.100 C 258.801 146.725,259.070 145.600,259.258 145.600 C 259.446 145.600,259.600 145.137,259.600 144.571 C 259.600 143.252,260.461 142.400,261.795 142.400 C 262.395 142.400,262.741 142.228,262.600 142.000 C 262.460 141.773,262.797 141.600,263.379 141.600 C 264.499 141.600,269.200 137.211,269.200 136.165 C 269.200 135.854,269.380 135.600,269.600 135.600 C 269.820 135.600,270.000 135.240,270.000 134.800 C 270.000 134.360,270.160 134.000,270.356 134.000 C 270.724 134.000,271.168 132.065,271.370 129.580 C 271.434 128.799,271.692 127.775,271.944 127.304 C 272.592 126.094,272.530 114.000,271.876 114.001 C 271.310 114.002,271.450 109.225,272.034 108.620 C 272.609 108.023,272.493 104.001,271.900 103.994 C 271.533 103.989,271.545 103.896,271.944 103.643 C 272.346 103.388,272.418 102.789,272.221 101.349 C 272.073 100.277,271.861 97.870,271.748 96.000 C 271.636 94.130,271.376 92.429,271.172 92.220 C 270.967 92.011,270.800 90.991,270.800 89.953 C 270.800 88.916,270.623 88.007,270.407 87.933 C 270.190 87.860,269.923 87.080,269.813 86.200 C 269.399 82.893,269.102 81.600,268.756 81.600 C 268.560 81.600,268.400 81.060,268.400 80.400 C 268.400 79.740,268.220 79.200,268.000 79.200 C 267.780 79.200,267.600 78.840,267.600 78.400 C 267.600 77.960,267.420 77.600,267.200 77.600 C 266.980 77.600,266.800 76.959,266.800 76.176 C 266.800 75.329,266.638 74.853,266.400 75.000 C 266.173 75.140,266.000 74.804,266.000 74.224 C 266.000 73.661,265.820 73.200,265.600 73.200 C 265.380 73.200,265.200 72.928,265.200 72.595 C 265.200 72.007,265.033 71.582,264.062 69.705 C 263.808 69.213,263.600 68.578,263.600 68.294 C 263.600 68.009,263.240 67.517,262.800 67.200 C 262.360 66.883,262.000 66.303,262.000 65.912 C 262.000 65.520,261.820 65.200,261.600 65.200 C 261.380 65.200,261.200 64.880,261.200 64.488 C 261.200 64.097,260.840 63.517,260.400 63.200 C 259.960 62.883,259.600 62.412,259.600 62.154 C 259.600 61.897,259.330 61.582,259.000 61.455 C 258.670 61.329,258.400 61.027,258.400 60.784 C 258.400 60.541,258.175 60.101,257.900 59.806 C 257.625 59.511,256.950 58.681,256.400 57.962 C 254.926 56.034,251.710 52.800,251.268 52.800 C 251.057 52.800,250.332 52.284,249.656 51.653 C 248.981 51.022,248.336 50.597,248.223 50.710 C 248.111 50.822,247.905 50.619,247.767 50.257 C 247.628 49.896,247.163 49.600,246.734 49.600 C 246.304 49.600,246.056 49.433,246.183 49.228 C 246.309 49.024,245.780 48.627,245.006 48.348 C 244.233 48.068,243.600 47.695,243.600 47.520 C 243.600 47.344,243.345 47.200,243.033 47.200 C 242.722 47.200,242.407 47.056,242.333 46.880 C 242.130 46.393,237.186 44.130,235.600 43.799 C 234.830 43.638,234.020 43.397,233.800 43.265 C 233.580 43.132,233.040 42.968,232.600 42.900 C 232.160 42.832,231.740 42.602,231.667 42.388 C 231.593 42.175,231.008 42.000,230.367 42.000 C 229.725 42.000,229.200 41.820,229.200 41.600 C 229.200 41.380,228.480 41.200,227.600 41.200 C 226.720 41.200,226.000 41.020,226.000 40.800 C 226.000 40.580,225.370 40.400,224.600 40.400 C 223.830 40.400,223.200 40.220,223.200 40.000 C 223.200 39.780,222.401 39.600,221.424 39.600 C 220.447 39.600,219.536 39.420,219.400 39.200 C 219.264 38.980,218.209 38.800,217.056 38.800 C 215.903 38.800,214.788 38.628,214.577 38.417 C 214.366 38.206,212.575 37.981,210.597 37.917 L 207.000 37.800 206.877 36.100 C 206.809 35.165,206.584 34.400,206.377 34.400 C 206.170 34.400,206.000 34.159,206.000 33.864 C 206.000 30.652,198.156 29.542,195.217 32.338 M193.374 51.643 C 193.700 51.114,206.237 51.013,206.561 51.537 C 206.675 51.722,208.032 51.893,209.575 51.917 C 211.118 51.942,212.733 52.150,213.164 52.381 C 213.595 52.611,214.669 52.800,215.550 52.800 C 216.432 52.800,217.241 52.942,217.348 53.116 C 217.456 53.290,218.231 53.478,219.072 53.534 C 219.912 53.589,220.660 53.807,220.733 54.018 C 220.807 54.228,221.471 54.400,222.210 54.400 C 222.948 54.400,223.664 54.580,223.800 54.800 C 223.936 55.020,224.577 55.200,225.224 55.200 C 225.871 55.200,226.400 55.380,226.400 55.600 C 226.400 55.820,226.833 56.000,227.362 56.000 C 227.891 56.000,229.016 56.337,229.862 56.748 C 232.584 58.071,234.413 58.800,235.014 58.800 C 235.336 58.800,235.600 58.980,235.600 59.200 C 235.600 59.420,235.920 59.600,236.312 59.600 C 236.703 59.600,237.283 59.960,237.600 60.400 C 237.917 60.840,238.457 61.200,238.800 61.200 C 239.143 61.200,239.683 61.560,240.000 62.000 C 240.317 62.440,240.801 62.800,241.074 62.800 C 241.348 62.800,241.758 63.148,241.986 63.573 C 242.213 63.998,242.759 64.460,243.200 64.600 C 243.640 64.740,244.000 65.047,244.000 65.284 C 244.000 65.520,244.538 66.228,245.196 66.857 C 245.854 67.486,246.261 68.000,246.100 68.000 C 245.940 68.000,246.301 68.457,246.904 69.016 C 247.507 69.575,248.000 70.261,248.000 70.541 C 248.000 70.820,248.405 71.484,248.900 72.015 C 249.395 72.547,249.816 73.075,249.835 73.191 C 249.906 73.625,250.551 75.008,250.771 75.200 C 251.333 75.691,252.354 77.913,252.123 78.144 C 251.982 78.285,252.077 78.400,252.333 78.400 C 252.590 78.400,252.800 78.760,252.800 79.200 C 252.800 79.640,252.980 80.000,253.200 80.000 C 253.420 80.000,253.600 80.450,253.600 81.000 C 253.600 81.550,253.780 82.000,254.000 82.000 C 254.220 82.000,254.400 82.540,254.400 83.200 C 254.400 83.860,254.580 84.400,254.800 84.400 C 255.020 84.400,255.200 85.015,255.200 85.767 C 255.200 86.518,255.408 87.203,255.663 87.288 C 255.918 87.373,256.110 88.018,256.090 88.721 C 256.070 89.424,256.221 90.000,256.427 90.000 C 256.632 90.000,256.800 90.900,256.800 92.000 C 256.800 93.100,256.980 94.000,257.200 94.000 C 257.420 94.000,257.600 94.366,257.600 94.814 C 257.600 95.485,257.469 95.558,256.853 95.228 C 256.442 95.008,255.963 94.957,255.788 95.114 C 255.614 95.271,255.601 95.176,255.758 94.902 C 255.941 94.584,255.639 94.225,254.923 93.910 C 254.305 93.638,253.710 93.322,253.600 93.208 C 253.490 93.093,252.905 92.744,252.300 92.432 C 251.695 92.120,251.200 91.715,251.200 91.532 C 251.200 91.350,250.840 91.200,250.400 91.200 C 249.960 91.200,249.600 91.020,249.600 90.800 C 249.600 90.580,249.322 90.400,248.983 90.400 C 248.644 90.400,247.980 90.040,247.508 89.600 C 247.036 89.160,246.413 88.800,246.125 88.800 C 245.836 88.800,245.600 88.620,245.600 88.400 C 245.600 88.180,245.240 88.000,244.800 88.000 C 244.360 88.000,244.000 87.820,244.000 87.600 C 244.000 87.380,243.651 87.200,243.224 87.200 C 242.797 87.200,242.336 87.020,242.200 86.800 C 242.064 86.580,241.603 86.400,241.176 86.400 C 240.749 86.400,240.400 86.220,240.400 86.000 C 240.400 85.780,240.128 85.600,239.795 85.600 C 239.462 85.600,238.832 85.420,238.395 85.200 C 237.958 84.980,237.242 84.620,236.805 84.400 C 236.368 84.180,235.738 84.000,235.405 84.000 C 235.072 84.000,234.800 83.820,234.800 83.600 C 234.800 83.380,234.260 83.200,233.600 83.200 C 232.940 83.200,232.400 83.020,232.400 82.800 C 232.400 82.580,231.770 82.400,231.000 82.400 C 230.230 82.400,229.600 82.220,229.600 82.000 C 229.600 81.780,229.161 81.600,228.624 81.600 C 228.087 81.600,227.536 81.420,227.400 81.200 C 227.264 80.980,226.533 80.800,225.776 80.800 C 225.019 80.800,224.400 80.649,224.400 80.465 C 224.400 80.280,223.738 80.105,222.930 80.074 C 222.121 80.044,221.275 79.835,221.050 79.610 C 220.824 79.384,219.787 79.200,218.744 79.200 C 217.701 79.200,216.748 79.039,216.627 78.843 C 216.505 78.647,215.320 78.471,213.994 78.452 C 212.667 78.433,211.232 78.231,210.804 78.002 C 209.776 77.452,189.120 77.639,188.934 78.200 C 188.858 78.429,187.759 78.541,186.358 78.462 C 184.936 78.382,183.733 78.507,183.478 78.762 C 183.237 79.003,182.170 79.200,181.107 79.200 C 179.911 79.200,179.100 79.394,178.979 79.710 C 178.850 80.046,178.225 80.166,177.139 80.063 C 175.998 79.954,175.579 80.043,175.771 80.353 C 175.957 80.654,175.524 80.800,174.447 80.800 C 173.567 80.800,172.736 80.980,172.600 81.200 C 172.464 81.420,171.823 81.600,171.176 81.600 C 170.529 81.600,170.000 81.780,170.000 82.000 C 170.000 82.220,169.460 82.400,168.800 82.400 C 168.140 82.400,167.600 82.580,167.600 82.800 C 167.600 83.020,167.060 83.200,166.400 83.200 C 165.740 83.200,165.200 83.380,165.200 83.600 C 165.200 83.820,164.928 84.000,164.595 84.000 C 164.262 84.000,163.677 84.168,163.295 84.374 C 162.913 84.579,162.015 84.983,161.300 85.271 C 160.585 85.560,160.000 85.931,160.000 86.098 C 160.000 86.264,159.640 86.400,159.200 86.400 C 158.760 86.400,158.400 86.591,158.400 86.824 C 158.400 87.057,158.235 87.145,158.032 87.020 C 157.830 86.895,157.393 87.064,157.061 87.396 C 156.729 87.728,156.158 88.000,155.792 88.000 C 155.426 88.000,154.669 88.360,154.109 88.800 C 153.550 89.240,152.846 89.600,152.546 89.600 C 152.246 89.600,152.000 89.780,152.000 90.000 C 152.000 90.220,151.640 90.400,151.200 90.400 C 150.760 90.400,150.400 90.580,150.400 90.800 C 150.400 91.020,150.080 91.200,149.688 91.200 C 149.297 91.200,148.717 91.560,148.400 92.000 C 148.083 92.440,147.503 92.800,147.112 92.800 C 146.720 92.800,146.400 92.980,146.400 93.200 C 146.400 93.420,146.228 93.600,146.018 93.600 C 145.315 93.600,142.830 95.497,143.117 95.815 C 143.273 95.987,143.175 95.999,142.900 95.841 C 142.302 95.496,142.236 94.149,142.800 93.800 C 143.020 93.664,143.200 92.753,143.200 91.776 C 143.200 90.799,143.380 90.000,143.600 90.000 C 143.820 90.000,144.000 89.370,144.000 88.600 C 144.000 87.830,144.180 87.200,144.400 87.200 C 144.620 87.200,144.800 86.570,144.800 85.800 C 144.800 85.030,144.980 84.400,145.200 84.400 C 145.420 84.400,145.600 83.950,145.600 83.400 C 145.600 82.850,145.780 82.400,146.000 82.400 C 146.220 82.400,146.400 81.860,146.400 81.200 C 146.400 80.540,146.580 80.000,146.800 80.000 C 147.020 80.000,147.200 79.539,147.200 78.976 C 147.200 78.396,147.373 78.060,147.600 78.200 C 147.828 78.341,148.000 77.996,148.000 77.400 C 148.000 76.804,148.172 76.459,148.400 76.600 C 148.620 76.736,148.800 76.492,148.800 76.057 C 148.800 75.622,148.935 75.207,149.100 75.133 C 149.265 75.060,149.833 74.145,150.363 73.100 C 150.892 72.055,151.477 71.200,151.663 71.200 C 151.848 71.200,152.000 70.996,152.000 70.747 C 152.000 70.498,152.324 70.003,152.719 69.647 C 153.114 69.291,153.872 68.370,154.404 67.600 C 155.437 66.102,156.840 64.676,158.514 63.423 C 159.085 62.996,159.462 62.501,159.352 62.323 C 159.243 62.145,159.433 62.000,159.776 62.000 C 160.119 62.000,160.400 61.820,160.400 61.600 C 160.400 61.380,160.720 61.200,161.112 61.200 C 161.503 61.200,162.083 60.840,162.400 60.400 C 162.717 59.960,163.282 59.600,163.655 59.600 C 164.028 59.600,164.394 59.418,164.468 59.196 C 164.542 58.974,164.962 58.714,165.401 58.620 C 166.480 58.387,168.952 57.452,169.200 57.183 C 169.310 57.064,170.210 56.728,171.200 56.438 C 172.190 56.147,173.368 55.739,173.817 55.531 C 174.267 55.323,174.936 55.109,175.306 55.055 C 175.675 55.001,176.102 54.831,176.255 54.678 C 176.408 54.525,176.998 54.394,177.567 54.387 C 178.135 54.380,178.915 54.135,179.300 53.843 C 179.686 53.550,180.452 53.397,181.003 53.503 C 181.554 53.608,182.282 53.464,182.621 53.182 C 182.961 52.901,183.976 52.699,184.879 52.735 C 185.781 52.770,186.747 52.610,187.026 52.379 C 187.304 52.148,188.627 51.953,189.966 51.947 C 191.547 51.939,192.402 51.771,192.406 51.468 C 192.410 51.167,192.535 51.194,192.756 51.543 C 192.996 51.921,193.183 51.951,193.374 51.643 M210.200 92.000 C 210.336 92.220,211.517 92.400,212.824 92.400 C 214.141 92.400,215.200 92.578,215.200 92.800 C 215.200 93.020,216.100 93.200,217.200 93.200 C 218.300 93.200,219.200 93.380,219.200 93.600 C 219.200 93.820,219.729 94.000,220.376 94.000 C 221.023 94.000,221.664 94.180,221.800 94.400 C 221.936 94.620,222.667 94.800,223.424 94.800 C 224.181 94.800,224.800 94.958,224.800 95.150 C 224.800 95.343,225.288 95.500,225.883 95.500 C 226.479 95.500,227.034 95.703,227.117 95.950 C 227.199 96.198,227.702 96.400,228.233 96.400 C 228.765 96.400,229.200 96.580,229.200 96.800 C 229.200 97.020,229.639 97.200,230.176 97.200 C 230.713 97.200,231.264 97.380,231.400 97.600 C 231.536 97.820,231.997 98.000,232.424 98.000 C 232.851 98.000,233.200 98.180,233.200 98.400 C 233.200 98.620,233.560 98.800,234.000 98.800 C 234.440 98.800,234.800 98.980,234.800 99.200 C 234.800 99.420,235.053 99.600,235.362 99.600 C 236.028 99.600,239.341 101.268,239.533 101.700 C 239.607 101.865,240.012 102.000,240.433 102.000 C 240.855 102.000,241.200 102.180,241.200 102.400 C 241.200 102.620,241.560 102.800,242.000 102.800 C 242.440 102.800,242.800 102.955,242.800 103.144 C 242.800 103.334,243.610 103.919,244.600 104.444 C 245.590 104.969,246.400 105.534,246.400 105.699 C 246.400 105.865,246.625 106.000,246.900 106.000 C 247.333 106.001,248.057 106.512,250.283 108.392 C 250.549 108.616,250.972 108.800,251.223 108.800 C 251.474 108.800,252.178 109.334,252.787 109.986 C 253.396 110.638,254.008 111.058,254.147 110.919 C 254.286 110.780,254.400 110.997,254.400 111.400 C 254.400 111.803,254.509 112.024,254.643 111.891 C 254.890 111.643,255.120 111.801,257.208 113.660 L 258.400 114.721 258.400 120.560 C 258.400 124.187,258.248 126.400,258.000 126.400 C 257.780 126.400,257.600 126.773,257.600 127.229 C 257.600 128.967,250.755 130.346,249.800 128.800 C 249.664 128.580,248.743 128.400,247.753 128.400 C 246.655 128.400,246.049 128.244,246.200 128.000 C 246.345 127.765,245.901 127.594,245.124 127.585 C 243.034 127.561,240.635 127.159,240.220 126.763 C 240.011 126.563,239.156 126.400,238.320 126.400 C 237.484 126.400,236.800 126.220,236.800 126.000 C 236.800 125.780,236.350 125.600,235.800 125.600 C 235.250 125.600,234.800 125.420,234.800 125.200 C 234.800 124.980,234.080 124.800,233.200 124.800 C 232.320 124.800,231.600 124.620,231.600 124.400 C 231.600 124.180,230.981 124.000,230.224 124.000 C 229.467 124.000,228.736 123.820,228.600 123.600 C 228.464 123.380,227.838 123.200,227.210 123.200 C 226.581 123.200,226.007 123.029,225.933 122.821 C 225.860 122.612,224.962 122.387,223.938 122.321 C 222.915 122.254,222.160 122.065,222.262 121.900 C 222.364 121.735,221.933 121.600,221.304 121.600 C 220.675 121.600,219.989 121.438,219.780 121.241 C 219.414 120.895,217.937 120.620,213.900 120.146 C 212.855 120.023,212.000 119.757,212.000 119.553 C 212.000 119.336,207.793 119.196,201.800 119.214 C 195.684 119.232,191.600 119.395,191.600 119.622 C 191.600 119.830,190.550 120.000,189.267 120.000 C 187.983 120.000,186.801 120.132,186.640 120.294 C 186.225 120.709,182.090 121.544,180.300 121.574 C 179.475 121.588,178.800 121.780,178.800 122.000 C 178.800 122.220,178.095 122.400,177.233 122.400 C 176.372 122.400,175.607 122.572,175.533 122.782 C 175.460 122.993,174.725 123.210,173.900 123.264 C 173.075 123.319,172.400 123.507,172.400 123.682 C 172.400 123.857,171.680 124.000,170.800 124.000 C 169.920 124.000,169.200 124.180,169.200 124.400 C 169.200 124.620,168.581 124.800,167.824 124.800 C 167.067 124.800,166.336 124.980,166.200 125.200 C 166.064 125.420,165.344 125.600,164.600 125.600 C 163.856 125.600,163.136 125.780,163.000 126.000 C 162.864 126.220,162.234 126.400,161.600 126.400 C 160.966 126.400,160.349 126.559,160.229 126.752 C 160.110 126.946,158.614 127.234,156.906 127.392 C 155.198 127.551,153.620 127.823,153.400 127.997 C 152.971 128.337,150.700 128.666,146.189 129.043 C 143.182 129.295,141.969 128.446,142.325 126.339 C 142.394 125.933,142.259 125.600,142.025 125.600 C 141.746 125.600,141.600 123.741,141.600 120.182 C 141.600 114.642,142.189 112.800,143.960 112.800 C 144.177 112.800,145.242 111.900,146.324 110.800 C 147.407 109.700,148.508 108.800,148.770 108.800 C 149.033 108.800,149.119 108.592,148.962 108.338 C 148.786 108.053,148.852 107.985,149.135 108.160 C 149.387 108.316,150.017 108.019,150.535 107.501 C 151.053 106.983,151.648 106.616,151.857 106.686 C 152.065 106.755,152.626 106.449,153.101 106.006 C 153.577 105.563,154.077 105.200,154.211 105.200 C 154.346 105.200,155.241 104.660,156.200 104.000 C 157.159 103.340,158.122 102.800,158.339 102.800 C 158.556 102.800,158.793 102.665,158.867 102.500 C 159.059 102.068,162.372 100.400,163.038 100.400 C 163.347 100.400,163.600 100.220,163.600 100.000 C 163.600 99.780,163.960 99.600,164.400 99.600 C 164.840 99.600,165.200 99.420,165.200 99.200 C 165.200 98.980,165.560 98.800,166.000 98.800 C 166.440 98.800,166.800 98.620,166.800 98.400 C 166.800 98.180,167.149 98.000,167.576 98.000 C 168.003 98.000,168.464 97.820,168.600 97.600 C 168.736 97.380,169.204 97.200,169.640 97.200 C 170.077 97.200,170.820 96.840,171.293 96.399 C 171.944 95.793,172.229 95.720,172.470 96.099 C 172.724 96.499,172.789 96.500,172.794 96.100 C 172.797 95.812,173.310 95.600,174.000 95.600 C 174.660 95.600,175.200 95.420,175.200 95.200 C 175.200 94.980,175.729 94.800,176.376 94.800 C 177.023 94.800,177.664 94.620,177.800 94.400 C 177.936 94.180,178.566 94.000,179.200 94.000 C 179.834 94.000,180.464 93.820,180.600 93.600 C 180.736 93.380,181.722 93.200,182.790 93.200 C 183.859 93.200,184.793 93.025,184.867 92.812 C 184.940 92.599,186.042 92.391,187.315 92.350 C 188.588 92.309,189.724 92.124,189.838 91.938 C 190.142 91.446,209.895 91.507,210.200 92.000 M207.529 133.230 C 209.762 133.265,211.491 133.452,211.371 133.647 C 211.251 133.841,211.783 134.000,212.553 134.000 C 213.323 134.000,214.064 134.180,214.200 134.400 C 214.336 134.620,215.056 134.800,215.800 134.800 C 216.544 134.800,217.264 134.980,217.400 135.200 C 217.536 135.420,218.256 135.600,219.000 135.600 C 219.744 135.600,220.464 135.780,220.600 136.000 C 220.736 136.220,221.377 136.400,222.024 136.400 C 222.671 136.400,223.200 136.580,223.200 136.800 C 223.200 137.020,223.920 137.200,224.800 137.200 C 225.680 137.200,226.400 137.380,226.400 137.600 C 226.400 137.820,226.929 138.000,227.576 138.000 C 228.223 138.000,228.864 138.180,229.000 138.400 C 229.136 138.620,229.867 138.800,230.624 138.800 C 231.381 138.800,232.000 138.961,232.000 139.158 C 232.000 139.355,232.675 139.615,233.500 139.735 C 236.245 140.137,237.796 140.497,238.218 140.832 C 238.449 141.014,238.989 141.155,239.418 141.147 C 242.498 141.083,245.601 142.280,245.501 143.492 C 245.459 143.992,245.285 144.400,245.113 144.400 C 244.941 144.400,244.800 144.839,244.800 145.376 C 244.800 145.913,244.619 146.465,244.397 146.602 C 244.175 146.739,244.073 147.290,244.170 147.826 C 244.268 148.362,244.179 148.800,243.974 148.800 C 243.768 148.800,243.600 149.340,243.600 150.000 C 243.600 150.660,243.420 151.200,243.200 151.200 C 242.980 151.200,242.800 151.740,242.800 152.400 C 242.800 153.060,242.620 153.600,242.400 153.600 C 242.180 153.600,242.000 153.960,242.000 154.400 C 242.000 154.840,241.820 155.200,241.600 155.200 C 241.380 155.200,241.200 155.616,241.200 156.125 C 241.200 156.633,240.840 157.436,240.400 157.908 C 239.960 158.380,239.600 159.044,239.600 159.383 C 239.600 159.722,239.420 160.000,239.200 160.000 C 238.980 160.000,238.800 160.360,238.800 160.800 C 238.800 161.240,238.620 161.600,238.400 161.600 C 238.180 161.600,238.000 161.870,238.000 162.200 C 238.000 162.530,237.820 162.800,237.600 162.800 C 237.380 162.800,237.200 163.070,237.200 163.400 C 237.200 163.730,237.020 164.000,236.800 164.000 C 236.580 164.000,236.400 164.270,236.400 164.600 C 236.400 164.930,236.250 165.200,236.068 165.200 C 235.885 165.200,235.481 165.695,235.170 166.300 C 234.860 166.905,234.293 167.688,233.910 168.041 C 233.528 168.393,233.331 168.798,233.474 168.941 C 233.617 169.083,233.433 169.200,233.067 169.200 C 232.700 169.200,232.400 169.470,232.400 169.800 C 232.400 170.130,232.220 170.400,232.000 170.400 C 231.780 170.400,231.600 170.670,231.600 171.000 C 231.600 171.330,231.409 171.600,231.176 171.600 C 230.943 171.600,230.864 171.780,231.000 172.000 C 231.136 172.220,231.048 172.400,230.805 172.400 C 230.205 172.400,228.388 174.254,228.691 174.558 C 228.824 174.691,228.633 174.800,228.267 174.800 C 227.900 174.800,227.600 174.980,227.600 175.200 C 227.600 175.420,227.407 175.600,227.171 175.600 C 226.607 175.600,225.600 176.622,225.600 177.195 C 225.600 177.444,225.443 177.550,225.252 177.432 C 225.060 177.313,224.492 177.573,223.990 178.008 C 223.488 178.444,222.915 178.800,222.715 178.800 C 222.516 178.800,222.463 178.978,222.597 179.195 C 222.737 179.422,222.577 179.489,222.221 179.353 C 221.879 179.222,221.600 179.278,221.600 179.478 C 221.600 179.679,220.703 180.283,219.606 180.821 C 218.510 181.360,217.610 181.935,217.606 182.100 C 217.603 182.265,217.328 182.400,216.995 182.400 C 216.662 182.400,216.077 182.565,215.695 182.767 C 213.812 183.763,211.125 184.800,210.428 184.800 C 209.999 184.800,209.536 184.980,209.400 185.200 C 209.264 185.420,208.613 185.600,207.953 185.600 C 207.099 185.600,206.840 185.744,207.053 186.100 C 207.257 186.440,207.137 186.424,206.677 186.051 C 206.236 185.693,206.000 185.658,206.000 185.951 C 206.000 186.535,193.760 186.583,193.400 186.000 C 193.264 185.780,192.544 185.600,191.800 185.600 C 191.056 185.600,190.336 185.420,190.200 185.200 C 190.064 184.980,189.323 184.800,188.553 184.800 C 187.721 184.800,187.253 184.638,187.400 184.400 C 187.540 184.173,187.204 184.000,186.624 184.000 C 186.061 184.000,185.600 183.820,185.600 183.600 C 185.600 183.380,185.240 183.200,184.800 183.200 C 184.360 183.200,184.000 183.020,184.000 182.800 C 184.000 182.580,183.640 182.400,183.200 182.400 C 182.760 182.400,182.400 182.220,182.400 182.000 C 182.400 181.780,182.040 181.600,181.600 181.600 C 181.160 181.600,180.800 181.420,180.800 181.200 C 180.800 180.980,180.554 180.800,180.254 180.800 C 179.954 180.800,179.235 180.428,178.658 179.974 C 178.080 179.520,177.426 179.260,177.204 179.398 C 176.982 179.535,176.800 179.356,176.800 179.000 C 176.800 178.644,176.654 178.443,176.476 178.553 C 176.298 178.663,175.715 178.224,175.181 177.577 C 174.646 176.929,174.069 176.400,173.898 176.400 C 173.357 176.400,167.600 170.590,167.600 170.043 C 167.600 169.756,167.060 169.017,166.400 168.400 C 165.740 167.783,165.200 167.031,165.200 166.728 C 165.200 166.425,164.840 165.917,164.400 165.600 C 163.960 165.283,163.600 164.783,163.600 164.488 C 163.600 164.194,163.420 164.064,163.200 164.200 C 162.980 164.336,162.800 164.202,162.800 163.903 C 162.800 163.149,161.865 161.207,161.500 161.203 C 161.335 161.201,161.200 160.930,161.200 160.600 C 161.200 160.270,161.020 160.000,160.800 160.000 C 160.580 160.000,160.400 159.640,160.400 159.200 C 160.400 158.760,160.264 158.400,160.098 158.400 C 159.736 158.400,158.734 156.091,158.187 154.000 C 157.728 152.243,157.452 151.600,157.157 151.600 C 156.960 151.600,156.800 151.096,156.800 150.480 C 156.800 149.864,156.625 149.185,156.411 148.971 C 156.198 148.758,155.968 148.227,155.900 147.791 C 155.832 147.356,155.646 146.791,155.487 146.536 C 155.327 146.280,155.160 145.560,155.115 144.936 C 155.071 144.311,154.872 143.687,154.674 143.550 C 153.762 142.916,154.861 141.600,156.327 141.569 C 157.137 141.553,158.160 141.467,158.600 141.379 C 159.040 141.291,159.940 141.129,160.600 141.019 C 161.260 140.909,162.610 140.644,163.600 140.431 C 164.590 140.217,165.940 139.930,166.600 139.791 C 167.260 139.653,168.160 139.387,168.600 139.200 C 169.542 138.800,171.215 138.417,173.298 138.126 C 174.122 138.011,174.719 137.793,174.625 137.641 C 174.532 137.490,175.028 137.323,175.728 137.271 C 176.427 137.218,177.585 137.001,178.300 136.788 C 179.015 136.574,180.198 136.220,180.928 136.000 C 181.659 135.780,182.638 135.600,183.105 135.600 C 183.571 135.600,184.064 135.420,184.200 135.200 C 184.336 134.980,185.247 134.800,186.224 134.800 C 187.201 134.800,188.000 134.620,188.000 134.400 C 188.000 134.180,188.954 134.000,190.120 134.000 C 191.286 134.000,192.414 133.826,192.627 133.613 C 192.947 133.293,202.481 132.816,203.234 133.083 C 203.363 133.128,205.295 133.194,207.529 133.230 M156.800 196.000 C 156.800 196.220,156.344 196.400,155.787 196.400 C 154.565 196.400,152.000 198.814,152.000 199.963 C 152.000 200.397,151.820 200.864,151.600 201.000 C 151.380 201.136,151.200 201.597,151.200 202.024 C 151.200 202.451,151.020 202.800,150.800 202.800 C 150.580 202.800,150.400 203.160,150.400 203.600 C 150.400 204.040,150.220 204.400,150.000 204.400 C 149.780 204.400,149.600 204.760,149.600 205.200 C 149.600 205.640,149.420 206.000,149.200 206.000 C 148.980 206.000,148.800 206.360,148.800 206.800 C 148.800 207.240,148.620 207.600,148.400 207.600 C 148.180 207.600,148.000 207.960,148.000 208.400 C 148.000 208.840,147.820 209.200,147.600 209.200 C 147.380 209.200,147.200 209.470,147.200 209.800 C 147.200 210.130,146.870 210.400,146.467 210.400 C 146.063 210.400,145.612 210.521,145.464 210.669 C 145.055 211.079,135.098 214.456,134.308 214.453 C 133.927 214.452,133.512 214.619,133.384 214.825 C 133.257 215.031,132.724 215.200,132.200 215.200 C 131.676 215.200,131.136 215.380,131.000 215.600 C 130.864 215.820,130.313 216.000,129.776 216.000 C 129.239 216.000,128.800 216.180,128.800 216.400 C 128.800 216.620,128.260 216.800,127.600 216.800 C 126.940 216.800,126.400 216.980,126.400 217.200 C 126.400 217.420,125.860 217.600,125.200 217.600 C 124.540 217.600,124.000 217.780,124.000 218.000 C 124.000 218.220,123.460 218.400,122.800 218.400 C 122.140 218.400,121.600 218.580,121.600 218.800 C 121.600 219.020,121.060 219.200,120.400 219.200 C 119.740 219.200,119.200 219.380,119.200 219.600 C 119.200 219.820,118.660 220.000,118.000 220.000 C 117.340 220.000,116.800 220.180,116.800 220.400 C 116.800 220.620,116.260 220.800,115.600 220.800 C 114.940 220.800,114.400 220.980,114.400 221.200 C 114.400 221.420,113.950 221.600,113.400 221.600 C 112.850 221.600,112.400 221.780,112.400 222.000 C 112.400 222.220,111.860 222.400,111.200 222.400 C 110.540 222.400,110.000 222.580,110.000 222.800 C 110.000 223.020,109.460 223.200,108.800 223.200 C 108.140 223.200,107.600 223.380,107.600 223.600 C 107.600 223.820,107.060 224.000,106.400 224.000 C 105.740 224.000,105.200 224.180,105.200 224.400 C 105.200 224.620,104.761 224.800,104.224 224.800 C 103.687 224.800,103.136 224.980,103.000 225.200 C 102.864 225.420,102.223 225.600,101.576 225.600 C 100.929 225.600,100.400 225.780,100.400 226.000 C 100.400 226.220,99.871 226.400,99.224 226.400 C 98.577 226.400,97.946 226.563,97.823 226.763 C 97.700 226.962,96.699 227.249,95.599 227.400 C 94.499 227.551,93.700 227.838,93.823 228.038 C 94.043 228.393,93.488 228.558,92.500 228.430 C 92.225 228.394,92.000 228.553,92.000 228.782 C 92.000 229.012,91.629 229.200,91.176 229.200 C 90.723 229.200,90.464 229.380,90.600 229.600 C 90.740 229.827,90.404 230.000,89.824 230.000 C 89.261 230.000,88.800 230.180,88.800 230.400 C 88.800 230.620,88.429 230.800,87.976 230.800 C 87.523 230.800,87.240 230.942,87.348 231.115 C 87.455 231.288,86.970 231.680,86.271 231.985 C 85.572 232.290,84.709 232.868,84.353 233.270 C 83.997 233.671,83.488 234.000,83.222 234.000 C 82.955 234.000,82.046 234.720,81.200 235.600 C 80.354 236.480,79.574 237.200,79.466 237.200 C 79.117 237.200,76.400 239.974,76.400 240.329 C 76.400 240.518,75.635 241.493,74.700 242.497 C 72.292 245.080,71.600 245.952,71.600 246.405 C 71.600 246.622,71.420 246.800,71.200 246.800 C 70.980 246.800,70.800 247.070,70.800 247.400 C 70.800 247.730,70.601 248.000,70.357 248.000 C 70.114 248.000,70.021 248.277,70.150 248.615 C 70.285 248.965,70.131 249.328,69.793 249.458 C 69.467 249.583,69.200 250.026,69.200 250.443 C 69.200 250.859,69.065 251.201,68.900 251.203 C 68.541 251.207,67.600 253.144,67.600 253.880 C 67.600 254.166,67.420 254.400,67.200 254.400 C 66.980 254.400,66.800 254.850,66.800 255.400 C 66.800 255.950,66.620 256.400,66.400 256.400 C 66.180 256.400,66.000 256.850,66.000 257.400 C 66.000 257.950,65.820 258.400,65.600 258.400 C 65.380 258.400,65.200 259.120,65.200 260.000 C 65.200 260.880,65.020 261.600,64.800 261.600 C 64.578 261.600,64.400 262.659,64.400 263.976 C 64.400 265.283,64.222 266.463,64.005 266.597 C 63.462 266.933,63.462 327.600,64.005 327.600 C 64.222 327.600,64.400 327.891,64.400 328.246 C 64.400 331.515,72.347 332.971,75.322 330.246 C 76.135 329.501,76.800 328.601,76.800 328.246 C 76.800 327.891,76.980 327.600,77.200 327.600 C 77.463 327.600,77.600 317.400,77.600 297.800 C 77.600 278.200,77.737 268.000,78.000 268.000 C 78.220 268.000,78.400 267.010,78.400 265.800 C 78.400 264.590,78.580 263.600,78.800 263.600 C 79.020 263.600,79.200 263.161,79.200 262.624 C 79.200 262.087,79.380 261.536,79.600 261.400 C 79.820 261.264,80.000 260.803,80.000 260.376 C 80.000 259.949,80.135 259.599,80.300 259.597 C 80.711 259.593,81.600 257.609,81.600 256.697 C 81.600 256.288,81.780 256.064,82.000 256.200 C 82.220 256.336,82.400 256.249,82.400 256.007 C 82.400 255.765,82.760 255.180,83.200 254.708 C 83.640 254.236,84.000 253.613,84.000 253.325 C 84.000 253.036,84.191 252.800,84.424 252.800 C 84.657 252.800,84.736 252.620,84.600 252.400 C 84.464 252.180,84.552 252.000,84.795 252.000 C 85.530 252.000,87.263 250.026,86.960 249.535 C 86.804 249.283,86.851 249.185,87.065 249.317 C 87.279 249.449,87.707 249.207,88.015 248.779 C 88.324 248.350,88.699 248.000,88.848 248.000 C 88.998 248.000,89.731 247.415,90.478 246.700 C 92.251 245.003,93.279 244.209,94.118 243.887 C 94.493 243.743,94.800 243.429,94.800 243.189 C 94.800 242.949,94.980 242.864,95.200 243.000 C 95.420 243.136,95.600 243.101,95.600 242.921 C 95.600 242.513,97.107 241.869,100.200 240.955 C 101.520 240.566,102.850 240.058,103.156 239.828 C 103.461 239.598,104.119 239.463,104.617 239.528 C 105.116 239.594,105.641 239.457,105.785 239.224 C 105.929 238.991,106.472 238.800,106.990 238.800 C 107.509 238.800,108.001 238.597,108.083 238.350 C 108.166 238.103,108.710 237.900,109.293 237.900 C 109.876 237.900,110.439 237.675,110.545 237.399 C 110.660 237.100,111.151 236.978,111.768 237.096 C 112.379 237.213,112.800 237.111,112.800 236.847 C 112.800 236.601,113.340 236.400,114.000 236.400 C 114.660 236.400,115.200 236.220,115.200 236.000 C 115.200 235.780,115.740 235.600,116.400 235.600 C 117.060 235.600,117.600 235.420,117.600 235.200 C 117.600 234.980,118.140 234.800,118.800 234.800 C 119.460 234.800,120.000 234.620,120.000 234.400 C 120.000 234.180,120.439 234.000,120.976 234.000 C 121.513 234.000,122.064 233.820,122.200 233.600 C 122.336 233.380,122.876 233.200,123.400 233.200 C 123.924 233.200,124.464 233.020,124.600 232.800 C 124.736 232.580,125.287 232.400,125.824 232.400 C 126.361 232.400,126.800 232.220,126.800 232.000 C 126.800 231.780,127.340 231.600,128.000 231.600 C 128.660 231.600,129.200 231.420,129.200 231.200 C 129.200 230.980,129.740 230.800,130.400 230.800 C 131.060 230.800,131.600 230.620,131.600 230.400 C 131.600 230.180,132.140 230.000,132.800 230.000 C 133.460 230.000,134.000 229.820,134.000 229.600 C 134.000 229.380,134.551 229.200,135.224 229.200 C 135.937 229.200,136.344 229.033,136.200 228.800 C 136.053 228.562,136.529 228.400,137.376 228.400 C 138.159 228.400,138.800 228.220,138.800 228.000 C 138.800 227.780,139.340 227.600,140.000 227.600 C 140.660 227.600,141.200 227.420,141.200 227.200 C 141.200 226.980,141.650 226.800,142.200 226.800 C 142.750 226.800,143.200 226.620,143.200 226.400 C 143.200 226.180,143.725 226.000,144.367 226.000 C 145.008 226.000,145.593 225.825,145.667 225.611 C 145.979 224.701,150.527 224.944,151.013 225.898 C 151.265 226.391,151.590 226.676,151.736 226.531 C 151.881 226.386,152.000 226.485,152.000 226.752 C 152.000 227.018,152.450 227.686,153.000 228.236 C 153.550 228.786,154.000 229.402,154.000 229.605 C 154.000 229.808,154.630 230.603,155.400 231.373 C 156.170 232.143,156.800 232.959,156.800 233.186 C 156.800 233.413,157.520 234.341,158.400 235.248 C 159.280 236.155,160.000 237.062,160.000 237.265 C 160.000 237.468,160.378 238.031,160.841 238.517 C 161.303 239.003,162.156 240.030,162.737 240.800 C 163.317 241.570,164.198 242.566,164.696 243.013 C 165.193 243.460,165.600 244.022,165.600 244.262 C 165.600 244.503,166.230 245.387,167.000 246.228 C 167.770 247.069,168.400 247.919,168.400 248.118 C 168.400 248.316,168.940 248.983,169.600 249.600 C 170.260 250.217,170.800 250.919,170.800 251.160 C 170.800 251.402,170.980 251.600,171.200 251.600 C 171.420 251.600,171.600 251.793,171.600 252.029 C 171.600 252.666,172.653 253.600,173.371 253.600 C 173.717 253.600,174.000 253.781,174.000 254.001 C 174.000 254.238,175.230 254.384,177.000 254.358 C 178.650 254.333,180.000 254.152,180.000 253.956 C 180.000 253.760,180.349 253.600,180.776 253.600 C 181.203 253.600,181.664 253.420,181.800 253.200 C 181.936 252.980,182.397 252.800,182.824 252.800 C 183.251 252.800,183.600 252.620,183.600 252.400 C 183.600 252.180,183.949 252.000,184.376 252.000 C 184.803 252.000,185.264 251.820,185.400 251.600 C 185.536 251.380,185.977 251.200,186.381 251.200 C 186.784 251.200,187.217 250.933,187.342 250.607 C 187.472 250.269,187.835 250.115,188.185 250.250 C 188.523 250.379,188.800 250.286,188.800 250.043 C 188.800 249.799,189.149 249.600,189.576 249.600 C 190.003 249.600,190.464 249.420,190.600 249.200 C 190.736 248.980,191.197 248.800,191.624 248.800 C 192.051 248.800,192.400 248.620,192.400 248.400 C 192.400 248.180,192.760 248.000,193.200 248.000 C 193.640 248.000,194.000 247.820,194.000 247.600 C 194.000 247.380,194.349 247.200,194.776 247.200 C 195.203 247.200,195.664 247.020,195.800 246.800 C 195.936 246.580,196.472 246.400,196.990 246.400 C 197.509 246.400,197.993 246.234,198.067 246.030 C 198.140 245.827,198.470 245.602,198.800 245.530 C 199.130 245.459,199.549 245.220,199.730 245.000 C 199.945 244.741,200.132 244.776,200.264 245.100 C 200.375 245.375,200.812 245.600,201.233 245.600 C 201.655 245.600,202.000 245.780,202.000 246.000 C 202.000 246.220,202.439 246.400,202.976 246.400 C 203.513 246.400,204.064 246.580,204.200 246.800 C 204.336 247.020,204.797 247.200,205.224 247.200 C 205.651 247.200,206.000 247.380,206.000 247.600 C 206.000 247.820,206.360 248.000,206.800 248.000 C 207.240 248.000,207.600 248.180,207.600 248.400 C 207.600 248.620,207.949 248.800,208.376 248.800 C 208.803 248.800,209.264 248.980,209.400 249.200 C 209.536 249.420,209.997 249.600,210.424 249.600 C 210.851 249.600,211.200 249.780,211.200 250.000 C 211.200 250.220,211.560 250.400,212.000 250.400 C 212.440 250.400,212.800 250.580,212.800 250.800 C 212.800 251.020,213.160 251.200,213.600 251.200 C 214.040 251.200,214.400 251.380,214.400 251.600 C 214.400 251.820,214.749 252.000,215.176 252.000 C 215.603 252.000,216.066 252.183,216.204 252.407 C 216.342 252.630,216.596 252.726,216.769 252.619 C 216.941 252.513,217.424 252.684,217.841 253.000 C 218.258 253.316,218.915 253.580,219.300 253.587 C 219.685 253.594,220.000 253.780,220.000 254.000 C 220.000 254.231,221.267 254.400,223.000 254.400 C 224.733 254.400,226.000 254.231,226.000 254.000 C 226.000 253.780,226.371 253.600,226.824 253.600 C 227.277 253.600,227.536 253.420,227.400 253.200 C 227.264 252.980,227.433 252.800,227.776 252.800 C 228.119 252.800,228.400 252.530,228.400 252.200 C 228.400 251.870,228.580 251.600,228.800 251.600 C 229.020 251.600,229.200 251.402,229.200 251.160 C 229.200 250.919,229.740 250.217,230.400 249.600 C 231.060 248.983,231.600 248.303,231.600 248.088 C 231.600 247.873,232.320 246.955,233.200 246.048 C 234.080 245.141,234.755 244.259,234.700 244.089 C 234.645 243.918,235.230 243.116,236.000 242.307 C 238.056 240.148,239.014 238.839,238.890 238.363 C 238.830 238.130,238.949 238.045,239.156 238.173 C 239.363 238.300,239.898 237.813,240.345 237.089 C 240.792 236.365,241.618 235.239,242.179 234.586 C 242.740 233.934,243.199 233.265,243.200 233.100 C 243.200 232.936,243.920 232.059,244.800 231.152 C 245.680 230.245,246.400 229.255,246.400 228.952 C 246.400 228.648,246.580 228.400,246.800 228.400 C 247.020 228.400,247.200 228.040,247.200 227.600 C 247.200 227.046,247.467 226.800,248.067 226.800 C 248.543 226.800,248.824 226.691,248.691 226.557 C 248.365 226.232,249.646 224.900,250.400 224.779 C 251.391 224.620,254.400 225.276,254.400 225.651 C 254.400 225.843,255.041 226.000,255.824 226.000 C 256.671 226.000,257.147 226.162,257.000 226.400 C 256.853 226.639,257.337 226.800,258.200 226.800 C 259.063 226.800,259.547 226.961,259.400 227.200 C 259.260 227.427,259.596 227.600,260.176 227.600 C 260.739 227.600,261.200 227.780,261.200 228.000 C 261.200 228.220,261.729 228.400,262.376 228.400 C 263.023 228.400,263.664 228.580,263.800 228.800 C 263.936 229.020,264.487 229.200,265.024 229.200 C 265.561 229.200,266.000 229.380,266.000 229.600 C 266.000 229.820,266.641 230.000,267.424 230.000 C 268.271 230.000,268.747 230.162,268.600 230.400 C 268.456 230.633,268.863 230.800,269.576 230.800 C 270.249 230.800,270.800 230.980,270.800 231.200 C 270.800 231.420,271.340 231.600,272.000 231.600 C 272.660 231.600,273.200 231.780,273.200 232.000 C 273.200 232.220,273.740 232.400,274.400 232.400 C 275.060 232.400,275.600 232.580,275.600 232.800 C 275.600 233.020,276.039 233.200,276.576 233.200 C 277.113 233.200,277.664 233.380,277.800 233.600 C 277.936 233.820,278.577 234.000,279.224 234.000 C 279.871 234.000,280.400 234.191,280.400 234.424 C 280.400 234.657,280.548 234.756,280.729 234.644 C 280.909 234.532,281.560 234.702,282.174 235.020 C 282.789 235.339,283.620 235.600,284.022 235.600 C 284.424 235.600,284.864 235.780,285.000 236.000 C 285.136 236.220,285.676 236.400,286.200 236.400 C 286.724 236.400,287.264 236.580,287.400 236.800 C 287.536 237.020,288.141 237.200,288.744 237.200 C 289.347 237.200,290.011 237.353,290.220 237.541 C 290.429 237.729,291.455 238.112,292.500 238.393 C 293.545 238.674,294.400 239.061,294.400 239.252 C 294.400 239.443,294.929 239.600,295.576 239.600 C 296.223 239.600,296.864 239.780,297.000 240.000 C 297.136 240.220,297.676 240.400,298.200 240.400 C 298.724 240.400,299.249 240.556,299.368 240.747 C 299.486 240.939,300.306 241.211,301.191 241.352 C 302.076 241.494,302.800 241.787,302.800 242.005 C 302.800 242.222,303.250 242.400,303.800 242.400 C 304.350 242.400,304.800 242.580,304.800 242.800 C 304.800 243.020,304.982 243.200,305.204 243.200 C 305.426 243.200,306.172 243.740,306.863 244.400 C 307.554 245.060,308.273 245.600,308.461 245.600 C 308.936 245.600,316.000 252.974,316.000 253.469 C 316.000 253.601,316.460 254.135,317.023 254.656 C 317.585 255.177,317.934 255.783,317.799 256.002 C 317.664 256.221,317.743 256.400,317.976 256.400 C 318.209 256.400,318.400 256.672,318.400 257.005 C 318.400 257.561,319.122 259.122,319.600 259.600 C 320.355 260.355,320.938 261.316,320.470 261.035 C 320.049 260.781,320.029 260.889,320.370 261.558 C 320.607 262.021,320.980 262.758,321.200 263.195 C 321.420 263.632,321.600 264.877,321.600 265.961 C 321.600 267.046,321.778 267.993,321.996 268.067 C 322.251 268.153,322.396 278.693,322.406 297.900 C 322.413 314.235,322.551 327.600,322.712 327.600 C 322.873 327.600,323.244 328.140,323.536 328.800 C 323.828 329.460,324.333 330.000,324.657 330.000 C 324.982 330.000,325.148 330.161,325.026 330.358 C 324.743 330.816,325.935 331.287,326.498 330.939 C 326.749 330.784,326.806 330.866,326.638 331.138 C 326.236 331.789,331.748 331.755,332.860 331.100 C 334.198 330.312,335.600 328.819,335.600 328.182 C 335.600 327.862,335.778 327.600,335.995 327.600 C 336.538 327.600,336.538 266.933,335.995 266.597 C 335.778 266.463,335.600 265.294,335.600 264.000 C 335.600 262.706,335.420 261.536,335.200 261.400 C 334.980 261.264,334.800 260.613,334.800 259.953 C 334.800 259.255,334.633 258.856,334.400 259.000 C 334.162 259.147,334.000 258.671,334.000 257.824 C 334.000 257.041,333.820 256.400,333.600 256.400 C 333.380 256.400,333.200 255.950,333.200 255.400 C 333.200 254.850,333.020 254.400,332.800 254.400 C 332.580 254.400,332.400 254.040,332.400 253.600 C 332.400 253.160,332.220 252.800,332.000 252.800 C 331.780 252.800,331.600 252.429,331.600 251.976 C 331.600 251.523,331.420 251.264,331.200 251.400 C 330.973 251.540,330.800 251.204,330.800 250.624 C 330.800 250.061,330.620 249.600,330.400 249.600 C 330.180 249.600,330.000 249.331,330.000 249.003 C 330.000 248.675,329.595 247.940,329.100 247.371 C 328.605 246.802,328.257 246.247,328.326 246.138 C 328.396 246.029,328.081 245.617,327.626 245.223 C 327.172 244.829,326.800 244.384,326.800 244.235 C 326.800 244.086,326.350 243.514,325.800 242.964 C 325.250 242.414,324.800 241.829,324.800 241.665 C 324.800 240.969,318.988 235.545,318.628 235.905 C 318.503 236.031,318.400 235.910,318.400 235.638 C 318.400 235.017,317.715 234.362,316.300 233.632 C 315.695 233.320,315.200 232.937,315.200 232.781 C 315.200 232.625,314.660 232.273,314.000 232.000 C 313.340 231.727,312.800 231.324,312.800 231.105 C 312.800 230.886,312.440 230.801,312.000 230.916 C 311.480 231.052,311.200 230.928,311.200 230.563 C 311.200 230.253,310.855 230.000,310.433 230.000 C 310.012 230.000,309.607 229.865,309.533 229.700 C 309.280 229.130,305.794 227.646,304.102 227.389 C 303.168 227.247,302.303 226.966,302.178 226.765 C 302.054 226.564,301.423 226.400,300.776 226.400 C 300.129 226.400,299.600 226.220,299.600 226.000 C 299.600 225.780,299.060 225.600,298.400 225.600 C 297.740 225.600,297.200 225.420,297.200 225.200 C 297.200 224.980,296.660 224.800,296.000 224.800 C 295.340 224.800,294.800 224.620,294.800 224.400 C 294.800 224.180,294.260 224.000,293.600 224.000 C 292.940 224.000,292.400 223.820,292.400 223.600 C 292.400 223.380,291.961 223.200,291.424 223.200 C 290.887 223.200,290.336 223.020,290.200 222.800 C 290.064 222.580,289.513 222.400,288.976 222.400 C 288.439 222.400,288.000 222.220,288.000 222.000 C 288.000 221.780,287.460 221.600,286.800 221.600 C 286.140 221.600,285.600 221.443,285.600 221.250 C 285.600 221.058,285.113 220.900,284.517 220.900 C 283.921 220.900,283.366 220.697,283.283 220.450 C 283.201 220.203,282.608 220.000,281.967 220.000 C 281.325 220.000,280.800 219.820,280.800 219.600 C 280.800 219.380,280.260 219.200,279.600 219.200 C 278.940 219.200,278.400 219.020,278.400 218.800 C 278.400 218.580,277.680 218.400,276.800 218.400 C 275.920 218.400,275.199 218.265,275.197 218.100 C 275.192 217.653,273.174 216.800,272.120 216.800 C 271.614 216.800,271.200 216.638,271.200 216.440 C 271.200 216.242,270.672 216.116,270.026 216.161 C 269.381 216.206,268.886 216.053,268.926 215.821 C 268.967 215.589,268.564 215.396,268.030 215.391 C 267.497 215.387,266.987 215.162,266.897 214.891 C 266.807 214.621,266.385 214.400,265.960 214.400 C 264.860 214.400,262.000 213.463,262.000 213.103 C 262.000 212.936,261.595 212.797,261.100 212.794 C 260.124 212.787,257.385 211.918,256.941 211.474 C 256.790 211.323,256.257 211.200,255.757 211.200 C 255.257 211.200,254.736 211.020,254.600 210.800 C 254.464 210.580,254.081 210.400,253.748 210.400 C 252.886 210.400,252.000 209.400,252.000 208.429 C 252.000 207.973,251.820 207.600,251.600 207.600 C 251.380 207.600,251.200 207.240,251.200 206.800 C 251.200 206.360,251.020 206.000,250.800 206.000 C 250.580 206.000,250.400 205.640,250.400 205.200 C 250.400 204.760,250.220 204.400,250.000 204.400 C 249.780 204.400,249.600 204.061,249.600 203.646 C 249.600 202.800,248.617 200.716,248.346 200.987 C 248.250 201.083,248.136 200.740,248.094 200.224 C 247.984 198.893,245.450 196.400,244.207 196.400 C 243.653 196.400,243.200 196.220,243.200 196.000 C 243.200 195.780,242.747 195.600,242.194 195.600 C 240.909 195.600,238.000 196.500,238.000 196.897 C 238.000 197.064,237.775 197.200,237.500 197.200 C 236.848 197.201,234.800 198.966,234.800 199.528 C 234.800 199.767,234.174 200.260,233.409 200.623 C 232.132 201.228,230.849 202.314,226.109 206.800 C 225.179 207.680,224.134 208.400,223.786 208.400 C 223.438 208.400,223.264 208.580,223.400 208.800 C 223.536 209.020,223.367 209.200,223.024 209.200 C 222.681 209.200,222.400 209.368,222.400 209.573 C 222.400 209.778,222.040 210.060,221.600 210.200 C 221.160 210.340,220.800 210.722,220.800 211.051 C 220.800 211.379,220.619 211.535,220.397 211.398 C 220.176 211.261,219.893 211.414,219.768 211.739 C 219.644 212.063,219.105 212.437,218.571 212.572 C 218.035 212.706,217.600 213.110,217.600 213.474 C 217.600 213.837,217.491 214.024,217.358 213.891 C 217.224 213.758,216.707 214.043,216.208 214.524 C 214.943 215.745,213.631 216.800,213.377 216.800 C 212.940 216.800,211.258 218.724,211.491 218.958 C 211.624 219.091,211.422 219.200,211.041 219.200 C 210.660 219.200,209.471 220.100,208.400 221.200 C 207.329 222.300,206.282 223.200,206.074 223.200 C 205.866 223.200,204.989 223.875,204.123 224.700 C 201.957 226.765,200.417 227.569,199.105 227.318 C 198.502 227.203,198.108 226.949,198.228 226.754 C 198.349 226.559,198.239 226.400,197.984 226.400 C 197.729 226.400,197.017 225.860,196.400 225.200 C 195.783 224.540,195.088 224.000,194.854 224.000 C 194.620 224.000,194.235 223.640,194.000 223.200 C 193.765 222.760,193.395 222.400,193.179 222.400 C 192.963 222.400,192.176 221.815,191.430 221.100 C 187.712 217.535,186.754 216.780,186.292 217.045 C 186.022 217.201,185.935 217.179,186.101 216.997 C 186.433 216.630,185.306 215.200,184.685 215.200 C 184.470 215.200,184.003 214.884,183.647 214.497 C 182.814 213.591,180.388 211.571,179.208 210.800 C 178.703 210.470,177.873 209.795,177.363 209.300 C 176.853 208.805,176.274 208.400,176.076 208.400 C 175.878 208.400,175.253 207.841,174.687 207.158 C 174.047 206.385,173.473 206.031,173.168 206.220 C 172.871 206.403,172.779 206.358,172.935 206.106 C 173.077 205.876,172.700 205.365,172.097 204.970 C 171.493 204.576,170.339 203.566,169.531 202.727 C 168.724 201.887,167.871 201.200,167.637 201.200 C 167.402 201.200,166.306 200.300,165.200 199.200 C 164.094 198.100,163.017 197.200,162.807 197.200 C 162.596 197.200,161.783 196.840,161.000 196.400 C 159.515 195.566,156.800 195.307,156.800 196.000 M161.765 215.000 C 162.275 215.550,162.986 216.000,163.346 216.000 C 163.706 216.000,164.000 216.180,164.000 216.401 C 164.000 216.856,166.805 219.600,167.270 219.600 C 167.437 219.600,168.173 220.185,168.906 220.900 C 170.560 222.512,172.624 224.000,173.207 224.000 C 173.449 224.000,173.547 224.162,173.424 224.361 C 173.301 224.560,173.741 224.910,174.400 225.140 C 175.060 225.370,175.600 225.838,175.600 226.179 C 175.600 226.533,175.944 226.800,176.400 226.800 C 176.840 226.800,177.200 226.961,177.200 227.158 C 177.200 227.685,179.448 230.000,179.960 230.000 C 180.202 230.000,180.400 230.180,180.400 230.400 C 180.400 230.620,180.594 230.800,180.831 230.800 C 181.069 230.800,181.924 231.475,182.731 232.300 C 183.539 233.125,184.695 234.055,185.300 234.368 C 185.905 234.680,186.400 235.054,186.400 235.200 C 186.400 235.346,185.905 235.696,185.300 235.979 C 184.695 236.262,183.887 236.652,183.505 236.847 C 183.123 237.041,182.538 237.200,182.205 237.200 C 181.872 237.200,181.600 237.380,181.600 237.600 C 181.600 237.820,181.255 238.000,180.833 238.000 C 180.412 238.000,179.994 238.218,179.905 238.485 C 179.725 239.025,176.800 236.303,176.800 235.595 C 176.800 235.358,176.395 234.747,175.900 234.237 C 175.405 233.727,174.730 232.898,174.400 232.393 C 174.070 231.889,173.347 231.009,172.792 230.438 C 172.238 229.867,171.533 228.905,171.225 228.300 C 170.917 227.695,170.437 227.200,170.159 227.200 C 169.881 227.200,169.540 226.840,169.400 226.400 C 169.260 225.960,168.978 225.600,168.773 225.600 C 168.568 225.600,168.400 225.352,168.400 225.048 C 168.400 224.745,167.680 223.755,166.800 222.848 C 165.920 221.941,165.200 221.019,165.200 220.800 C 165.200 220.581,164.480 219.659,163.600 218.752 C 162.720 217.845,162.000 216.895,162.000 216.640 C 162.000 216.385,161.640 215.917,161.200 215.600 C 160.760 215.283,160.400 214.793,160.400 214.512 C 160.400 213.762,160.726 213.879,161.765 215.000 M238.840 215.566 C 238.378 215.966,238.000 216.498,238.000 216.746 C 238.000 216.995,237.280 217.941,236.400 218.848 C 235.520 219.755,234.800 220.655,234.800 220.848 C 234.800 221.041,234.080 221.941,233.200 222.848 C 232.320 223.755,231.600 224.705,231.600 224.960 C 231.600 225.215,231.256 225.671,230.836 225.974 C 230.399 226.289,230.172 226.784,230.306 227.132 C 230.476 227.574,230.357 227.669,229.869 227.482 C 229.392 227.299,229.200 227.438,229.200 227.967 C 229.200 228.374,228.750 229.003,228.200 229.363 C 227.650 229.724,227.200 230.284,227.200 230.609 C 227.200 230.934,227.020 231.200,226.800 231.200 C 226.580 231.200,226.400 231.398,226.400 231.640 C 226.400 231.881,225.860 232.583,225.200 233.200 C 224.540 233.817,224.000 234.519,224.000 234.760 C 224.000 235.002,223.820 235.200,223.600 235.200 C 223.380 235.200,223.200 235.386,223.200 235.613 C 223.200 236.309,220.272 239.017,220.095 238.485 C 220.006 238.218,219.588 238.000,219.167 238.000 C 218.745 238.000,218.400 237.820,218.400 237.600 C 218.400 237.380,218.040 237.200,217.600 237.200 C 217.160 237.200,216.800 237.020,216.800 236.800 C 216.800 236.580,216.337 236.400,215.771 236.400 C 215.206 236.400,214.486 236.143,214.171 235.829 C 213.441 235.098,213.448 234.800,214.197 234.800 C 214.525 234.800,215.018 234.440,215.293 234.000 C 215.568 233.560,215.947 233.200,216.136 233.200 C 216.325 233.200,216.956 232.694,217.540 232.075 C 218.123 231.457,218.926 230.828,219.325 230.678 C 219.745 230.521,219.930 230.210,219.764 229.941 C 219.588 229.658,219.651 229.584,219.923 229.752 C 220.171 229.905,221.111 229.309,222.033 228.414 C 222.948 227.526,223.843 226.800,224.021 226.800 C 224.200 226.800,224.460 226.440,224.600 226.000 C 224.740 225.560,225.112 225.200,225.427 225.200 C 225.742 225.200,226.000 225.009,226.000 224.776 C 226.000 224.543,226.180 224.464,226.400 224.600 C 226.620 224.736,226.800 224.669,226.800 224.451 C 226.800 224.232,227.131 223.949,227.535 223.821 C 227.939 223.692,229.113 222.780,230.142 221.794 C 231.172 220.807,232.191 220.000,232.407 220.000 C 232.623 220.000,232.800 219.820,232.800 219.600 C 232.800 219.380,233.070 219.200,233.400 219.200 C 233.730 219.200,234.000 218.924,234.000 218.587 C 234.000 218.251,234.315 217.855,234.700 217.708 C 235.085 217.561,235.749 217.116,236.175 216.720 C 236.602 216.324,237.108 216.000,237.299 216.000 C 237.491 216.000,237.519 215.792,237.362 215.538 C 237.187 215.256,237.252 215.185,237.528 215.355 C 237.776 215.509,238.297 215.262,238.686 214.808 C 239.075 214.353,239.458 214.174,239.536 214.409 C 239.615 214.645,239.301 215.165,238.840 215.566 M127.600 256.400 C 127.600 256.620,127.407 256.800,127.171 256.800 C 126.534 256.800,125.600 257.853,125.600 258.571 C 125.600 258.917,125.420 259.200,125.200 259.200 C 124.935 259.200,124.800 277.267,124.800 312.600 C 124.800 347.933,124.935 366.000,125.200 366.000 C 125.420 366.000,125.600 366.283,125.600 366.629 C 125.600 367.320,126.169 367.937,127.510 368.700 C 128.204 369.095,143.447 369.200,200.000 369.200 C 256.553 369.200,271.796 369.095,272.490 368.700 C 273.698 368.013,274.195 367.530,274.737 366.518 C 275.402 365.274,275.402 259.926,274.737 258.682 C 274.113 257.517,273.348 256.785,273.057 257.076 C 272.926 257.207,272.705 257.019,272.567 256.657 C 272.266 255.873,127.600 255.616,127.600 256.400 M174.800 292.600 C 174.800 307.933,174.938 316.000,175.200 316.000 C 175.420 316.000,175.602 316.315,175.605 316.700 C 175.615 318.104,177.945 319.076,181.505 319.162 C 183.594 319.213,184.800 319.088,184.800 318.821 C 184.800 318.589,185.043 318.400,185.341 318.400 C 185.638 318.400,186.446 317.860,187.137 317.200 C 187.828 316.540,188.574 316.000,188.796 316.000 C 189.018 316.000,189.200 315.820,189.200 315.600 C 189.200 315.380,189.430 315.200,189.712 315.200 C 189.993 315.200,190.483 314.840,190.800 314.400 C 191.117 313.960,191.567 313.600,191.800 313.600 C 192.033 313.600,192.483 313.240,192.800 312.800 C 193.117 312.360,193.580 312.000,193.829 312.000 C 194.078 312.000,194.846 311.460,195.537 310.800 C 196.228 310.140,197.064 309.600,197.396 309.600 C 197.949 309.600,198.184 309.113,198.037 308.270 C 198.006 308.089,198.173 308.059,198.408 308.205 C 198.643 308.350,199.089 308.258,199.399 308.001 C 199.971 307.526,200.092 307.581,201.785 309.100 C 202.092 309.375,202.586 309.600,202.883 309.600 C 203.180 309.600,203.683 309.960,204.000 310.400 C 204.317 310.840,204.780 311.200,205.029 311.200 C 205.278 311.200,206.046 311.740,206.737 312.400 C 207.428 313.060,208.148 313.600,208.337 313.600 C 208.526 313.600,209.246 314.140,209.937 314.800 C 210.628 315.460,211.286 316.000,211.400 316.000 C 211.514 316.000,212.172 316.540,212.863 317.200 C 213.554 317.860,214.362 318.400,214.659 318.400 C 214.957 318.400,215.200 318.580,215.200 318.800 C 215.200 319.646,221.897 319.282,222.513 318.403 C 222.820 317.964,223.170 317.703,223.290 317.824 C 223.410 317.944,223.889 317.558,224.354 316.967 C 225.193 315.901,225.200 315.706,225.200 292.546 L 225.200 269.200 243.600 269.200 L 262.000 269.200 262.000 312.600 L 262.000 356.000 200.000 356.000 L 138.000 356.000 138.000 312.600 L 138.000 269.200 156.400 269.200 L 174.800 269.200 174.800 292.600 M212.000 283.600 C 212.000 297.593,211.978 298.000,211.223 298.000 C 210.795 298.000,210.180 297.620,209.855 297.157 C 209.530 296.693,209.065 296.436,208.822 296.586 C 208.579 296.737,208.430 296.686,208.490 296.475 C 208.628 295.991,205.680 293.600,204.945 293.600 C 204.645 293.600,204.400 293.420,204.400 293.200 C 204.400 292.980,204.040 292.800,203.600 292.800 C 203.160 292.800,202.800 292.620,202.800 292.400 C 202.800 292.171,201.600 292.000,200.000 292.000 C 198.400 292.000,197.200 292.171,197.200 292.400 C 197.200 292.620,196.840 292.800,196.400 292.800 C 195.960 292.800,195.600 292.960,195.600 293.157 C 195.600 293.353,195.150 293.626,194.600 293.764 C 194.050 293.902,193.600 294.292,193.600 294.631 C 193.600 294.970,193.420 295.136,193.200 295.000 C 192.980 294.864,192.800 294.931,192.800 295.149 C 192.800 295.368,192.434 295.662,191.987 295.804 C 191.540 295.946,190.775 296.462,190.286 296.950 C 187.916 299.321,188.000 299.807,188.000 283.787 L 188.000 269.200 200.000 269.200 L 212.000 269.200 212.000 283.600 " stroke="none" fill="#9c9c9c" fill-rule="evenodd"></path><path id="path1" d="M127.701 121.800 C 127.705 122.680,127.787 122.993,127.883 122.495 C 127.979 121.998,127.975 121.278,127.875 120.895 C 127.775 120.513,127.696 120.920,127.701 121.800 " stroke="none" fill="#a09c9c" fill-rule="evenodd"></path><path id="path2" d="M127.701 121.800 C 127.705 122.680,127.787 122.993,127.883 122.495 C 127.979 121.998,127.975 121.278,127.875 120.895 C 127.775 120.513,127.696 120.920,127.701 121.800 " stroke="none" fill="#a09c9c" fill-rule="evenodd"></path><path id="path3" d="M127.701 121.800 C 127.705 122.680,127.787 122.993,127.883 122.495 C 127.979 121.998,127.975 121.278,127.875 120.895 C 127.775 120.513,127.696 120.920,127.701 121.800 " stroke="none" fill="#a09c9c" fill-rule="evenodd"></path><path id="path4" d="M127.701 121.800 C 127.705 122.680,127.787 122.993,127.883 122.495 C 127.979 121.998,127.975 121.278,127.875 120.895 C 127.775 120.513,127.696 120.920,127.701 121.800 " stroke="none" fill="#a09c9c" fill-rule="evenodd"></path></g></svg>