<svg width="24" height="22" viewBox="0 0 24 22" fill="none" xmlns="http://www.w3.org/2000/svg">
<path fill-rule="evenodd" clip-rule="evenodd" d="M16.95 1.5C20.0841 1.5 22.5 3.91508 22.5 7.04703C22.5 8.97231 21.6428 10.7588 20.0288 12.7215C18.4098 14.6903 16.0792 16.7783 13.2125 19.313L12 20.3437L10.7875 19.313C7.9208 16.7783 5.59018 14.6903 3.97119 12.7215C2.35722 10.7588 1.5 8.97231 1.5 7.04703C1.5 3.91508 3.91591 1.5 7.05 1.5C9.22857 1.5 10.3786 2.85849 11.6002 4.3016L11.6184 4.32306C11.7134 4.43528 11.853 4.5 12 4.5C12.147 4.5 12.2866 4.43528 12.3816 4.32306L12.3998 4.3016C13.6214 2.85849 14.7714 1.5 16.95 1.5ZM23.5 7.04703C23.5 3.36233 20.6359 0.5 16.95 0.5C14.522 0.5 13.1219 1.91971 12 3.22733C10.8781 1.91971 9.47804 0.5 7.05 0.5C3.36409 0.5 0.5 3.36233 0.5 7.04703C0.5 9.29969 1.51278 11.3063 3.19881 13.3567C4.87913 15.4 7.27721 17.5441 10.1288 20.0654L10.1361 20.0718L11.6761 21.3809C11.8629 21.5397 12.1371 21.5397 12.3239 21.3809L13.8713 20.0655C16.7229 17.5441 19.1209 15.4 20.8012 13.3567C22.4872 11.3063 23.5 9.29969 23.5 7.04703Z" fill="black"/>
</svg>
