<svg width="16" height="16" viewBox="0 0 16 16" fill="none" xmlns="http://www.w3.org/2000/svg">
<path fill-rule="evenodd" clip-rule="evenodd" d="M11.3 1.66667C13.3894 1.66667 15 3.27672 15 5.36468C15 6.64821 14.4285 7.8392 13.3525 9.14767C12.2732 10.4602 10.7194 11.8522 8.80828 13.542L7.99996 14.2292L7.19164 13.542C5.28049 11.8522 3.72674 10.4602 2.64742 9.14767C1.57144 7.8392 0.999959 6.64821 0.999959 5.36468C0.999959 3.27672 2.61057 1.66667 4.69996 1.66667C6.15234 1.66667 6.91901 2.57233 7.73344 3.5344L7.74555 3.54871C7.80888 3.62352 7.90194 3.66667 7.99996 3.66667C8.09798 3.66667 8.19103 3.62352 8.25437 3.54871L8.26648 3.5344C9.08091 2.57233 9.84758 1.66667 11.3 1.66667ZM15.6666 5.36468C15.6666 2.90822 13.7572 1 11.3 1C9.68127 1 8.74791 1.94647 7.99996 2.81822C7.25201 1.94647 6.31865 1 4.69996 1C2.24269 1 0.333292 2.90822 0.333292 5.36468C0.333292 6.86646 1.00848 8.20422 2.1325 9.5711C3.25271 10.9334 4.85143 12.3627 6.75249 14.0436L6.75735 14.0479L7.78406 14.9206C7.90854 15.0265 8.09138 15.0265 8.21586 14.9206L9.24746 14.0436C11.1485 12.3628 12.7472 10.9334 13.8674 9.5711C14.9914 8.20422 15.6666 6.86646 15.6666 5.36468Z" fill="black"/>
</svg>
