<svg width="9" height="20" viewBox="0 0 9 20" fill="none" xmlns="http://www.w3.org/2000/svg">
<path fill-rule="evenodd" clip-rule="evenodd" d="M8.65866 0H7.58559C4.6026 0 2.17518 2.44668 2.17518 5.45482V7.75563H0.342342C0.153153 7.75563 0 7.91148 0 8.1023V10.8607C0 11.0515 0.153153 11.2054 0.342342 11.2054H2.17518V19.6533C2.17518 19.8442 2.32833 20 2.51752 20H5.25225C5.44144 20 5.59459 19.8442 5.59459 19.6533V11.2054H8.31532C8.5045 11.2054 8.65766 11.0515 8.65766 10.8607V8.1023C8.65766 7.91148 8.5045 7.75563 8.31532 7.75563H5.59459V5.45482C5.59459 4.34887 6.48749 3.44872 7.58458 3.44872H8.65866C8.84685 3.44872 9 3.29287 9 3.10305V0.343674C9 0.153854 8.84685 0 8.65866 0Z" fill="black"/>
</svg>
