<svg width="32" height="32" viewBox="0 0 32 32" fill="none" xmlns="http://www.w3.org/2000/svg">
<path fill-rule="evenodd" clip-rule="evenodd" d="M21.6701 15.0413H23.2371C23.6701 15.0413 24 15.3918 23.9794 15.8041C23.9794 16.2371 23.6289 16.567 23.2165 16.567H21.6495C21.3196 17.7217 20.268 18.567 19.0309 18.567C17.7938 18.567 16.7423 17.7217 16.4124 16.567H8.76289C8.3299 16.567 8 16.2165 8 15.8041C8 15.3712 8.35052 15.0413 8.76289 15.0413H16.4124C16.7629 13.9072 17.8144 13.0413 19.0515 13.0413C20.2887 13.0413 21.3402 13.8866 21.6701 15.0413ZM17.8144 15.8041C17.8144 16.5052 18.3918 17.0413 19.0515 17.0413C19.7113 17.0413 20.2887 16.5052 20.2887 15.8041C20.2887 15.1031 19.7526 14.567 19.0515 14.567C18.3505 14.567 17.8144 15.1031 17.8144 15.8041Z" fill="black"/>
<path d="M21.6701 15.0413L21.5259 15.0825L21.557 15.1913H21.6701V15.0413ZM23.9794 15.8041L23.8294 15.7966V15.8041H23.9794ZM21.6495 16.567V16.417H21.5363L21.5053 16.5258L21.6495 16.567ZM16.4124 16.567L16.5566 16.5258L16.5255 16.417H16.4124V16.567ZM16.4124 15.0413V15.1913H16.523L16.5557 15.0856L16.4124 15.0413ZM23.2371 14.8913H21.6701V15.1913H23.2371V14.8913ZM24.1292 15.8116C24.1542 15.3118 23.7541 14.8913 23.2371 14.8913V15.1913C23.5861 15.1913 23.8458 15.4717 23.8296 15.7967L24.1292 15.8116ZM23.2165 16.717C23.7091 16.717 24.1294 16.3226 24.1294 15.8041H23.8294C23.8294 16.1517 23.5487 16.417 23.2165 16.417V16.717ZM21.6495 16.717H23.2165V16.417H21.6495V16.717ZM19.0309 18.717C20.3383 18.717 21.4463 17.8241 21.7937 16.6082L21.5053 16.5258C21.1928 17.6193 20.1978 18.417 19.0309 18.417V18.717ZM16.2681 16.6082C16.6155 17.8241 17.7236 18.717 19.0309 18.717V18.417C17.8641 18.417 16.869 17.6193 16.5566 16.5258L16.2681 16.6082ZM8.76289 16.717H16.4124V16.417H8.76289V16.717ZM7.85 15.8041C7.85 16.2967 8.24442 16.717 8.76289 16.717V16.417C8.41537 16.417 8.15 16.1363 8.15 15.8041H7.85ZM8.76289 14.8913C8.27033 14.8913 7.85 15.2857 7.85 15.8041H8.15C8.15 15.4566 8.4307 15.1913 8.76289 15.1913V14.8913ZM16.4124 14.8913H8.76289V15.1913H16.4124V14.8913ZM19.0515 12.8913C17.7426 12.8913 16.6372 13.8061 16.2691 14.997L16.5557 15.0856C16.8886 14.0084 17.8863 13.1913 19.0515 13.1913V12.8913ZM21.8143 15.0001C21.467 13.7842 20.3589 12.8913 19.0515 12.8913V13.1913C20.2184 13.1913 21.2135 13.989 21.5259 15.0825L21.8143 15.0001ZM19.0515 16.8913C18.4713 16.8913 17.9644 16.4191 17.9644 15.8041H17.6644C17.6644 16.5913 18.3122 17.1913 19.0515 17.1913V16.8913ZM20.1387 15.8041C20.1387 16.4191 19.6318 16.8913 19.0515 16.8913V17.1913C19.7909 17.1913 20.4387 16.5913 20.4387 15.8041H20.1387ZM19.0515 14.717C19.6697 14.717 20.1387 15.186 20.1387 15.8041H20.4387C20.4387 15.0203 19.8354 14.417 19.0515 14.417V14.717ZM17.9644 15.8041C17.9644 15.186 18.4334 14.717 19.0515 14.717V14.417C18.2677 14.417 17.6644 15.0203 17.6644 15.8041H17.9644Z" fill="white"/>
<path fill-rule="evenodd" clip-rule="evenodd" d="M10.3918 10.5258H8.76289C8.3299 10.5258 8 10.1959 8 9.76289C8 9.3299 8.35052 9 8.76289 9H10.3918C10.7216 7.84536 11.7732 7 13.0103 7C14.2474 7 15.299 7.84536 15.6289 9H23.2371C23.6701 9 24 9.3299 24 9.76289C24 10.1959 23.6495 10.5258 23.2371 10.5258H15.6289C15.299 11.6804 14.2474 12.5258 13.0103 12.5258C11.7732 12.5258 10.7216 11.6804 10.3918 10.5258ZM14.2474 9.76289C14.2474 9.06186 13.6701 8.52577 13.0103 8.52577C12.3505 8.52577 11.7732 9.10309 11.7732 9.76289C11.7732 10.4227 12.3093 11 13.0103 11C13.7113 11 14.2474 10.4639 14.2474 9.76289Z" fill="black"/>
<path d="M10.3918 10.5258L10.536 10.4846L10.5049 10.3758H10.3918V10.5258ZM10.3918 9V9.15H10.5049L10.536 9.04121L10.3918 9ZM15.6289 9L15.4846 9.04121L15.5157 9.15H15.6289V9ZM15.6289 10.5258V10.3758H15.5157L15.4846 10.4846L15.6289 10.5258ZM8.76289 10.6758H10.3918V10.3758H8.76289V10.6758ZM7.85 9.76289C7.85 10.2787 8.24705 10.6758 8.76289 10.6758V10.3758C8.41274 10.3758 8.15 10.113 8.15 9.76289H7.85ZM8.76289 8.85C8.27033 8.85 7.85 9.24442 7.85 9.76289H8.15C8.15 9.41537 8.4307 9.15 8.76289 9.15V8.85ZM10.3918 8.85H8.76289V9.15H10.3918V8.85ZM13.0103 6.85C11.7029 6.85 10.5949 7.74297 10.2475 8.95879L10.536 9.04121C10.8484 7.94775 11.8435 7.15 13.0103 7.15V6.85ZM15.7731 8.95879C15.4257 7.74297 14.3177 6.85 13.0103 6.85V7.15C14.1772 7.15 15.1722 7.94775 15.4846 9.04121L15.7731 8.95879ZM23.2371 8.85H15.6289V9.15H23.2371V8.85ZM24.15 9.76289C24.15 9.24705 23.7529 8.85 23.2371 8.85V9.15C23.5873 9.15 23.85 9.41274 23.85 9.76289H24.15ZM23.2371 10.6758C23.7297 10.6758 24.15 10.2813 24.15 9.76289H23.85C23.85 10.1104 23.5693 10.3758 23.2371 10.3758V10.6758ZM15.6289 10.6758H23.2371V10.3758H15.6289V10.6758ZM13.0103 12.6758C14.3177 12.6758 15.4257 11.7828 15.7731 10.567L15.4846 10.4846C15.1722 11.578 14.1772 12.3758 13.0103 12.3758V12.6758ZM10.2475 10.567C10.5949 11.7828 11.7029 12.6758 13.0103 12.6758V12.3758C11.8435 12.3758 10.8484 11.578 10.536 10.4846L10.2475 10.567ZM13.0103 8.67577C13.5905 8.67577 14.0974 9.14793 14.0974 9.76289H14.3974C14.3974 8.97578 13.7497 8.37577 13.0103 8.37577V8.67577ZM11.9232 9.76289C11.9232 9.18594 12.4334 8.67577 13.0103 8.67577V8.37577C12.2677 8.37577 11.6232 9.02025 11.6232 9.76289H11.9232ZM13.0103 10.85C12.3954 10.85 11.9232 10.3431 11.9232 9.76289H11.6232C11.6232 10.5023 12.2232 11.15 13.0103 11.15V10.85ZM14.0974 9.76289C14.0974 10.3811 13.6285 10.85 13.0103 10.85V11.15C13.7942 11.15 14.3974 10.5468 14.3974 9.76289H14.0974Z" fill="white"/>
<path fill-rule="evenodd" clip-rule="evenodd" d="M15.6289 21.0825H23.2371C23.6701 21.0825 24 21.4124 24 21.8454C24 22.2784 23.6495 22.6083 23.2371 22.6083H15.6289C15.299 23.7629 14.2474 24.6083 13.0103 24.6083C11.7732 24.6083 10.7216 23.7629 10.3918 22.6083H8.76289C8.3299 22.6083 8 22.2784 8 21.8454C8 21.4124 8.35052 21.0825 8.76289 21.0825H10.3918C10.7216 19.9279 11.7732 19.0825 13.0103 19.0825C14.2474 19.0825 15.299 19.9279 15.6289 21.0825ZM11.7732 21.8454C11.7732 22.5464 12.3505 23.0825 13.0103 23.0825C13.6701 23.0825 14.2474 22.5464 14.2474 21.8454C14.2474 21.1444 13.7113 20.6083 13.0103 20.6083C12.3093 20.6083 11.7732 21.1444 11.7732 21.8454Z" fill="black"/>
<path d="M15.6289 21.0825L15.4846 21.1237L15.5157 21.2325H15.6289V21.0825ZM15.6289 22.6083V22.4583H15.5157L15.4846 22.5671L15.6289 22.6083ZM10.3918 22.6083L10.536 22.5671L10.5049 22.4583H10.3918V22.6083ZM10.3918 21.0825V21.2325H10.5049L10.536 21.1237L10.3918 21.0825ZM23.2371 20.9325H15.6289V21.2325H23.2371V20.9325ZM24.15 21.8454C24.15 21.3296 23.7529 20.9325 23.2371 20.9325V21.2325C23.5873 21.2325 23.85 21.4953 23.85 21.8454H24.15ZM23.2371 22.7583C23.7297 22.7583 24.15 22.3639 24.15 21.8454H23.85C23.85 22.1929 23.5693 22.4583 23.2371 22.4583V22.7583ZM15.6289 22.7583H23.2371V22.4583H15.6289V22.7583ZM13.0103 24.7583C14.3177 24.7583 15.4257 23.8653 15.7731 22.6495L15.4846 22.5671C15.1722 23.6605 14.1772 24.4583 13.0103 24.4583V24.7583ZM10.2475 22.6495C10.5949 23.8653 11.7029 24.7583 13.0103 24.7583V24.4583C11.8435 24.4583 10.8484 23.6605 10.536 22.5671L10.2475 22.6495ZM8.76289 22.7583H10.3918V22.4583H8.76289V22.7583ZM7.85 21.8454C7.85 22.3612 8.24705 22.7583 8.76289 22.7583V22.4583C8.41274 22.4583 8.15 22.1956 8.15 21.8454H7.85ZM8.76289 20.9325C8.27033 20.9325 7.85 21.3269 7.85 21.8454H8.15C8.15 21.4979 8.4307 21.2325 8.76289 21.2325V20.9325ZM10.3918 20.9325H8.76289V21.2325H10.3918V20.9325ZM13.0103 18.9325C11.7029 18.9325 10.5949 19.8255 10.2475 21.0413L10.536 21.1237C10.8484 20.0303 11.8435 19.2325 13.0103 19.2325V18.9325ZM15.7731 21.0413C15.4257 19.8255 14.3177 18.9325 13.0103 18.9325V19.2325C14.1772 19.2325 15.1722 20.0303 15.4846 21.1237L15.7731 21.0413ZM13.0103 22.9325C12.4301 22.9325 11.9232 22.4604 11.9232 21.8454H11.6232C11.6232 22.6325 12.2709 23.2325 13.0103 23.2325V22.9325ZM14.0974 21.8454C14.0974 22.4604 13.5905 22.9325 13.0103 22.9325V23.2325C13.7497 23.2325 14.3974 22.6325 14.3974 21.8454H14.0974ZM13.0103 20.7583C13.6285 20.7583 14.0974 21.2272 14.0974 21.8454H14.3974C14.3974 21.0615 13.7942 20.4583 13.0103 20.4583V20.7583ZM11.9232 21.8454C11.9232 21.2272 12.3921 20.7583 13.0103 20.7583V20.4583C12.2264 20.4583 11.6232 21.0615 11.6232 21.8454H11.9232Z" fill="white"/>
</svg>
