<svg width="27" height="12" viewBox="0 0 27 12" fill="none" xmlns="http://www.w3.org/2000/svg">
<path d="M4.45899 2.42252C5.09489 2.41218 5.70933 2.6512 6.16952 3.08791L7.4422 1.82181C6.63519 1.06774 5.56607 0.653748 4.45899 0.666612C3.63247 0.666649 2.82222 0.895221 2.11871 1.32681C1.4152 1.7584 0.846229 2.37611 0.475098 3.1108C0.162938 3.72882 0.000366211 4.41088 0.000366211 5.10253C0.000366211 5.79409 0.162896 6.47641 0.474976 7.09436C0.846107 7.82905 1.4152 8.44667 2.11871 8.87826C2.82222 9.30984 3.63247 9.53842 4.45899 9.53846C5.6623 9.53846 6.67556 9.14496 7.4144 8.46724C8.25604 7.69526 8.74096 6.55361 8.74096 5.20372C8.74133 4.90143 8.71564 4.59966 8.66416 4.30174H4.45906V6.0102H6.86755C6.81826 6.28307 6.71395 6.54318 6.56089 6.77486C6.40784 7.00654 6.20914 7.20541 5.97691 7.35867C5.57684 7.62852 5.06157 7.78255 4.45899 7.78255C3.29599 7.78255 2.30899 7.00253 1.95594 5.95153C1.76932 5.40075 1.76932 4.80377 1.95594 4.253C2.30912 3.20222 3.29614 2.42252 4.45899 2.42252Z" fill="#AEAEAE"/>
<path fill-rule="evenodd" clip-rule="evenodd" d="M12.7701 5.87765V9.0044H11.773V1.28273H14.4174C14.7331 1.27617 15.0469 1.33186 15.3408 1.44659C15.6347 1.56133 15.9029 1.73283 16.1298 1.9512C16.359 2.15632 16.5415 2.40787 16.6649 2.68895C16.7882 2.97003 16.8497 3.27413 16.8451 3.58081C16.8517 3.88912 16.7912 4.19521 16.6677 4.47808C16.5442 4.76095 16.3608 5.01392 16.1298 5.21965C15.6674 5.65832 15.0966 5.87745 14.4174 5.87704L12.7701 5.87765ZM12.7701 2.23338V4.92885H14.4422C14.6255 4.93425 14.808 4.90154 14.9778 4.83279C15.1477 4.76405 15.3013 4.66078 15.4288 4.52961C15.5556 4.40697 15.6564 4.26027 15.7252 4.0982C15.794 3.93614 15.8295 3.76198 15.8295 3.58604C15.8295 3.4101 15.794 3.23595 15.7252 3.07388C15.6564 2.91181 15.5556 2.76512 15.4288 2.64247C15.3029 2.50854 15.1498 2.40274 14.9798 2.33211C14.8097 2.26147 14.6264 2.22761 14.4422 2.23276L12.7701 2.23338Z" fill="#AEAEAE"/>
<path fill-rule="evenodd" clip-rule="evenodd" d="M19.1428 3.54881C19.8797 3.54881 20.4615 3.74473 20.888 4.13657C21.3145 4.52842 21.5275 5.06566 21.5271 5.74831V9.00444H20.5734V8.27127H20.53C20.1171 8.87506 19.568 9.17695 18.8826 9.17695C18.2976 9.17695 17.8081 9.00444 17.4143 8.65942C17.2252 8.50106 17.0741 8.30275 16.9719 8.07892C16.8697 7.85509 16.819 7.61139 16.8234 7.36559C16.8234 6.8189 17.0311 6.38413 17.4465 6.06129C17.8618 5.73845 18.4163 5.57662 19.1099 5.5758C19.702 5.5758 20.1896 5.68362 20.5727 5.89926V5.67253C20.5739 5.50496 20.5375 5.33924 20.4663 5.18739C20.395 5.03553 20.2907 4.90135 20.1609 4.79458C19.8972 4.55792 19.5536 4.42879 19.1985 4.43292C18.6415 4.43292 18.2008 4.66663 17.8763 5.13405L16.9981 4.58387C17.4812 3.89383 18.196 3.54881 19.1428 3.54881ZM17.8527 7.38716C17.8521 7.5134 17.8817 7.63797 17.9393 7.7505C17.9968 7.86303 18.0805 7.96025 18.1834 8.03407C18.404 8.20664 18.6777 8.29806 18.9582 8.29283C19.379 8.29213 19.7823 8.12553 20.0798 7.82952C20.4101 7.52024 20.5752 7.15735 20.5752 6.74086C20.2643 6.49442 19.8308 6.3712 19.2747 6.3712C18.8696 6.3712 18.5319 6.46834 18.2615 6.66261C17.9884 6.85977 17.8527 7.09943 17.8527 7.38716Z" fill="#AEAEAE"/>
<path d="M27.0018 3.72133L23.6724 11.3333H22.6431L23.8786 8.66991L21.6894 3.72133H22.7731L24.3555 7.51656H24.3772L25.9161 3.72133H27.0018Z" fill="#AEAEAE"/>
</svg>
