<?xml version="1.0" encoding="utf-8"?>
<!-- Generator: Adobe Illustrator 25.2.1, SVG Export Plug-In . SVG Version: 6.00 Build 0)  -->
<svg version="1.1" id="Ebene_1" xmlns="http://www.w3.org/2000/svg" xmlns:xlink="http://www.w3.org/1999/xlink" x="0px" y="0px"
	 viewBox="0 0 120 120" style="enable-background:new 0 0 120 120;" xml:space="preserve">
<style type="text/css">
	.st0{fill:#000;}
</style>
<path class="st0" d="M61.3,7L61.3,7c18.9,0,34.1,15.3,34,34.1c0,6.5-1.9,12.8-5.4,18.3c-1.8,2.8-4.3,6.3-7.6,10.9
	c-2.8,3.9-5.9,8.3-9.5,13.5c-4.2,6.1-8,12.4-11.5,19c-3.4-6.6-7.2-12.9-11.5-19c-3.6-5.2-6.8-9.6-9.5-13.5
	c-3.2-4.6-5.8-8.1-7.6-10.9c-10.2-15.8-5.6-36.8,10.2-47C48.4,8.9,54.8,7,61.3,7 M61.3,62.8L61.3,62.8c12.4,0.1,22.6-10,22.6-22.4
	C84,28,73.9,17.9,61.5,17.8c-12.4-0.1-22.6,10-22.6,22.4c0,0,0,0.1,0,0.1C38.9,52.7,48.9,62.8,61.3,62.8L61.3,62.8 M61.3,0L61.3,0
	c-22.7,0-41,18.4-41,41.1c0,7.8,2.3,15.5,6.5,22.1c3.4,5.3,9.4,13.2,17.2,24.6c11.5,16.6,16.4,29.8,17.2,31.9v0.3v-0.2
	c0,0,0,0.1,0,0.2v-0.3c0.8-2.1,5.7-15.3,17.2-31.9c7.9-11.4,13.8-19.3,17.2-24.6c12.2-19,6.7-44.4-12.3-56.7C76.8,2.3,69.2,0,61.3,0
	z M61.3,55.8c-8.6,0-15.6-6.9-15.6-15.4c0-8.6,6.9-15.6,15.4-15.6s15.6,6.9,15.6,15.4c0,0,0,0.1,0,0.1
	C76.8,48.9,69.9,55.8,61.3,55.8L61.3,55.8z"/>
</svg>
