<svg width="24" height="22" viewBox="0 0 24 22" fill="none" xmlns="http://www.w3.org/2000/svg">
<path fill-rule="evenodd" clip-rule="evenodd" d="M23.5 7.04703C23.5 3.36233 20.6359 0.5 16.95 0.5C14.522 0.5 13.1219 1.91971 12 3.22733C10.8781 1.91971 9.47804 0.5 7.05 0.5C3.36409 0.5 0.5 3.36233 0.5 7.04703C0.5 9.29969 1.51278 11.3063 3.19881 13.3567C4.87913 15.4 7.27721 17.5441 10.1288 20.0654L10.1361 20.0718L11.6761 21.3809C11.8629 21.5397 12.1371 21.5397 12.3239 21.3809L13.8713 20.0655C16.7229 17.5441 19.1209 15.4 20.8012 13.3567C22.4872 11.3063 23.5 9.29969 23.5 7.04703Z" fill="black"/>
</svg>
