<svg width="16" height="14" viewBox="0 0 16 14" fill="none" xmlns="http://www.w3.org/2000/svg">
<path fill-rule="evenodd" clip-rule="evenodd" d="M11.3001 0.666667C13.3895 0.666667 15.0001 2.27672 15.0001 4.36468C15.0001 5.64821 14.4286 6.8392 13.3526 8.14767C12.2733 9.4602 10.7195 10.8522 8.8084 12.542L8.00008 13.2292L7.19176 12.542C5.28062 10.8522 3.72687 9.4602 2.64754 8.14767C1.57156 6.8392 1.00008 5.64821 1.00008 4.36468C1.00008 2.27672 2.61069 0.666667 4.70008 0.666667C6.15246 0.666667 6.91913 1.57233 7.73356 2.5344L7.74567 2.54871C7.80901 2.62352 7.90206 2.66667 8.00008 2.66667C8.0981 2.66667 8.19116 2.62352 8.25449 2.54871L8.2666 2.5344C9.08103 1.57233 9.8477 0.666667 11.3001 0.666667ZM15.6667 4.36468C15.6667 1.90822 13.7574 0 11.3001 0C9.68139 0 8.74803 0.946473 8.00008 1.81822C7.25213 0.946473 6.31877 0 4.70008 0C2.24281 0 0.333414 1.90822 0.333414 4.36468C0.333414 5.86646 1.0086 7.20422 2.13262 8.5711C3.25284 9.93336 4.85155 11.3627 6.75262 13.0436L6.75747 13.0479L7.78418 13.9206C7.90866 14.0265 8.0915 14.0265 8.21598 13.9206L9.24759 13.0436C11.1487 11.3628 12.7473 9.93336 13.8675 8.5711C14.9916 7.20422 15.6667 5.86646 15.6667 4.36468Z" fill="black"/>
</svg>
