<svg width="91" height="91" viewBox="0 0 91 91" fill="none" xmlns="http://www.w3.org/2000/svg">
<path d="M45.7886 0.813965C21.0748 0.813965 0.968445 20.9203 0.968445 45.6342C0.968445 70.348 21.0748 90.4543 45.7886 90.4543C70.5025 90.4543 90.6088 70.348 90.6088 45.6342C90.6088 20.9203 70.5025 0.813965 45.7886 0.813965ZM69.0399 46.8682L36.1717 69.2783C35.9192 69.4501 35.6249 69.5383 35.3306 69.5383C35.0916 69.5383 34.851 69.4815 34.6329 69.365C34.1429 69.1065 33.8366 68.5985 33.8366 68.0443V23.2241C33.8366 22.6698 34.1429 22.1618 34.6329 21.9034C35.1229 21.6434 35.7146 21.6793 36.1732 21.99L69.0414 44.4001C69.4477 44.678 69.6927 45.1396 69.6927 45.6342C69.6927 46.1287 69.4477 46.5903 69.0399 46.8682Z" fill="white"/>
</svg>
