<svg width="12" height="16" viewBox="0 0 12 16" fill="none" xmlns="http://www.w3.org/2000/svg">
<path fill-rule="evenodd" clip-rule="evenodd" d="M8.60526 6.36842C8.92484 6.36842 9.18421 6.10905 9.18421 5.78947C9.18421 5.46989 8.92484 5.21053 8.60526 5.21053C8.28568 5.21053 8.02632 5.46989 8.02632 5.78947C8.02632 6.10905 8.28568 6.36842 8.60526 6.36842ZM1.07895 15.0526H10.9211V4.63158H1.07895V15.0526ZM3.68421 2.89474C3.68421 1.61787 4.72313 0.578947 6 0.578947C7.27687 0.578947 8.31579 1.61787 8.31579 2.89474V4.05263H3.68421V2.89474ZM8.89474 4.05263V2.89474C8.89474 1.29858 7.59616 0 6 0C4.40384 0 3.10526 1.29858 3.10526 2.89474V4.05263H0.5V15.6316H11.5V4.05263H8.89474ZM3.39474 6.36842C3.71432 6.36842 3.97368 6.10905 3.97368 5.78947C3.97368 5.46989 3.71432 5.21053 3.39474 5.21053C3.07516 5.21053 2.81579 5.46989 2.81579 5.78947C2.81579 6.10905 3.07516 6.36842 3.39474 6.36842Z" fill="black"/>
</svg>
