<svg width="17" height="16" viewBox="0 0 17 16" fill="none" xmlns="http://www.w3.org/2000/svg">
<path fill-rule="evenodd" clip-rule="evenodd" d="M12.8775 5.68319L13.7 2.66707C13.7364 2.53363 13.6678 2.39395 13.5399 2.34122L8.88116 0.422891H8.88086C8.84668 0.410104 8.81068 0.402838 8.77422 0.401367H4.93553C4.89902 0.402784 4.86298 0.41007 4.82879 0.422946L0.169823 2.34133C0.0419431 2.394 -0.0266981 2.53365 0.00972233 2.66707L0.832299 5.68319C0.852668 5.75755 0.903371 5.81991 0.972007 5.85503C1.04064 5.89015 1.12089 5.89478 1.19311 5.8678L3.01619 5.18408V11.6432C3.01619 11.7947 3.13895 11.9174 3.29038 11.9174H10.4194C10.5708 11.9174 10.6936 11.7947 10.6936 11.6432V5.18408L12.5165 5.8678C12.5887 5.89483 12.669 5.89022 12.7377 5.8551C12.8064 5.81997 12.8571 5.75758 12.8775 5.68319ZM16.9197 10.3526C16.9711 10.404 17 10.4738 17 10.5465C17 10.6192 16.9711 10.6889 16.9197 10.7403L15.8231 11.8369C15.7158 11.9438 15.5423 11.9438 15.4349 11.8369L14.3384 10.7403C14.2345 10.6327 14.236 10.4617 14.3417 10.356C14.4475 10.2502 14.6185 10.2487 14.7261 10.3526L15.3548 10.9813V1.33749L14.7261 1.96618C14.6185 2.07009 14.4475 2.06861 14.3417 1.96284C14.236 1.85708 14.2345 1.68606 14.3384 1.57847L15.4349 0.481925C15.5423 0.375055 15.7158 0.375055 15.8231 0.481925L16.9197 1.57847C17.0236 1.68606 17.0221 1.85708 16.9163 1.96284C16.8105 2.06861 16.6395 2.07009 16.5319 1.96618L15.9032 1.33749V10.9813L16.5319 10.3526C16.5833 10.3012 16.6531 10.2723 16.7258 10.2723C16.7985 10.2723 16.8683 10.3012 16.9197 10.3526ZM13.1402 13.7321C13.1265 13.6987 13.1063 13.6683 13.0808 13.6427L11.9842 12.5462C11.8766 12.4423 11.7056 12.4437 11.5998 12.5495C11.4941 12.6553 11.4926 12.8263 11.5965 12.9339L12.2252 13.5626H1.48458L2.11327 12.9339C2.21718 12.8263 2.2157 12.6553 2.10993 12.5495C2.00417 12.4437 1.83315 12.4423 1.72556 12.5462L0.628794 13.6429C0.522157 13.7502 0.522157 13.9235 0.628794 14.0308L1.72556 15.1276C1.83315 15.2315 2.00417 15.23 2.10993 15.1242C2.2157 15.0185 2.21718 14.8475 2.11327 14.7399L1.48458 14.111H12.2252L11.5965 14.7397C11.4926 14.8473 11.4941 15.0183 11.5998 15.1241C11.7056 15.2298 11.8766 15.2313 11.9842 15.1274L13.0808 14.0308C13.159 13.9523 13.1824 13.8345 13.1402 13.732V13.7321ZM5.2344 0.949752C5.36712 1.74131 6.05227 2.32114 6.85488 2.32114C7.65748 2.32114 8.34263 1.74131 8.47535 0.949752H5.2344ZM9.01277 1.0704L13.1071 2.75624L12.4276 5.24859L10.5158 4.53166C10.4316 4.50013 10.3372 4.51187 10.2633 4.56309C10.1894 4.61431 10.1452 4.69851 10.1452 4.78844V11.3691H3.56457V4.78844C3.56457 4.69852 3.52047 4.61431 3.44655 4.56309C3.37264 4.51187 3.27831 4.50014 3.19411 4.53172L1.28228 5.24865L0.602553 2.75624L4.69698 1.0704C4.88779 2.11223 5.79571 2.86897 6.85488 2.86897C7.91404 2.86897 8.82196 2.11223 9.01277 1.0704Z" fill="black"/>
</svg>
