<svg width="31" height="30" viewBox="0 0 31 30" fill="none" xmlns="http://www.w3.org/2000/svg">
<mask id="mask0_358:4502" style="mask-type:alpha" maskUnits="userSpaceOnUse" x="0" y="0" width="31" height="30">
<path fill-rule="evenodd" clip-rule="evenodd" d="M0.328125 0.000152588H30.0925V29.5087H0.328125V0.000152588Z" fill="white"/>
</mask>
<g mask="url(#mask0_358:4502)">
<path fill-rule="evenodd" clip-rule="evenodd" d="M26.7178 16.6446L22.0958 15.6168V28.5251H8.32534V15.6168L3.70288 16.6446L1.57239 11.5319C2.68878 10.9417 6.15649 9.23317 10.3953 8.37793C10.8576 10.6456 12.8416 12.2956 15.2106 12.2956C17.5791 12.2956 19.563 10.6456 20.0258 8.37793C24.2642 9.23317 27.7324 10.9417 28.8483 11.5319L26.7178 16.6446ZM25.0791 8.79448C22.8621 7.98497 21.1683 7.58219 19.1765 7.21776C19.118 7.83497 19.0998 8.5053 18.6306 9.33202C17.9529 10.5256 16.6732 11.312 15.2106 11.312C13.6821 11.312 12.3542 10.4533 11.7035 9.16973C11.3214 8.41727 11.3027 7.83792 11.2442 7.21776C10.4081 7.3712 8.50386 7.68792 5.84271 8.61596C4.00337 9.25678 2.08042 10.0884 0.328125 11.1025L3.11124 17.7827L7.34173 16.8433V29.5087H23.0794V16.8433L27.3094 17.7827L30.0926 11.1025C28.504 10.1828 26.7989 9.42202 25.0791 8.79448V8.79448ZM13.9526 1.4135C14.4104 1.0417 15.0257 0.902024 15.6394 1.03038C16.3786 1.18383 16.9781 1.78432 17.133 2.5235C17.3386 3.51104 16.8089 4.47055 15.873 4.80547C15.1826 5.05284 14.7188 5.70448 14.7188 6.42793V7.39973C13.8994 7.41547 13.0806 7.46071 12.2686 7.55416C12.2888 7.89399 12.3635 8.21907 12.4889 8.51858C14.2924 8.31891 16.1293 8.31891 17.9317 8.51858C18.0576 8.21858 18.1319 7.8935 18.1521 7.55366C17.3411 7.46022 16.5222 7.41498 15.7024 7.39973V6.42793C15.7024 6.11907 15.904 5.83875 16.2045 5.73153C17.6071 5.2294 18.4024 3.79629 18.096 2.32284C17.8629 1.20596 16.956 0.299565 15.8401 0.0674338C14.9342 -0.121419 14.0204 0.0915321 13.3319 0.650712C12.6503 1.20448 12.2598 2.0435 12.2598 2.95137H13.2434C13.2434 2.34055 13.5021 1.78038 13.9526 1.4135V1.4135Z" fill="black"/>
</g>
</svg>
