<svg width="18" height="17" viewBox="0 0 18 17" fill="none" xmlns="http://www.w3.org/2000/svg">
<path fill-rule="evenodd" clip-rule="evenodd" d="M15.7756 9.80408L15.2319 9.53707C14.242 11.5563 11.2034 14.0509 7.41463 13.5786C7.92353 12.8684 8.28106 12.0746 8.46543 11.2097C9.02004 8.60857 7.98105 5.69806 5.75382 3.61402L5.33998 4.05602C7.41312 5.99595 8.38369 8.6885 7.87328 11.0834C7.40161 13.2949 5.68631 15.0151 3.04251 15.9266L3.24019 16.4988C4.80595 15.959 6.06897 15.1477 6.97748 14.1256C7.44248 14.2044 7.8975 14.2434 8.3407 14.2434C11.9536 14.2434 14.7938 11.8064 15.7756 9.80408ZM3.76938 8.43268C4.52349 9.0648 5.52737 9.38812 6.5488 9.38812C6.82672 9.38812 7.10584 9.36239 7.38163 9.31395C7.36559 9.11293 7.33743 8.91161 7.30141 8.7106C6.17735 8.9098 4.97518 8.6555 4.1593 7.97161C3.21507 7.18056 3.01435 6.29415 2.76005 5.17221C2.50394 4.04179 2.18909 2.65223 0.978143 1.01472C2.05528 0.681711 5.26005 -0.0239682 8.15603 2.17996C9.50352 3.20563 10.2007 4.48136 10.1193 5.77314C10.0648 6.63866 9.65216 7.42487 8.99764 7.96162C9.0488 8.17959 9.09361 8.39757 9.12661 8.61675C10.0578 7.97979 10.6515 6.95291 10.7238 5.81098C10.818 4.31213 10.0369 2.85264 8.52356 1.70103C6.24637 -0.0318394 3.84324 -0.117817 2.23844 0.109842C0.989041 0.286943 0.302737 0.617229 0 0.745892C1.31085 2.38673 1.70955 3.27526 2.16971 5.30511C2.43733 6.48881 2.66923 7.51085 3.76938 8.43268ZM17.0441 5.68656L16.8288 5.35748L16.5673 5.65114C15.4901 6.85996 14.5075 7.26896 13.6401 7.62922C12.807 7.97555 12.0202 8.30311 11.4568 9.26733C10.9279 10.1728 10.9091 11.3568 11.3475 12.3601C11.5325 12.2741 11.7126 12.1818 11.8864 12.0834C11.5428 11.2618 11.5576 10.2915 11.9772 9.5734C12.4379 8.78477 13.0701 8.52169 13.8708 8.18868C14.6791 7.85294 15.6684 7.44152 16.7286 6.36257C17.1376 7.18601 17.9723 9.37813 16.748 11.7216C16.1631 12.8405 15.3124 13.5165 14.3521 13.624C13.9356 13.6712 13.5251 13.6022 13.1572 13.439C12.9599 13.5647 12.7567 13.6846 12.5454 13.7978C13.0882 14.1396 13.7427 14.3021 14.4191 14.2259C15.5843 14.0954 16.6012 13.3055 17.282 12.0029C18.9904 8.73209 17.1243 5.80947 17.0441 5.68656Z" fill="black"/>
</svg>
