<svg width="22" height="17" viewBox="0 0 22 17" fill="none" xmlns="http://www.w3.org/2000/svg">
<path fill-rule="evenodd" clip-rule="evenodd" d="M18.2114 16.1129H7.62335C5.7679 16.1129 4.25806 14.607 4.25806 12.7561C4.25806 11.407 5.01174 10.1168 6.76003 9.50403C6.71568 8.53887 6.94455 7.77029 7.80574 7.24548C8.76523 6.66071 9.58419 6.93713 10.3787 7.39381C11.4162 5.53906 12.8707 4.76658 14.4913 4.76658C15.7697 4.76658 16.9929 5.31268 17.848 6.26471C18.8682 7.40126 19.0964 8.63113 18.9431 10.0487C20.5576 10.603 21.2903 11.7487 21.2903 13.0421C21.2903 14.7354 19.9089 16.1129 18.2114 16.1129ZM19.701 9.56968C19.7776 8.18652 19.3022 6.82252 18.3764 5.79065C17.3871 4.68887 15.9713 4.0569 14.4913 4.0569C12.7174 4.0569 11.0681 4.96316 10.1097 6.44319C9.24107 6.06813 8.26455 6.13484 7.43635 6.63942C6.5851 7.15855 6.07484 8.03287 6.03723 9.014C4.53839 9.64739 3.54839 11.1203 3.54839 12.7561C3.54839 14.9984 5.37652 16.8226 7.62335 16.8226H18.2114C20.3003 16.8226 22 15.1268 22 13.0421C22 11.5241 21.087 10.1619 19.701 9.56968ZM2.60842 10.0327C1.52652 9.81274 0.709677 8.85645 0.709677 7.71423C0.709677 6.70968 1.26181 5.83926 2.58181 5.38613C2.46081 4.26981 2.59387 3.305 3.42739 2.37674C4.09306 1.63513 5.04581 1.20968 6.04184 1.20968C7.37532 1.20968 8.46042 1.85229 9.28365 3.32558C9.63848 3.12119 10.389 2.60313 11.3183 3.16945C11.6174 3.35184 11.8403 3.61194 11.9762 3.9139C12.1912 3.81242 12.4133 3.72619 12.6401 3.65097C12.4485 3.20848 12.1231 2.82881 11.6877 2.56374C11.027 2.161 10.2502 2.09819 9.55297 2.37958C8.77268 1.21252 7.45658 0.5 6.04184 0.5C4.84461 0.5 3.69955 1.01097 2.89939 1.90268C2.16132 2.72484 1.77739 3.8071 1.82494 4.90852C0.723161 5.40103 0 6.49571 0 7.71423C0 9.26842 1.18019 10.7903 3.26735 10.7903C3.37984 10.5426 3.51326 10.3053 3.66584 10.0806C3.18077 10.0806 2.937 10.0998 2.60842 10.0327Z" fill="black"/>
</svg>
