<svg width="14" height="19" viewBox="0 0 14 19" fill="none" xmlns="http://www.w3.org/2000/svg">
<path fill-rule="evenodd" clip-rule="evenodd" d="M7 17.3551C3.52625 17.3551 0.7 14.5289 0.7 11.0551C0.7 8.15186 2.6775 5.94055 5.4145 2.8805C5.92585 2.30895 6.4519 1.72095 7 1.0899C7.5481 1.72095 8.07415 2.30895 8.5855 2.8805C11.3225 5.94055 13.3 8.15186 13.3 11.0551C13.3 14.5289 10.4738 17.3551 7 17.3551ZM9.10735 2.41395C7.88375 1.0458 7.616 0.734655 7 0.0185547C6.3826 0.736055 6.1159 1.0465 4.89265 2.41395C2.0524 5.58985 0 7.8841 0 11.0551C0 14.9149 3.1402 18.0551 7 18.0551C10.8598 18.0551 14 14.9149 14 11.0551C14 7.8841 11.9476 5.58985 9.10735 2.41395ZM2.8 11.0551H2.1C2.1 13.7571 4.298 15.9551 7 15.9551V15.2551C4.68405 15.2551 2.8 13.3711 2.8 11.0551Z" fill="black"/>
</svg>
