<svg width="22" height="22" viewBox="0 0 22 22" fill="none" xmlns="http://www.w3.org/2000/svg">
<path fill-rule="evenodd" clip-rule="evenodd" d="M11.7767 6.01063C10.7364 5.85637 9.67393 6.03406 8.74043 6.51843C7.80693 7.00281 7.04993 7.7692 6.5771 8.7086C6.10428 9.648 5.9397 10.7126 6.10678 11.7509C6.27386 12.7892 6.76409 13.7484 7.50775 14.4921C8.2514 15.2357 9.2106 15.726 10.2489 15.893C11.2873 16.0601 12.3518 15.8955 13.2912 15.4227C14.2306 14.9499 14.997 14.1929 15.4814 13.2594C15.9658 12.3259 16.1435 11.2634 15.9892 10.2231C15.8318 9.16198 15.3374 8.17957 14.5788 7.42101C13.8203 6.66246 12.8379 6.16799 11.7767 6.01063ZM9.66157 8.29368C10.2217 8.00305 10.8591 7.89644 11.4833 7.989C12.12 8.08341 12.7095 8.3801 13.1646 8.83523C13.6197 9.29036 13.9164 9.8798 14.0108 10.5165C14.1034 11.1407 13.9968 11.7782 13.7061 12.3383C13.4155 12.8984 12.9557 13.3526 12.392 13.6363C11.8284 13.9199 11.1897 14.0187 10.5667 13.9184C9.94367 13.8182 9.36815 13.5241 8.92196 13.0779C8.47577 12.6317 8.18163 12.0562 8.08138 11.4332C7.98113 10.8102 8.07988 10.1714 8.36357 9.60778C8.64727 9.04414 9.10147 8.5843 9.66157 8.29368Z" fill="black"/>
<path fill-rule="evenodd" clip-rule="evenodd" d="M6 0C2.68629 0 0 2.68629 0 6V16C0 19.3137 2.68629 22 6 22H16C19.3137 22 22 19.3137 22 16V6C22 2.68629 19.3137 0 16 0H6ZM2 6C2 3.79086 3.79086 2 6 2H16C18.2091 2 20 3.79086 20 6V16C20 18.2091 18.2091 20 16 20H6C3.79086 20 2 18.2091 2 16V6Z" fill="black"/>
<path d="M18 5.5C18 6.32843 17.3284 7 16.5 7C15.6716 7 15 6.32843 15 5.5C15 4.67157 15.6716 4 16.5 4C17.3284 4 18 4.67157 18 5.5Z" fill="black"/>
</svg>
