<svg width="24" height="24" viewBox="0 0 24 24" fill="none" xmlns="http://www.w3.org/2000/svg">
<path fill-rule="evenodd" clip-rule="evenodd" d="M0 2C0 1.44772 0.447715 1 1 1H5C8.31371 1 11 3.68629 11 7V11.5H13V7C13 3.68629 15.6863 1 19 1H23C23.5523 1 24 1.44772 24 2V7.5C24 10.8137 21.3137 13.5 18 13.5H15V23C15 23.5523 14.5523 24 14 24C13.4477 24 13 23.5523 13 23V13.5H11V23C11 23.5523 10.5523 24 10 24C9.44771 24 9 23.5523 9 23V13.5H6C2.68629 13.5 0 10.8137 0 7.5V2ZM9 11.5V7C9 4.79086 7.20914 3 5 3H2V7.5C2 9.70914 3.79086 11.5 6 11.5H9ZM15 11.5H18C20.2091 11.5 22 9.70914 22 7.5V3H19C16.7909 3 15 4.79086 15 7V11.5Z" fill="#B1B499"/>
</svg>
