<svg width="24" height="24" viewBox="0 0 24 24" fill="none" xmlns="http://www.w3.org/2000/svg">
<path d="M5 7C5.55228 7 6 6.55228 6 6C6 5.44772 5.55228 5 5 5C4.44772 5 4 5.44772 4 6C4 6.55228 4.44772 7 5 7Z" fill="black"/>
<path d="M8 5.5C7.72386 5.5 7.5 5.72386 7.5 6C7.5 6.27614 7.72386 6.5 8 6.5H20C20.2761 6.5 20.5 6.27614 20.5 6C20.5 5.72386 20.2761 5.5 20 5.5H8Z" fill="black"/>
<path d="M8 11.5C7.72386 11.5 7.5 11.7239 7.5 12C7.5 12.2761 7.72386 12.5 8 12.5H20C20.2761 12.5 20.5 12.2761 20.5 12C20.5 11.7239 20.2761 11.5 20 11.5H8Z" fill="black"/>
<path d="M7.5 18C7.5 17.7239 7.72386 17.5 8 17.5H20C20.2761 17.5 20.5 17.7239 20.5 18C20.5 18.2761 20.2761 18.5 20 18.5H8C7.72386 18.5 7.5 18.2761 7.5 18Z" fill="black"/>
<path d="M6 12C6 12.5523 5.55228 13 5 13C4.44772 13 4 12.5523 4 12C4 11.4477 4.44772 11 5 11C5.55228 11 6 11.4477 6 12Z" fill="black"/>
<path d="M5 19C5.55228 19 6 18.5523 6 18C6 17.4477 5.55228 17 5 17C4.44772 17 4 17.4477 4 18C4 18.5523 4.44772 19 5 19Z" fill="black"/>
</svg>
