<svg width="20" height="24" viewBox="0 0 20 24" fill="none" xmlns="http://www.w3.org/2000/svg">
<path fill-rule="evenodd" clip-rule="evenodd" d="M10 5.5C7.51472 5.5 5.5 7.51472 5.5 10C5.5 12.4853 7.51472 14.5 10 14.5C12.4853 14.5 14.5 12.4853 14.5 10C14.5 7.51472 12.4853 5.5 10 5.5ZM6.5 10C6.5 8.067 8.067 6.5 10 6.5C11.933 6.5 13.5 8.067 13.5 10C13.5 11.933 11.933 13.5 10 13.5C8.067 13.5 6.5 11.933 6.5 10Z" fill="black"/>
<path fill-rule="evenodd" clip-rule="evenodd" d="M9.77593 23.947C9.77618 23.9471 9.77639 23.9472 10 23.5L9.77593 23.947C9.91669 24.0174 10.0828 24.0176 10.2236 23.9472L10 23.5C10.2236 23.9472 10.2234 23.9473 10.2236 23.9472L10.2247 23.9466L10.2267 23.9457L10.233 23.9424L10.2553 23.931C10.2744 23.9212 10.3017 23.9069 10.3367 23.8882C10.4069 23.8507 10.5079 23.7954 10.6356 23.7222C10.8907 23.5757 11.2524 23.3574 11.6852 23.0666C12.5498 22.4854 13.7026 21.6114 14.8564 20.4385C17.1628 18.094 19.5 14.5258 19.5 9.7027C19.5 4.60449 15.2307 0.5 10 0.5C4.76926 0.5 0.5 4.60449 0.5 9.7027C0.5 14.5258 2.83717 18.094 5.14356 20.4385C6.29745 21.6114 7.45017 22.4854 8.31482 23.0666C8.74755 23.3574 9.10926 23.5757 9.36444 23.7222C9.49207 23.7954 9.59314 23.8507 9.66325 23.8882C9.69831 23.9069 9.72564 23.9212 9.74467 23.931L9.76695 23.9424L9.7733 23.9457L9.77593 23.947ZM1.5 9.7027C1.5 5.18817 5.28962 1.5 10 1.5C14.7104 1.5 18.5 5.18817 18.5 9.7027C18.5 14.1769 16.3372 17.5074 14.1436 19.7372C13.0474 20.8514 11.9502 21.6835 11.1273 22.2366C10.7163 22.5129 10.3749 22.7188 10.1379 22.8548C10.087 22.884 10.0409 22.91 10 22.9327C9.95911 22.91 9.91303 22.884 9.86212 22.8548C9.62512 22.7188 9.2837 22.5129 8.87268 22.2366C8.04983 21.6835 6.95255 20.8514 5.85644 19.7372C3.66283 17.5074 1.5 14.1769 1.5 9.7027Z" fill="black"/>
</svg>
