<svg width="110" height="39" viewBox="0 0 110 39" fill="none" xmlns="http://www.w3.org/2000/svg">
<path fill-rule="evenodd" clip-rule="evenodd" d="M0 36.7319H10.1791V22.2768C10.1791 19.4978 11.0538 17.4923 13.6249 17.4923C16.7084 17.4923 16.9637 19.7549 16.9637 22.2768V36.7319H27.1434V22.2768C27.1434 19.4978 28.0153 17.4923 30.5858 17.4923C33.6722 17.4923 33.9286 19.7549 33.9286 22.2768V36.7319H44.1088V18.4192C44.1088 14.0962 41.793 9.3645 34.9557 9.3645C28.3267 9.3645 26.2692 13.2226 25.8558 13.53C24.6249 10.8559 21.5392 9.3645 18.6595 9.3645C14.9583 9.3645 11.9784 10.4952 9.922 13.5821H9.81953V10.0314H0V36.7319Z" fill="#06467B"/>
<mask id="mask0_302:2040" style="mask-type:alpha" maskUnits="userSpaceOnUse" x="44" y="9" width="30" height="29">
<path fill-rule="evenodd" clip-rule="evenodd" d="M44.604 9.36377H73.4414V37.4026H44.604V9.36377Z" fill="white"/>
</mask>
<g mask="url(#mask0_302:2040)">
<path fill-rule="evenodd" clip-rule="evenodd" d="M72.2082 19.8086C72.2082 14.6606 72.3113 9.36377 59.5605 9.36377C53.2396 9.36377 46.1446 10.5981 45.8366 18.1093H55.296C55.3464 16.9763 55.9606 15.3819 59.098 15.3819C60.7451 15.3819 62.4367 16.0529 62.4367 17.8517C62.4367 19.5498 61.0531 19.962 59.6636 20.2179C54.4727 21.1975 44.604 20.8866 44.604 29.3253C44.604 34.9336 48.8697 37.4028 54.0096 37.4028C57.2968 37.4028 60.4342 36.6826 62.5954 34.211H62.6961C62.644 34.9336 62.7992 36.0116 63.0568 36.7318H73.4414C72.3113 35.0355 72.2082 32.7723 72.2082 30.7646V19.8086ZM62.4367 27.2162C62.2856 29.994 60.4863 31.3817 58.1722 31.3817C56.3225 31.3817 54.9874 30.1486 54.9874 28.9142C54.9874 27.1131 56.1691 26.5487 58.4298 26.0322C59.8211 25.7254 61.2059 25.3647 62.4367 24.7476V27.2162Z" fill="#06467B"/>
</g>
<path fill-rule="evenodd" clip-rule="evenodd" d="M100.554 10.0315H90.1734L85.9557 26.2901H85.8533L81.6872 10.0315H70.9442L79.6857 36.732H91.7111L100.554 10.0315Z" fill="#06467B"/>
<mask id="mask1_302:2040" style="mask-type:alpha" maskUnits="userSpaceOnUse" x="0" y="0" width="110" height="38">
<path fill-rule="evenodd" clip-rule="evenodd" d="M0 37.4026H109.83V0.000244141H0V37.4026Z" fill="white"/>
</mask>
<g mask="url(#mask1_302:2040)">
<path fill-rule="evenodd" clip-rule="evenodd" d="M99.6519 7.15091H109.83V-0.000244141H99.6519V7.15091ZM99.6524 36.7322H109.83V10.0318H99.6524V36.7322Z" fill="#06467B"/>
</g>
</svg>
