<svg width="14" height="18" viewBox="0 0 14 18" fill="none" xmlns="http://www.w3.org/2000/svg">
<path fill-rule="evenodd" clip-rule="evenodd" d="M7 10.0331C8.6593 10.0346 10.1444 10.699 11.2301 11.8623C12.223 12.9281 12.8739 14.4213 12.9781 16.2259H1.02158C1.12611 14.4213 1.77701 12.9281 2.7699 11.8623C3.85561 10.699 5.34069 10.0346 7 10.0331ZM3.17484 4.82566C3.17514 3.76777 3.60204 2.8147 4.29539 2.12105C4.98904 1.42799 5.94211 1.00079 7 1.0005C8.05789 1.00079 9.01067 1.42799 9.70461 2.12105C10.3977 2.8147 10.8249 3.76777 10.8249 4.82566C10.8249 5.88355 10.3977 6.83662 9.70461 7.53026C9.01067 8.22332 8.05789 8.65052 7 8.65052C5.94211 8.65052 4.98904 8.22332 4.29539 7.53026C3.60204 6.83662 3.17514 5.88355 3.17484 4.82566ZM7.50395e-07 16.726C7.50395e-07 16.8577 0.0532906 16.9866 0.146694 17.08C0.239805 17.1728 0.368638 17.2264 0.500105 17.2264H13.4996C13.6314 17.2264 13.7602 17.1728 13.8533 17.08C13.9464 16.9866 14 16.8577 14 16.726C14.0009 14.4688 13.2305 12.5404 11.9618 11.18C11.1115 10.2662 10.034 9.61881 8.83528 9.28765C10.5895 8.56502 11.8251 6.84072 11.8254 4.82566C11.8251 2.16029 9.66478 0.000585602 7 0C4.33492 0.000585602 2.17493 2.16029 2.17464 4.82566C2.17464 6.84072 3.41055 8.56502 5.16443 9.28765C3.96599 9.61881 2.88819 10.2662 2.03819 11.18C0.769482 12.5404 -0.000877653 14.4688 7.50395e-07 16.726Z" fill="#1B1A19"/>
</svg>
