<svg width="16" height="19" viewBox="0 0 16 19" fill="none" xmlns="http://www.w3.org/2000/svg">
<path fill-rule="evenodd" clip-rule="evenodd" d="M14.8718 16.9714C14.8718 17.303 14.7968 17.574 14.6488 17.7763C14.4838 18.0023 14.2412 18.1217 13.9473 18.1217H2.05271C1.75884 18.1217 1.51603 18.0023 1.35097 17.7763C1.2032 17.574 1.12817 17.303 1.12817 16.9714V16.9427C1.12817 16.9333 1.12879 16.9239 1.13005 16.915L2.61356 6.87174C2.61418 6.86695 2.61481 6.86215 2.61523 6.85715L2.6194 6.81568C2.61981 6.81109 2.62023 6.80671 2.62044 6.80213C2.65691 6.1577 3.12689 5.65292 3.69024 5.65292H5.11227V7.74772C5.11227 7.92133 5.25296 8.0618 5.42657 8.0618C5.59997 8.0618 5.74065 7.92133 5.74065 7.74772V5.65292H10.2593V7.74772C10.2593 7.92133 10.4 8.0618 10.5734 8.0618C10.7468 8.0618 10.8875 7.92133 10.8875 7.74772V5.65292H12.3098C12.8731 5.65292 13.3431 6.1577 13.3794 6.80234C13.3796 6.80651 13.38 6.81088 13.3804 6.81505L13.3846 6.85653C13.385 6.86153 13.3856 6.86674 13.3864 6.87174L14.8656 16.8868L14.8697 16.915C14.8712 16.9241 14.8718 16.9333 14.8718 16.9427V16.9714ZM7.9999 1.62817C9.24581 1.62817 10.2593 2.64191 10.2593 3.88762V5.02475H5.74065V3.88762C5.74065 2.64191 6.75419 1.62817 7.9999 1.62817ZM15.4912 16.823L14.009 6.78754L14.0063 6.75982C13.9479 5.7863 13.2041 5.02475 12.3098 5.02475H10.8875V3.88762C10.8875 2.29531 9.5922 1 7.9999 1C6.4078 1 5.11227 2.29531 5.11227 3.88762V5.02475H3.69024C2.79592 5.02475 2.05208 5.7863 1.99373 6.75982L1.99102 6.78754L0.508754 16.8232C0.502918 16.8626 0.5 16.9029 0.5 16.9427V16.9714C0.5 17.4391 0.615672 17.8347 0.84368 18.1469C1.12775 18.5358 1.55709 18.7499 2.05271 18.7499H13.9473C14.4427 18.7499 14.872 18.5358 15.1561 18.1469C15.3843 17.8349 15.5 17.4393 15.5 16.9714V16.9427C15.5 16.9027 15.4971 16.8624 15.4912 16.823Z" fill="#1A1919"/>
<path d="M14.6488 17.7763L14.5277 17.6878L14.5277 17.6878L14.6488 17.7763ZM1.35097 17.7763L1.22982 17.8648L1.22985 17.8648L1.35097 17.7763ZM1.13005 16.915L0.981651 16.893L0.981485 16.8942L1.13005 16.915ZM2.61356 6.87174L2.76197 6.89366L2.7623 6.89114L2.61356 6.87174ZM2.61523 6.85715L2.46596 6.84215L2.46575 6.84469L2.61523 6.85715ZM2.6194 6.81568L2.76865 6.83068L2.76878 6.82926L2.6194 6.81568ZM2.62044 6.80213L2.47067 6.79365L2.47059 6.79532L2.62044 6.80213ZM5.11227 5.65292H5.26227V5.50292H5.11227V5.65292ZM5.74065 5.65292V5.50292H5.59065V5.65292H5.74065ZM10.2593 5.65292H10.4093V5.50292H10.2593V5.65292ZM10.8875 5.65292V5.50292H10.7375V5.65292H10.8875ZM13.3794 6.80234L13.5292 6.79485L13.5291 6.79391L13.3794 6.80234ZM13.3804 6.81505L13.2311 6.82998L13.2311 6.83005L13.3804 6.81505ZM13.3846 6.85653L13.5341 6.84407L13.5338 6.84153L13.3846 6.85653ZM13.3864 6.87174L13.5349 6.84982L13.5344 6.84708L13.3864 6.87174ZM14.8656 16.8868L14.7172 16.9087L14.7172 16.9088L14.8656 16.8868ZM14.8697 16.915L14.7214 16.9369L14.7216 16.9385L14.8697 16.915ZM10.2593 5.02475V5.17475H10.4093V5.02475H10.2593ZM5.74065 5.02475H5.59065V5.17475H5.74065V5.02475ZM14.009 6.78754L13.8595 6.80215L13.8606 6.80946L14.009 6.78754ZM14.0063 6.75982L13.8564 6.7688L13.857 6.77441L14.0063 6.75982ZM10.8875 5.02475H10.7375V5.17475H10.8875V5.02475ZM5.11227 5.02475V5.17475H5.26227V5.02475H5.11227ZM1.99373 6.75982L2.14312 6.77442L2.14346 6.7688L1.99373 6.75982ZM1.99102 6.78754L2.13959 6.80948L2.14031 6.80213L1.99102 6.78754ZM0.508754 16.8232L0.657134 16.8452L0.657144 16.8452L0.508754 16.8232ZM0.84368 18.1469L0.722545 18.2354L0.722552 18.2354L0.84368 18.1469ZM15.1561 18.1469L15.035 18.0583L15.035 18.0584L15.1561 18.1469ZM14.7218 16.9714C14.7218 17.2814 14.6517 17.5183 14.5277 17.6878L14.7699 17.8649C14.9419 17.6296 15.0218 17.3246 15.0218 16.9714H14.7218ZM14.5277 17.6878C14.3925 17.8729 14.1961 17.9717 13.9473 17.9717V18.2717C14.2862 18.2717 14.575 18.1316 14.7699 17.8648L14.5277 17.6878ZM13.9473 17.9717H2.05271V18.2717H13.9473V17.9717ZM2.05271 17.9717C1.80385 17.9717 1.60726 17.8729 1.47208 17.6878L1.22985 17.8648C1.42481 18.1317 1.71383 18.2717 2.05271 18.2717V17.9717ZM1.47211 17.6879C1.34832 17.5183 1.27817 17.2814 1.27817 16.9714H0.97817C0.97817 17.3246 1.05808 17.6296 1.22982 17.8648L1.47211 17.6879ZM1.27817 16.9714V16.9427H0.97817V16.9714H1.27817ZM1.27817 16.9427C1.27817 16.9398 1.27837 16.9374 1.27861 16.9357L0.981485 16.8942C0.979221 16.9104 0.97817 16.9268 0.97817 16.9427H1.27817ZM1.27844 16.9369L2.76195 6.89366L2.46517 6.84982L0.981656 16.893L1.27844 16.9369ZM2.7623 6.89114C2.76286 6.88683 2.76396 6.87864 2.76471 6.86961L2.46575 6.84469C2.46566 6.84567 2.46551 6.84706 2.46482 6.85234L2.7623 6.89114ZM2.76448 6.87215L2.76864 6.83068L2.47015 6.80068L2.46598 6.84215L2.76448 6.87215ZM2.76878 6.82926C2.76909 6.82581 2.76989 6.81765 2.77028 6.80894L2.47059 6.79532C2.47059 6.79526 2.47058 6.79561 2.47049 6.79673C2.47038 6.79807 2.47026 6.79935 2.47001 6.8021L2.76878 6.82926ZM2.7702 6.81061C2.8032 6.22743 3.22345 5.80292 3.69024 5.80292V5.50292C3.03033 5.50292 2.51062 6.08797 2.47068 6.79365L2.7702 6.81061ZM3.69024 5.80292H5.11227V5.50292H3.69024V5.80292ZM4.96227 5.65292V7.74772H5.26227V5.65292H4.96227ZM4.96227 7.74772C4.96227 8.0043 5.17024 8.2118 5.42657 8.2118V7.9118C5.33567 7.9118 5.26227 7.83836 5.26227 7.74772H4.96227ZM5.42657 8.2118C5.68275 8.2118 5.89065 8.00424 5.89065 7.74772H5.59065C5.59065 7.83842 5.51719 7.9118 5.42657 7.9118V8.2118ZM5.89065 7.74772V5.65292H5.59065V7.74772H5.89065ZM5.74065 5.80292H10.2593V5.50292H5.74065V5.80292ZM10.1093 5.65292V7.74772H10.4093V5.65292H10.1093ZM10.1093 7.74772C10.1093 8.00424 10.3173 8.2118 10.5734 8.2118V7.9118C10.4828 7.9118 10.4093 7.83842 10.4093 7.74772H10.1093ZM10.5734 8.2118C10.8296 8.2118 11.0375 8.00424 11.0375 7.74772H10.7375C10.7375 7.83842 10.6641 7.9118 10.5734 7.9118V8.2118ZM11.0375 7.74772V5.65292H10.7375V7.74772H11.0375ZM10.8875 5.80292H12.3098V5.50292H10.8875V5.80292ZM12.3098 5.80292C12.7765 5.80292 13.1968 6.22741 13.2296 6.81076L13.5291 6.79391C13.4894 6.088 12.9697 5.50292 12.3098 5.50292V5.80292ZM13.2295 6.80983C13.23 6.81812 13.2307 6.82583 13.2311 6.82998L13.5297 6.80013C13.5295 6.7982 13.5293 6.79695 13.5293 6.79593C13.5292 6.79493 13.5292 6.79464 13.5292 6.79485L13.2295 6.80983ZM13.2311 6.83005L13.2353 6.87153L13.5338 6.84153L13.5296 6.80005L13.2311 6.83005ZM13.2351 6.86898C13.2358 6.87758 13.2369 6.8869 13.2385 6.8964L13.5344 6.84708C13.5343 6.84658 13.5342 6.84547 13.534 6.84407L13.2351 6.86898ZM13.238 6.89366L14.7172 16.9087L15.014 16.8649L13.5348 6.84982L13.238 6.89366ZM14.7172 16.9088L14.7214 16.9369L15.0181 16.893L15.014 16.8648L14.7172 16.9088ZM14.7216 16.9385C14.7217 16.9388 14.7218 16.94 14.7218 16.9427H15.0218C15.0218 16.9266 15.0208 16.9094 15.0179 16.8914L14.7216 16.9385ZM14.7218 16.9427V16.9714H15.0218V16.9427H14.7218ZM7.9999 1.77817C9.16296 1.77817 10.1093 2.72474 10.1093 3.88762H10.4093C10.4093 2.55908 9.32867 1.47817 7.9999 1.47817V1.77817ZM10.1093 3.88762V5.02475H10.4093V3.88762H10.1093ZM10.2593 4.87475H5.74065V5.17475H10.2593V4.87475ZM5.89065 5.02475V3.88762H5.59065V5.02475H5.89065ZM5.89065 3.88762C5.89065 2.72474 6.83705 1.77817 7.9999 1.77817V1.47817C6.67132 1.47817 5.59065 2.55909 5.59065 3.88762H5.89065ZM15.6396 16.8011L14.1574 6.76562L13.8606 6.80946L15.3429 16.845L15.6396 16.8011ZM14.1583 6.77295L14.1556 6.74523L13.857 6.77441L13.8597 6.80213L14.1583 6.77295ZM14.156 6.75084C14.0936 5.70969 13.2945 4.87475 12.3098 4.87475V5.17475C13.1136 5.17475 13.8022 5.86291 13.8565 6.7688L14.156 6.75084ZM12.3098 4.87475H10.8875V5.17475H12.3098V4.87475ZM11.0375 5.02475V3.88762H10.7375V5.02475H11.0375ZM11.0375 3.88762C11.0375 2.21247 9.67505 0.85 7.9999 0.85V1.15C9.50936 1.15 10.7375 2.37816 10.7375 3.88762H11.0375ZM7.9999 0.85C6.32496 0.85 4.96227 2.21246 4.96227 3.88762H5.26227C5.26227 2.37816 6.49063 1.15 7.9999 1.15V0.85ZM4.96227 3.88762V5.02475H5.26227V3.88762H4.96227ZM5.11227 4.87475H3.69024V5.17475H5.11227V4.87475ZM3.69024 4.87475C2.70546 4.87475 1.90641 5.70969 1.844 6.75084L2.14346 6.7688C2.19776 5.86291 2.88639 5.17475 3.69024 5.17475V4.87475ZM1.84444 6.74523L1.84173 6.77295L2.14031 6.80213L2.14302 6.77441L1.84444 6.74523ZM1.84263 6.76562L0.360363 16.8013L0.657144 16.8452L2.13941 6.80946L1.84263 6.76562ZM0.360373 16.8013C0.353443 16.848 0.35 16.8956 0.35 16.9427H0.65C0.65 16.9101 0.652393 16.8772 0.657134 16.8452L0.360373 16.8013ZM0.35 16.9427V16.9714H0.65V16.9427H0.35ZM0.35 16.9714C0.35 17.4641 0.472124 17.8925 0.722545 18.2354L0.964815 18.0584C0.759219 17.7769 0.65 17.4141 0.65 16.9714H0.35ZM0.722552 18.2354C1.03584 18.6643 1.51088 18.8999 2.05271 18.8999V18.5999C1.6033 18.5999 1.21967 18.4073 0.964808 18.0584L0.722552 18.2354ZM2.05271 18.8999H13.9473V18.5999H2.05271V18.8999ZM13.9473 18.8999C14.4889 18.8999 14.964 18.6643 15.2772 18.2354L15.035 18.0584C14.7801 18.4074 14.3965 18.5999 13.9473 18.5999V18.8999ZM15.2772 18.2355C15.5279 17.8927 15.65 17.4643 15.65 16.9714H15.35C15.35 17.4144 15.2408 17.7771 15.035 18.0583L15.2772 18.2355ZM15.65 16.9714V16.9427H15.35V16.9714H15.65ZM15.65 16.9427C15.65 16.8954 15.6466 16.8479 15.6396 16.8011L15.3429 16.845C15.3476 16.877 15.35 16.9099 15.35 16.9427H15.65Z" fill="black"/>
</svg>
