<svg width="18" height="16" viewBox="0 0 18 16" fill="none" xmlns="http://www.w3.org/2000/svg">
<g id="Guide" stroke="none" stroke-width="1" fill="none" fill-rule="evenodd">
    <g id="Ui_Guide" transform="translate(-687.000000, -1523.000000)" fill="#1B1A19">
        <path d="M699.975707,1523 C701.317885,1523 702.579424,1523.52245 703.52863,1524.47137 C704.477269,1525.42001 705,1526.68183 705,1528.02401 C705,1529.3659 704.477269,1530.62801 703.52863,1531.57693 L703.52863,1531.57693 L696.685996,1538.41957 C696.503991,1538.60157 696.257532,1538.70351 696,1538.70351 C695.742752,1538.70351 695.496009,1538.60157 695.314288,1538.41957 L695.314288,1538.41957 L688.471653,1531.57693 C687.522447,1530.62801 687,1529.36619 687,1528.02401 C687,1526.68212 687.522447,1525.42058 688.471653,1524.47137 C689.420576,1523.52245 690.682399,1523 692.024293,1523 C693.366186,1523 694.628009,1523.52245 695.576932,1524.47137 L695.576932,1524.47137 L696,1524.89444 L696.423068,1524.47137 C697.371991,1523.52245 698.633814,1523 699.975707,1523 Z" id="Combined-Shape"></path>
    </g>
</g>
</svg>
