<svg width="18" height="18" viewBox="0 0 18 18" fill="none" xmlns="http://www.w3.org/2000/svg">
<path fill-rule="evenodd" clip-rule="evenodd" d="M2.34141 7.91715C2.34141 4.84234 4.84308 2.34141 7.91784 2.34141C10.9918 2.34141 13.4936 4.84234 13.4936 7.91715C13.4936 10.9919 10.9918 13.4928 7.91784 13.4928C4.84308 13.4928 2.34141 10.9919 2.34141 7.91715ZM16.7695 16.1786L13.0099 12.5941C14.1426 11.3622 14.8349 9.71908 14.8349 7.91715C14.8349 4.10311 11.7319 1 7.91784 1C4.10311 1 1 4.10311 1 7.91715C1 11.7311 4.10311 14.8342 7.91784 14.8342C9.39262 14.8342 10.7609 14.3699 11.8846 13.58L15.7411 17.2577C15.8849 17.3955 16.0697 17.4634 16.2546 17.4634C16.4513 17.4634 16.6481 17.3859 16.7941 17.2323C17.078 16.9343 17.0669 16.4625 16.7695 16.1786Z" fill="black"/>
<path d="M13.0099 12.5941L12.8627 12.4587L12.7298 12.6033L12.8719 12.7388L13.0099 12.5941ZM11.8846 13.58L12.0227 13.4353L11.9039 13.322L11.7696 13.4164L11.8846 13.58ZM15.7411 17.2577L15.8795 17.1133L15.8791 17.1129L15.7411 17.2577ZM16.7941 17.2323L16.6493 17.0944L16.6492 17.0945L16.7941 17.2323ZM2.54141 7.91715C2.54141 4.95284 4.95351 2.54141 7.91784 2.54141V2.14141C4.73266 2.14141 2.14141 4.73185 2.14141 7.91715H2.54141ZM7.91784 2.54141C10.8814 2.54141 13.2936 4.95282 13.2936 7.91715H13.6936C13.6936 4.73187 11.1023 2.14141 7.91784 2.14141V2.54141ZM13.2936 7.91715C13.2936 10.8814 10.8814 13.2928 7.91784 13.2928V13.6928C11.1023 13.6928 13.6936 11.1024 13.6936 7.91715H13.2936ZM7.91784 13.2928C4.95351 13.2928 2.54141 10.8814 2.54141 7.91715H2.14141C2.14141 11.1024 4.73266 13.6928 7.91784 13.6928V13.2928ZM16.9076 16.0339L13.1479 12.4493L12.8719 12.7388L16.6315 16.3234L16.9076 16.0339ZM13.1572 12.7295C14.3224 11.4622 15.0349 9.77129 15.0349 7.91715H14.6349C14.6349 9.66686 13.9629 11.2622 12.8627 12.4587L13.1572 12.7295ZM15.0349 7.91715C15.0349 3.99265 11.8423 0.8 7.91784 0.8V1.2C11.6214 1.2 14.6349 4.21356 14.6349 7.91715H15.0349ZM7.91784 0.8C3.99266 0.8 0.8 3.99264 0.8 7.91715H1.2C1.2 4.21358 4.21355 1.2 7.91784 1.2V0.8ZM0.8 7.91715C0.8 11.8416 3.99266 15.0342 7.91784 15.0342V14.6342C4.21355 14.6342 1.2 11.6207 1.2 7.91715H0.8ZM7.91784 15.0342C9.43525 15.0342 10.8434 14.5564 11.9996 13.7436L11.7696 13.4164C10.6783 14.1835 9.34999 14.6342 7.91784 14.6342V15.0342ZM11.7466 13.7247L15.6031 17.4024L15.8791 17.1129L12.0227 13.4353L11.7466 13.7247ZM15.6027 17.4021C15.7856 17.5773 16.0207 17.6634 16.2546 17.6634V17.2634C16.1188 17.2634 15.9843 17.2137 15.8795 17.1133L15.6027 17.4021ZM16.2546 17.6634C16.5037 17.6634 16.7536 17.5651 16.939 17.3702L16.6492 17.0945C16.5425 17.2066 16.399 17.2634 16.2546 17.2634V17.6634ZM16.9389 17.3703C17.2989 16.9924 17.2849 16.3941 16.9077 16.034L16.6314 16.3233C16.8489 16.5309 16.8572 16.8762 16.6493 17.0944L16.9389 17.3703Z" fill="#FCFCFC"/>
</svg>
