<svg width="24" height="24" viewBox="0 0 24 24" fill="none" xmlns="http://www.w3.org/2000/svg">
<path fill-rule="evenodd" clip-rule="evenodd" d="M23.5 2C23.5 1.84311 23.4264 1.69531 23.3011 1.60083C23.1758 1.50635 23.0135 1.47614 22.8626 1.51924L15.9914 3.48246L8.12218 1.51516L7.87149 1.5168L7.86264 1.51924L0.862639 3.51924C0.647989 3.58057 0.5 3.77676 0.5 4V22C0.5 22.1569 0.573645 22.3047 0.698902 22.3992C0.824159 22.4937 0.986502 22.5239 1.13736 22.4808L8.00862 20.5175L15.8778 22.4848C15.8784 22.485 15.8799 22.4854 15.8805 22.4855C15.964 22.5061 16.0525 22.505 16.1374 22.4808L23.1374 20.4808C23.352 20.4194 23.5 20.2232 23.5 20V2ZM16.5 21.3371L22.5 19.6229V2.66287L16.5 4.37716V21.3371ZM15.5 21.3596V4.39039L8.5 2.64039V19.6096L15.5 21.3596ZM7.5 2.66287V19.6229L1.5 21.3371V4.37716L7.5 2.66287Z" fill="#575757"/>
</svg>
