<svg width="23" height="14" viewBox="0 0 23 14" fill="none" xmlns="http://www.w3.org/2000/svg">
<path d="M11.0642 12.5386C11.0086 12.5016 10.953 12.4461 10.8974 12.4091C9.32141 11.0592 8.43145 9.08042 8.43145 6.99073C8.43145 4.90104 9.32141 2.9408 10.8974 1.57233C10.953 1.53535 11.0086 1.47987 11.0642 1.44288C10.0074 0.740155 8.74665 0.333313 7.37463 0.333313C3.68502 0.333313 0.699951 3.31066 0.699951 6.99073C0.699951 10.6708 3.68502 13.6482 7.37463 13.6482C8.72811 13.6482 10.0074 13.2413 11.0642 12.5386Z" fill="#AEAEAE"/>
<path d="M11.9357 1.46138C12.9925 0.758648 14.2533 0.351806 15.6253 0.351806C19.2963 0.351806 22.2999 3.32915 22.2999 7.00923C22.2999 10.6893 19.3149 13.6666 15.6253 13.6666C14.2718 13.6666 12.9925 13.2598 11.9357 12.5571C11.9913 12.5201 12.0469 12.4646 12.1025 12.4276C13.66 11.0592 14.5684 9.08042 14.5684 7.00923C14.5684 4.91954 13.6785 2.9593 12.1025 1.59083C12.0469 1.55384 11.9913 1.49836 11.9357 1.46138Z" fill="#AEAEAE"/>
<path d="M11.2311 1.97918C11.3238 1.9052 11.398 1.84973 11.4907 1.77575C11.5834 1.84973 11.6575 1.9052 11.7503 1.97918C13.1593 3.1997 14.0493 5.012 14.0493 7.00923C14.0493 9.00645 13.1593 10.8003 11.7688 12.0393C11.6761 12.1132 11.6019 12.1687 11.5092 12.2427C11.4165 12.1872 11.3238 12.1132 11.2497 12.0393C9.84055 10.8188 8.95059 9.00645 8.95059 7.00923C8.95059 4.99351 9.84055 3.1997 11.2311 1.97918Z" fill="#AEAEAE"/>
</svg>
