<svg width="27" height="8" viewBox="0 0 27 8" fill="none" xmlns="http://www.w3.org/2000/svg">
<path d="M7.31634 0.336516C7.31424 0.336513 7.23193 0.336416 7.10803 0.356704C7.03821 0.368136 6.95517 0.386042 6.86584 0.414086C6.72937 0.456927 6.5782 0.523425 6.43696 0.626646C6.24223 0.768956 6.06636 0.981066 5.97389 1.29721C5.71547 2.18106 4.9872 4.62123 4.96706 4.68848H4.76569C4.76569 4.68848 4.02063 2.19387 3.75886 1.29401C3.47694 0.330111 2.41641 0.333313 2.41641 0.333313H0V7.66664H2.41641V3.31148H2.61777L4.02734 7.66664H5.7054L7.11498 3.31468H7.31634V7.66664H9.73275V0.333313L7.31634 0.336516Z" fill="#AEAEAE"/>
<path d="M16.1429 0.333313C16.1429 0.333313 15.4348 0.394158 15.1025 1.10187L13.3909 4.68848H13.1895V0.333313H10.7731V7.66664H13.0553C13.0553 7.66664 13.797 7.6026 14.1293 6.89808L15.8073 3.31148H16.0087V7.66664H18.4251V0.333313H16.1429Z" fill="#AEAEAE"/>
<path d="M19.4991 3.66374V7.66665H21.9155V5.32895H24.5333C25.6743 5.32895 26.6409 4.63404 27 3.66374H19.4991Z" fill="#AEAEAE"/>
<path d="M19.2857 0.333313H24.4729C25.8693 0.333313 27 1.24088 27 2.36168C27 2.50471 26.9838 2.64253 26.9482 2.77776H22.9501C22.6131 2.77776 22.2859 2.74135 21.9749 2.67374C20.6044 2.37728 19.5449 1.46712 19.2857 0.333313Z" fill="#AEAEAE"/>
</svg>
