<svg width="40" height="16" viewBox="0 0 40 16" fill="none" xmlns="http://www.w3.org/2000/svg">
<path d="M6.60585 2.63381C7.54792 2.6183 8.45822 2.97683 9.13997 3.6319L11.0254 1.73275C9.82985 0.601647 8.24598 -0.0193474 6.60585 -5.17159e-05C5.38138 4.31243e-06 4.18101 0.342863 3.13877 0.990244C2.09653 1.63763 1.25362 2.56419 0.703795 3.66624C0.241336 4.59325 0.000488281 5.61635 0.000488281 6.65383C0.000488281 7.69117 0.241273 8.71464 0.703613 9.64157C1.25344 10.7436 2.09653 11.67 3.13877 12.3174C4.18101 12.9648 5.38138 13.3077 6.60585 13.3077C8.38855 13.3077 9.88967 12.7175 10.9842 11.7009C12.2311 10.5429 12.9495 8.83045 12.9495 6.80561C12.9501 6.35217 12.912 5.89952 12.8357 5.45264H6.60596V8.01534H10.1741C10.1011 8.42463 9.94654 8.81481 9.71979 9.16232C9.49304 9.50984 9.19867 9.80815 8.85463 10.038C8.26193 10.4428 7.49858 10.6739 6.60585 10.6739C4.88289 10.6739 3.42068 9.50382 2.89763 7.92732C2.62116 7.10116 2.62116 6.20569 2.89763 5.37953C3.42086 3.80336 4.88312 2.63381 6.60585 2.63381Z" fill="#AEAEAE"/>
<path fill-rule="evenodd" clip-rule="evenodd" d="M18.9186 7.81651V12.5066H17.4414V0.924118H21.3591C21.8267 0.914279 22.2917 0.99782 22.7271 1.16992C23.1625 1.34202 23.5598 1.59927 23.896 1.92683C24.2356 2.2345 24.5058 2.61183 24.6886 3.03345C24.8714 3.45507 24.9625 3.91122 24.9557 4.37124C24.9654 4.83372 24.8757 5.29284 24.6928 5.71715C24.5099 6.14146 24.2381 6.52091 23.896 6.82951C23.2109 7.48751 22.3653 7.8162 21.3591 7.81559L18.9186 7.81651ZM18.9186 2.3501V6.3933H21.3958C21.6674 6.40141 21.9377 6.35234 22.1893 6.24922C22.441 6.1461 22.6685 5.99121 22.8574 5.79445C23.0452 5.61048 23.1946 5.39044 23.2965 5.14734C23.3985 4.90423 23.451 4.643 23.451 4.37909C23.451 4.11518 23.3985 3.85395 23.2965 3.61085C23.1946 3.36775 23.0452 3.14771 22.8574 2.96374C22.6709 2.76284 22.4442 2.60415 22.1922 2.4982C21.9402 2.39224 21.6687 2.34145 21.3958 2.34917L18.9186 2.3501Z" fill="#AEAEAE"/>
<path fill-rule="evenodd" clip-rule="evenodd" d="M28.3596 4.32324C29.4514 4.32324 30.3132 4.61713 30.9451 5.20489C31.5769 5.79266 31.8926 6.59853 31.8919 7.6225V12.5067H30.479V11.4069H30.4148C29.8031 12.3126 28.9896 12.7655 27.9742 12.7655C27.1075 12.7655 26.3824 12.5067 25.7989 11.9892C25.5188 11.7516 25.2949 11.4541 25.1435 11.1184C24.9921 10.7827 24.917 10.4171 24.9236 10.0484C24.9236 9.22838 25.2312 8.57623 25.8466 8.09197C26.4619 7.60771 27.2834 7.36496 28.311 7.36373C29.1881 7.36373 29.9105 7.52546 30.4781 7.84892V7.50883C30.4798 7.25747 30.4259 7.00889 30.3203 6.78111C30.2148 6.55333 30.0603 6.35206 29.868 6.1919C29.4773 5.83691 28.9682 5.64321 28.4422 5.64941C27.617 5.64941 26.9641 5.99998 26.4833 6.70111L25.1823 5.87583C25.898 4.84077 26.957 4.32324 28.3596 4.32324ZM26.4484 10.0808C26.4475 10.2701 26.4914 10.457 26.5766 10.6258C26.6618 10.7946 26.7859 10.9404 26.9384 11.0511C27.2651 11.31 27.6706 11.4471 28.0862 11.4393C28.7095 11.4382 29.307 11.1883 29.7478 10.7443C30.2371 10.2804 30.4818 9.73605 30.4818 9.11132C30.0212 8.74166 29.3789 8.55682 28.555 8.55682C27.955 8.55682 27.4546 8.70253 27.054 8.99395C26.6494 9.28968 26.4484 9.64918 26.4484 10.0808Z" fill="#AEAEAE"/>
<path d="M40.0026 4.58203L35.0701 16H33.5453L35.3757 12.0049L32.1323 4.58203H33.7379L36.0821 10.2749H36.1143L38.3942 4.58203H40.0026Z" fill="#AEAEAE"/>
</svg>
