<svg width="32" height="20" viewBox="0 0 32 20" fill="none" xmlns="http://www.w3.org/2000/svg">
<path d="M15.3545 18.3079C15.2721 18.2524 15.1897 18.1692 15.1073 18.1137C12.7725 16.0888 11.4541 13.1207 11.4541 9.98613C11.4541 6.85159 12.7725 3.91123 15.1073 1.85853C15.1897 1.80305 15.2721 1.71983 15.3545 1.66436C13.7888 0.610264 11.921 0 9.88841 0C4.42232 0 0 4.46602 0 9.98613C0 15.5062 4.42232 19.9723 9.88841 19.9723C11.8936 19.9723 13.7888 19.362 15.3545 18.3079Z" fill="#AEAEAE"/>
<path d="M16.6455 1.69209C18.2112 0.638003 20.079 0.0277394 22.1116 0.0277394C27.5502 0.0277394 32 4.49376 32 10.0139C32 15.534 27.5777 20 22.1116 20C20.1064 20 18.2112 19.3897 16.6455 18.3356C16.7279 18.2802 16.8103 18.1969 16.8927 18.1415C19.2 16.0888 20.5459 13.1207 20.5459 10.0139C20.5459 6.87933 19.2275 3.93897 16.8927 1.88627C16.8103 1.83079 16.7279 1.74757 16.6455 1.69209Z" fill="#AEAEAE"/>
<path d="M15.6017 2.46879C15.7391 2.35784 15.8489 2.27462 15.9863 2.16366C16.1236 2.27462 16.2335 2.35784 16.3708 2.46879C18.4584 4.29958 19.7768 7.01803 19.7768 10.0139C19.7768 13.0097 18.4584 15.7004 16.3983 17.5589C16.2609 17.6699 16.1511 17.7531 16.0137 17.8641C15.8764 17.7809 15.7391 17.6699 15.6292 17.5589C13.5416 15.7282 12.2232 13.0097 12.2232 10.0139C12.2232 6.99029 13.5416 4.29958 15.6017 2.46879Z" fill="#AEAEAE"/>
</svg>
