<svg width="40" height="13" viewBox="0 0 40 13" fill="none" xmlns="http://www.w3.org/2000/svg">
<path fill-rule="evenodd" clip-rule="evenodd" d="M37.0022 12.6846L36.6193 10.8344H32.4711L31.7904 12.6846H28.3874L33.2548 1.15632C33.37 0.865844 33.5785 0.61871 33.8497 0.451178C34.1208 0.283646 34.4404 0.204536 34.7615 0.225457H37.3859L40 12.6846H37.0022ZM35.1252 3.61665L33.4074 8.2781H36.0874L35.1252 3.61665ZM24.0667 3.68825C24.0667 5.096 28.6215 5.39817 28.6215 8.63684C28.6215 11.7552 25.2607 12.9016 23.0341 12.9016C21.7682 12.9219 20.5123 12.682 19.3496 12.1977L19.8356 9.40158C21.1689 10.4678 25.2207 10.7692 25.2207 9.08007C25.2207 7.39092 20.7059 7.35011 20.7059 4.13148C20.7059 0.708788 24.5526 0.00634766 26.1719 0.00634766C27.1756 0.0305771 28.1685 0.213437 29.1111 0.547678L28.6422 3.22354C27.2452 2.4588 24.0667 2.27764 24.0667 3.6861V3.68825ZM14.0741 12.6846L16.1141 0.225457H19.3785L17.3385 12.6846H14.0741ZM6.24741 12.6846L3.41185 1.86305C2.35816 1.21892 1.20707 0.737456 0 0.435975L0.06 0.225457H5.20148C5.55885 0.186568 5.9181 0.281043 6.20583 0.489583C6.49357 0.698124 6.68808 1.00499 6.74963 1.3475L7.85185 6.95199L8.22222 8.79723L11.3333 0.229754H14.8467L9.65333 12.6889H6.24741V12.6846Z" fill="#AEAEAE"/>
</svg>
