<svg width="40" height="12" viewBox="0 0 40 12" fill="none" xmlns="http://www.w3.org/2000/svg">
<path d="M10.839 0.504804C10.8359 0.504801 10.714 0.504655 10.5304 0.535086C10.427 0.552235 10.304 0.579093 10.1716 0.62116C9.96944 0.68542 9.74549 0.785168 9.53624 0.94C9.24774 1.15346 8.9872 1.47163 8.85021 1.94585C8.46737 3.27162 7.38844 6.93188 7.3586 7.03275H7.06028C7.06028 7.03275 5.95649 3.29083 5.56867 1.94105C5.15102 0.495197 3.57986 0.5 3.57986 0.5H0V11.5H3.57986V4.96725H3.87818L5.96644 11.5H8.45245L10.5407 4.97205H10.839V11.5H14.4189V0.5L10.839 0.504804Z" fill="#AEAEAE"/>
<path d="M23.9154 0.5C23.9154 0.5 22.8663 0.591267 22.3741 1.65284L19.8384 7.03275H19.5401V0.5H15.9602V11.5H19.3412C19.3412 11.5 20.44 11.4039 20.9322 10.3472L23.4182 4.96725H23.7166V11.5H27.2964V0.5H23.9154Z" fill="#AEAEAE"/>
<path d="M28.8875 5.49564V11.5H32.4674V7.99345H36.3456C38.036 7.99345 39.468 6.95109 40 5.49564H28.8875Z" fill="#AEAEAE"/>
<path d="M28.5714 0.5H36.2561C38.3248 0.5 40 1.86135 40 3.54255C40 3.75709 39.976 3.96383 39.9232 4.16667H34.0001C33.5009 4.16667 33.0161 4.11206 32.5554 4.01064C30.525 3.56596 28.9554 2.20071 28.5714 0.5Z" fill="#AEAEAE"/>
</svg>
