<svg width="40" height="16" viewBox="0 0 40 16" fill="none" xmlns="http://www.w3.org/2000/svg">
<path d="M7.30792 2.0628C6.83917 2.60324 6.08917 3.0295 5.33917 2.9686C5.24542 2.23787 5.61261 1.46147 6.04229 0.981922C6.51104 0.426261 7.33136 0.0304472 7.99542 0C8.07354 0.76118 7.76886 1.50714 7.30792 2.0628ZM7.98761 3.11323C6.90167 3.05233 5.97198 3.71456 5.45636 3.71456C4.93292 3.71456 4.14386 3.14367 3.28448 3.1589C2.16729 3.17412 1.12823 3.79068 0.557918 4.7726C-0.613957 6.73644 0.25323 9.64415 1.38604 11.2426C1.94073 12.0343 2.60479 12.902 3.47979 12.8716C4.30792 12.8411 4.63604 12.3463 5.63604 12.3463C6.64385 12.3463 6.93292 12.8716 7.80792 12.8563C8.71417 12.8411 9.28448 12.0647 9.83917 11.2731C10.472 10.3749 10.7298 9.49952 10.7454 9.45385C10.7298 9.43863 8.99542 8.79163 8.97979 6.84301C8.96417 5.21408 10.347 4.43768 10.4095 4.39201C9.62823 3.26546 8.40948 3.14367 7.98761 3.11323ZM14.261 0.905804V12.7726H16.1517V8.71551H18.7689C21.1595 8.71551 22.8392 7.11703 22.8392 4.80304C22.8392 2.48906 21.1907 0.905804 18.8314 0.905804H14.261ZM16.1517 2.45861H18.3314C19.972 2.45861 20.9095 3.31113 20.9095 4.81066C20.9095 6.31018 19.972 7.17031 18.3235 7.17031H16.1517V2.45861ZM26.2923 12.8639C27.4798 12.8639 28.5814 12.2778 29.0814 11.3492H29.1204V12.7726H30.8704V6.86584C30.8704 5.15319 29.4642 4.04948 27.3001 4.04948C25.2923 4.04948 23.8079 5.16841 23.7532 6.70599H25.4564C25.597 5.97526 26.2923 5.49572 27.2454 5.49572C28.4017 5.49572 29.0501 6.02093 29.0501 6.98763V7.64225L26.6907 7.77926C24.4954 7.90866 23.3079 8.78401 23.3079 10.3064C23.3079 11.844 24.5345 12.8639 26.2923 12.8639ZM26.8001 11.4558C25.7923 11.4558 25.1517 10.9838 25.1517 10.2607C25.1517 9.51475 25.7689 9.08088 26.9485 9.01237L29.0501 8.88297V9.55281C29.0501 10.6641 28.0814 11.4558 26.8001 11.4558ZM33.2064 16C35.0501 16 35.9173 15.3149 36.6751 13.2369L39.9954 4.16365H38.0735L35.847 11.1741H35.8079L33.5814 4.16365H31.6048L34.8079 12.803L34.636 13.3283C34.347 14.2188 33.8782 14.5614 33.0423 14.5614C32.8939 14.5614 32.6048 14.5461 32.4876 14.5309V15.9543C32.597 15.9848 33.0657 16 33.2064 16Z" fill="#AEAEAE"/>
</svg>
