<svg width="24" height="24" viewBox="0 0 24 24" fill="none" xmlns="http://www.w3.org/2000/svg">
<path fill-rule="evenodd" clip-rule="evenodd" d="M9.53535 11.5715C8.88099 10.7464 8.4417 10.0535 8.13512 9.34687C8.56525 8.95939 8.96793 8.55367 9.35689 8.15707C9.49416 8.01575 9.63602 7.87443 9.77787 7.73311C10.2721 7.24078 10.5375 6.67095 10.5375 6.092C10.5375 5.51305 10.2766 4.94322 9.77787 4.45089L8.41425 3.09242C8.2584 2.93716 8.11122 2.78622 7.96006 2.6312L7.9475 2.61832C7.64549 2.30833 7.32975 1.98923 7.01859 1.70203C6.54727 1.24161 5.99358 1 5.40787 1C4.82672 1 4.26846 1.24161 3.77884 1.70659L2.06744 3.41152C1.44512 4.0315 1.09277 4.78367 1.01956 5.65437C0.932615 6.74389 1.13396 7.90178 1.65561 9.30128C2.4564 11.4666 3.66444 13.477 5.4582 15.6241C7.63634 18.218 10.2583 20.2603 13.251 21.7053C14.3904 22.2433 15.9142 22.8815 17.6118 22.9909L17.6244 22.9914C17.7251 22.9958 17.8219 23 17.923 23C19.0624 23 19.9776 22.608 20.7235 21.8011C20.7281 21.7965 20.7372 21.7874 20.7418 21.7783C20.9889 21.4811 21.2678 21.2117 21.56 20.9294C21.5815 20.9085 21.6032 20.8876 21.6249 20.8666C21.84 20.6614 22.0596 20.4472 22.2701 20.2283C23.2448 19.2163 23.2448 17.9308 22.261 16.9507L19.5109 14.2109C19.0441 13.7277 18.4859 13.4724 17.9001 13.4724C17.3144 13.4724 16.7516 13.7277 16.2711 14.2064L14.6329 15.8384C14.4819 15.7518 14.3263 15.6743 14.1799 15.6013C13.9969 15.5102 13.8276 15.4235 13.6766 15.3278C12.1848 14.3842 10.8303 13.1533 9.53535 11.5715ZM13.1411 16.1724C11.5454 15.1628 10.1131 13.8558 8.76157 12.2049L8.75183 12.1929C8.06384 11.3253 7.57009 10.557 7.21775 9.74491C7.04673 9.35078 7.14659 8.89145 7.46581 8.60389C7.87033 8.23947 8.25367 7.85378 8.64127 7.45857C8.78373 7.31196 8.92982 7.16642 9.06922 7.02754L9.0721 7.02467C9.42134 6.67675 9.53747 6.34952 9.53747 6.092C9.53747 5.8309 9.42292 5.50563 9.07538 5.16258L9.0721 5.15934L7.70848 3.80086C7.54743 3.64042 7.39581 3.48492 7.24592 3.33121L7.23154 3.31646C6.93111 3.00809 6.6307 2.70486 6.34035 2.43687C6.33341 2.43047 6.32656 2.42396 6.3198 2.41736C6.00955 2.11428 5.6985 2 5.40787 2C5.1257 2 4.80786 2.11146 4.47537 2.42423L2.77321 4.11996C2.31747 4.57398 2.06974 5.10484 2.01621 5.7361C1.94473 6.63678 2.10494 7.64363 2.59263 8.95202L2.59353 8.95443C3.34732 10.9927 4.48998 12.9053 6.22489 14.9821C8.31219 17.4675 10.8202 19.4204 13.6819 20.8029C14.7946 21.3281 16.1712 21.8938 17.6661 21.9923C17.7707 21.9968 17.8461 22 17.923 22C18.7834 22 19.423 21.7237 19.9672 21.1458C19.9691 21.1435 19.971 21.1412 19.9729 21.1388C20.2566 20.7977 20.5736 20.4916 20.8583 20.2167C20.8823 20.1935 20.9061 20.1706 20.9297 20.1478L20.9347 20.1429C21.1449 19.9424 21.3531 19.7392 21.5495 19.5351C21.888 19.1836 22.0005 18.8489 22 18.5796C21.9995 18.3126 21.8883 17.9909 21.5552 17.6591L18.8051 14.9194L18.7916 14.9057C18.4839 14.5871 18.175 14.4724 17.9001 14.4724C17.6236 14.4724 17.3041 14.5888 16.9769 14.9148L15.3387 16.5468C15.0193 16.865 14.5265 16.9301 14.1354 16.7058C14.0139 16.6361 13.8844 16.5713 13.734 16.4964C13.5523 16.4059 13.3406 16.2989 13.1411 16.1724Z" fill="black"/>
</svg>
