<svg width="32" height="32" viewBox="0 0 32 32" fill="none" xmlns="http://www.w3.org/2000/svg">
    <path d="M16.2981 31.9295C16.1104 32.0233 15.8888 32.023 15.7012 31.9291L15.6977 31.9274L15.6892 31.9231L15.6595 31.9079C15.6341 31.8948 15.5977 31.8757 15.5509 31.8507C15.4574 31.8008 15.3227 31.727 15.1525 31.6294C14.8123 31.4342 14.33 31.1431 13.753 30.7553C12.6001 29.9803 11.0632 28.8151 9.52467 27.2512C6.44948 24.1252 3.33325 19.3676 3.33325 12.9368C3.33325 6.13916 9.0256 0.666504 15.9999 0.666504C22.9742 0.666504 28.6666 6.13916 28.6666 12.9368C28.6666 19.3676 25.5504 24.1252 22.4752 27.2512C20.9367 28.8151 19.3997 29.9803 18.2468 30.7553C17.6699 31.1431 17.1876 31.4342 16.8473 31.6294C16.6772 31.727 16.5424 31.8008 16.4489 31.8507C16.4022 31.8757 16.3657 31.8948 16.3404 31.9079L16.3106 31.9231L16.3022 31.9274L16.2996 31.9287L16.2981 31.9295Z" fill="#B9192B"/>
    <path d="M7.59985 16.7998H8.60442V13.7453C8.60442 13.0473 9.0277 12.6428 9.59834 12.6428C10.169 12.6428 10.5808 13.0473 10.5808 13.7453V16.799H11.587V13.3921C11.587 12.229 10.7012 11.6126 9.92337 11.6126C9.39203 11.6126 8.94091 11.8144 8.62407 12.2189H8.60442V9.6001H7.59985V16.7998Z" fill="white"/>
    <path fill-rule="evenodd" clip-rule="evenodd" d="M12.6681 14.2314C12.6681 15.3441 12.8253 15.7688 13.2092 16.2036C13.4852 16.5173 13.9461 16.8604 14.7255 16.8604C15.5049 16.8604 15.97 16.5206 16.2418 16.2036C16.6258 15.7688 16.783 15.3441 16.783 14.2314C16.783 13.1188 16.6249 12.7042 16.2418 12.2694C15.9659 11.9557 15.5049 11.6126 14.7255 11.6126C13.9461 11.6126 13.4852 11.9557 13.2092 12.2694C12.8253 12.7042 12.6681 13.1289 12.6681 14.2314ZM15.7792 14.2415C15.7792 14.9799 15.7203 15.1818 15.5336 15.4551C15.3854 15.6679 15.071 15.8293 14.7263 15.8293C14.3817 15.8293 14.0664 15.6679 13.9191 15.4551C13.7316 15.1818 13.6735 14.9799 13.6735 14.2314C13.6735 13.483 13.7324 13.2912 13.9191 13.0179C14.0664 12.806 14.3817 12.6436 14.7263 12.6436C15.071 12.6436 15.3813 12.806 15.5336 13.0179C15.7203 13.2912 15.7792 13.4931 15.7792 14.2415Z" fill="white"/>
    <path fill-rule="evenodd" clip-rule="evenodd" d="M19.5252 17.9024C20.199 17.9024 20.6714 17.5079 20.6714 16.7897V16.2683C20.508 16.4521 20.3094 16.5992 20.0881 16.7005C19.8668 16.8018 19.6275 16.8551 19.3852 16.857C19.1333 16.8627 18.8833 16.8096 18.6543 16.7017C18.4252 16.5937 18.2231 16.4338 18.063 16.2338C17.7772 15.8495 17.6888 15.667 17.6888 14.2415C17.6888 12.8161 17.7772 12.6235 18.063 12.2391C18.2225 12.0392 18.4241 11.879 18.6525 11.7705C18.8809 11.6619 19.1303 11.608 19.3819 11.6126C19.8936 11.6126 20.2972 11.8144 20.6714 12.2189V11.6731H21.6719V16.6787C21.6719 18.2262 20.6477 18.9334 19.5055 18.9334C18.8661 18.9334 18.2161 18.5903 17.7731 18.0739L18.5509 17.4373C18.7965 17.6896 19.1412 17.9024 19.5252 17.9024ZM18.8899 13.0381C18.7122 13.271 18.6926 13.4123 18.6926 14.2415C18.6926 15.0607 18.7122 15.2019 18.8899 15.4349C18.9844 15.5579 19.1048 15.6573 19.242 15.7257C19.3793 15.7941 19.5298 15.8296 19.6824 15.8296C19.8349 15.8296 19.9855 15.7941 20.1228 15.7257C20.26 15.6573 20.3804 15.5579 20.4749 15.4349C20.6518 15.2019 20.6714 15.0708 20.6714 14.2415C20.6714 13.4123 20.6518 13.271 20.4749 13.0381C20.3804 12.9151 20.26 12.8156 20.1228 12.7473C19.9855 12.6789 19.8349 12.6434 19.6824 12.6434C19.5298 12.6434 19.3793 12.6789 19.242 12.7473C19.1048 12.8156 18.9844 12.9151 18.8899 13.0381Z" fill="white"/>
    <path d="M22.9363 15.556C22.9363 16.4769 23.4881 16.7998 24.216 16.7998H24.9332V15.8293H24.3151C24.0694 15.8293 23.9409 15.7082 23.9409 15.4753V9.6001H22.9363V15.556Z" fill="white"/>
    <path d="M16.399 10.2695H12.9792V10.7909H16.399V10.2695Z" fill="white"/>
</svg>
