<svg width="18" height="16" viewBox="0 0 18 16" fill="none" xmlns="http://www.w3.org/2000/svg">
<path fill-rule="evenodd" clip-rule="evenodd" d="M2.15737 2.15737C2.94899 1.36574 3.98678 0.969934 5.02429 0.969934C6.0618 0.969934 7.09932 1.36574 7.89094 2.15737L9 3.26643L10.1091 2.15737C10.9007 1.36574 11.9382 0.969934 12.9757 0.969934C14.0132 0.969934 15.0507 1.36574 15.8426 2.15737C17.4259 3.74032 17.4259 6.30769 15.8426 7.89094L9 14.7336L2.15737 7.89094C0.574124 6.30769 0.574124 3.74061 2.15737 2.15737ZM8.31429 15.4196C8.49601 15.6016 8.74275 15.7035 9 15.7035C9.25753 15.7035 9.50399 15.6016 9.686 15.4196L16.5286 8.57693C17.4773 7.62801 18 6.3659 18 5.02401C18 3.68183 17.4773 2.42001 16.5286 1.47137C15.5794 0.522447 14.3179 0 12.9757 0C11.6338 0 10.372 0.522447 9.42307 1.47137L9 1.89444L8.57693 1.47137C7.62801 0.522447 6.36619 0 5.02429 0C3.6824 0 2.42058 0.522447 1.47165 1.47137C0.522447 2.42058 0 3.68212 0 5.02401C0 6.36619 0.522447 7.62801 1.47165 8.57693L8.31429 15.4196Z" fill="#06467B"/>
</svg>
