<svg width="16" height="14" viewBox="0 0 16 14" fill="none" xmlns="http://www.w3.org/2000/svg">
<path fill-rule="evenodd" clip-rule="evenodd" d="M12.8786 13.097H8.51293C8.26565 13.097 8.06517 12.8965 8.06517 12.6493V9.85076H6.94576V12.6493C6.94576 12.8965 6.74528 13.097 6.498 13.097H2.13233C1.88506 13.097 1.68457 12.8965 1.68457 12.6493V7.38807C1.68457 7.14079 1.88506 6.94031 2.13233 6.94031C2.37961 6.94031 2.58009 7.14079 2.58009 7.38807V12.2015H6.05024V9.40299C6.05024 9.15572 6.25073 8.95523 6.498 8.95523H8.51293C8.7602 8.95523 8.96069 9.15572 8.96069 9.40299V12.2015H12.4308V7.38807C12.4308 7.14079 12.6313 6.94031 12.8786 6.94031C13.1259 6.94031 13.3264 7.14079 13.3264 7.38807V12.6493C13.3264 12.8965 13.1259 13.097 12.8786 13.097Z" fill="#06467B"/>
<mask id="mask0_367_4774" style="mask-type:alpha" maskUnits="userSpaceOnUse" x="0" y="0" width="16" height="7">
<path fill-rule="evenodd" clip-rule="evenodd" d="M0.00537109 0H15.0054V6.9403H0.00537109V0Z" fill="white"/>
</mask>
<g mask="url(#mask0_367_4774)">
<path fill-rule="evenodd" clip-rule="evenodd" d="M0.45338 6.9403C0.326888 6.9403 0.201179 6.88702 0.112634 6.78325C-0.0480004 6.59519 -0.0256124 6.31254 0.162335 6.15202L7.24256 0.10724C7.41047 -0.0361559 7.65797 -0.0357082 7.82543 0.108359L14.8497 6.15314C15.0371 6.31444 15.0583 6.5972 14.897 6.78459C14.7357 6.97198 14.4532 6.99325 14.2656 6.83194L7.53215 1.03758L0.743977 6.83306C0.659574 6.90515 0.556253 6.9403 0.45338 6.9403Z" fill="#06467B"/>
</g>
</svg>
