<svg width="13" height="16" viewBox="0 0 13 16" fill="none" xmlns="http://www.w3.org/2000/svg">
<path fill-rule="evenodd" clip-rule="evenodd" d="M12.0054 6.45665C12.0054 9.68612 8.30679 13.9574 6.97579 15.3906C6.72085 15.6649 6.28991 15.6656 6.03367 15.3912C4.70073 13.9632 0.998909 9.70424 1.00538 6.45665C1.00538 3.44329 3.46809 1 6.50538 1C9.54267 1 12.0054 3.44329 12.0054 6.45665Z" stroke="black" stroke-width="0.7" stroke-linecap="round" stroke-linejoin="round"/>
<path fill-rule="evenodd" clip-rule="evenodd" d="M9.09346 6.54336C9.09346 7.97271 7.93458 9.13159 6.50523 9.13159C5.07587 9.13159 3.91699 7.97271 3.91699 6.54336C3.91699 5.11336 5.07587 3.95512 6.50523 3.95512C7.93458 3.95512 9.09346 5.11336 9.09346 6.54336Z" stroke="black" stroke-width="0.7" stroke-linecap="round" stroke-linejoin="round"/>
</svg>
