<svg width="12" height="13" viewBox="0 0 12 13" fill="none" xmlns="http://www.w3.org/2000/svg">
<mask id="mask0_367_4827" style="mask-type:alpha" maskUnits="userSpaceOnUse" x="0" y="0" width="12" height="13">
<path fill-rule="evenodd" clip-rule="evenodd" d="M0 0.00024128H11.791V12.278H0V0.00024128Z" fill="white"/>
</mask>
<g mask="url(#mask0_367_4827)">
<path fill-rule="evenodd" clip-rule="evenodd" d="M5.7272 11.4744C5.948 11.4744 6.1272 11.6552 6.1272 11.8762C6.1272 12.0988 5.948 12.278 5.7272 12.278H1.8672C1.3536 12.278 0.8864 12.0675 0.548 11.7284C0.2104 11.3885 0 10.9192 0 10.4025V1.87578C0 1.35908 0.2104 0.889795 0.548 0.550688C0.8864 0.209973 1.3536 0.00024128 1.8672 0.00024128H5.7272C5.948 0.00024128 6.1272 0.180241 6.1272 0.402027C6.1272 0.623009 5.948 0.803813 5.7272 0.803813H1.8672C1.5744 0.803813 1.3072 0.924348 1.1136 1.11881C0.92 1.31328 0.8 1.58167 0.8 1.87578V10.4025C0.8 10.6974 0.92 10.9658 1.1136 11.1586C1.3072 11.3539 1.5744 11.4744 1.8672 11.4744H5.7272ZM8.7376 4.0414C8.5808 3.88471 8.5808 3.62997 8.7376 3.47328C8.8936 3.31658 9.1464 3.31658 9.3032 3.47328L11.672 5.85265C11.6792 5.86069 11.688 5.86792 11.6944 5.87756H11.6952C11.6992 5.88238 11.7032 5.88721 11.7072 5.89363L11.7096 5.89685L11.7136 5.90087L11.7144 5.90247L11.7184 5.9089L11.7224 5.91372L11.724 5.91533L11.7272 5.92176L11.7288 5.92497L11.7312 5.92819L11.736 5.93542C11.7712 5.99569 11.7912 6.06479 11.7912 6.13953C11.7912 6.21346 11.7712 6.28417 11.736 6.34363L11.7312 6.35006L11.7288 6.35488L11.7272 6.3581L11.724 6.36292L11.7224 6.36613L11.7184 6.37015L11.7144 6.37658H11.7136L11.7096 6.38301L11.7072 6.38622L11.6952 6.40069H11.6944C11.688 6.40953 11.6792 6.41756 11.672 6.4256L9.3032 8.80497C9.1464 8.96167 8.8936 8.96167 8.7376 8.80497C8.5808 8.64747 8.5808 8.39355 8.7376 8.23685L10.4264 6.54131H4.3224C4.1016 6.54131 3.9224 6.36131 3.9224 6.13953C3.9224 5.91694 4.1016 5.73774 4.3224 5.73774H10.4264L8.7376 4.0414Z" fill="#0B0D07"/>
</g>
</svg>
