<svg width="13" height="14" viewBox="0 0 13 14" fill="none" xmlns="http://www.w3.org/2000/svg">
<path fill-rule="evenodd" clip-rule="evenodd" d="M3.11124 12.295C3.11124 12.8221 2.68388 13.2495 2.15669 13.2495C1.62951 13.2495 1.20215 12.8221 1.20215 12.295C1.20215 11.7678 1.62951 11.3404 2.15669 11.3404C2.68388 11.3404 3.11124 11.7678 3.11124 12.295Z" stroke="#06467B" stroke-width="0.7"/>
<path fill-rule="evenodd" clip-rule="evenodd" d="M9.65665 12.295C9.65665 12.8221 9.22929 13.2495 8.7021 13.2495C8.17492 13.2495 7.74756 12.8221 7.74756 12.295C7.74756 11.7678 8.17492 11.3404 8.7021 11.3404C9.22929 11.3404 9.65665 11.7678 9.65665 12.295Z" stroke="#06467B" stroke-width="0.7"/>
<path d="M11.0455 10.2727H2.08205C1.21838 10.2727 0.572291 9.48002 0.746455 8.63407L2.14947 1.81933C2.23658 1.39633 1.91351 1 1.48167 1H0" stroke="#06467B" stroke-width="0.7"/>
<path d="M3.13632 2.36363H10.6015C11.4621 2.36363 12.1075 3.15089 11.9387 3.9947L11.2535 7.4206C11.1276 8.05043 10.5792 8.50692 9.9371 8.51669L2.04541 8.63636" stroke="#06467B" stroke-width="0.7"/>
</svg>
