<svg width="12" height="16" viewBox="0 0 12 16" fill="none" xmlns="http://www.w3.org/2000/svg">
<path fill-rule="evenodd" clip-rule="evenodd" d="M9.60379 5.90244H9.26171V3.65884C9.26171 1.64329 7.59159 0 5.52909 0H5.48214C3.41964 0 1.74952 1.64329 1.74952 3.65884V5.90244H1.40744C0.629396 5.90244 0.00561523 6.5497 0.00561523 7.32774V13.75C0.00561523 14.528 0.629396 15.1585 1.40744 15.1585H9.60379C10.3818 15.1585 11.0056 14.528 11.0056 13.75V7.32774C11.0056 6.5497 10.3818 5.90244 9.60379 5.90244ZM2.5544 3.65884C2.5544 2.08598 3.86232 0.804878 5.48214 0.804878H5.52909C7.14891 0.804878 8.45683 2.08598 8.45683 3.65884V5.90244H2.5544V3.65884ZM9.59708 14.3537C9.92909 14.3537 10.2007 14.082 10.2007 13.75V7.31098C10.2007 6.97896 9.92909 6.70732 9.59708 6.70732H1.41415C1.08214 6.70732 0.810493 6.97896 0.810493 7.31098V13.75C0.810493 14.082 1.08214 14.3537 1.41415 14.3537H9.59708Z" fill="#06467B"/>
</svg>
