<svg width="35" height="35" viewBox="0 0 35 35" fill="none" xmlns="http://www.w3.org/2000/svg">
<g opacity="0.74762">
<circle cx="17.5" cy="17.5" r="17" transform="rotate(-90 17.5 17.5)" stroke="white"/>
</g>
<g opacity="0.74762">
<path d="M13.1303 18.1058L15.8993 21.1057C16.0776 21.3105 16.43 21.3287 16.6368 21.1505C16.8435 20.9723 16.8644 20.6323 16.6727 20.4391L14.6716 18.2725L21.4808 18.2725C21.7675 18.2725 22 18.0487 22 17.7725C22 17.4964 21.7675 17.2726 21.4808 17.2726L14.6716 17.2726L16.6727 15.106C16.8644 14.9127 16.8384 14.5734 16.6317 14.3952C16.4249 14.217 16.0776 14.2346 15.8993 14.4393L13.1303 17.4392C12.9495 17.6817 12.9639 17.8995 13.1303 18.1058Z" fill="white"/>
</g>
</svg>
