<svg width="23" height="23" viewBox="0 0 23 23" fill="none" xmlns="http://www.w3.org/2000/svg">
<path fill-rule="evenodd" clip-rule="evenodd" d="M10.5 0.5C4.97715 0.5 0.5 4.97715 0.5 10.5C0.5 16.0228 4.97715 20.5 10.5 20.5C13.0815 20.5 15.4346 19.5218 17.2087 17.9158L21.6464 22.3536C21.8417 22.5488 22.1583 22.5488 22.3536 22.3536C22.5488 22.1583 22.5488 21.8417 22.3536 21.6464L17.9158 17.2087C19.5218 15.4346 20.5 13.0815 20.5 10.5C20.5 4.97715 16.0228 0.5 10.5 0.5ZM1.5 10.5C1.5 5.52944 5.52944 1.5 10.5 1.5C15.4706 1.5 19.5 5.52944 19.5 10.5C19.5 15.4706 15.4706 19.5 10.5 19.5C5.52944 19.5 1.5 15.4706 1.5 10.5Z" fill="#e5e5e5"/>
</svg>
