<svg width="18" height="18" viewBox="0 0 18 18" fill="none" xmlns="http://www.w3.org/2000/svg">
<path fill-rule="evenodd" clip-rule="evenodd" d="M14.12 16.36C12.8851 16.36 11.88 15.3552 11.88 14.12C11.88 12.8998 12.8771 11.88 14.12 11.88C15.3549 11.88 16.36 12.8848 16.36 14.12C16.36 15.3552 15.3549 16.36 14.12 16.36ZM3.88 11.24C2.64512 11.24 1.64 10.2352 1.64 9C1.64 7.7648 2.64512 6.76 3.88 6.76C5.11648 6.76 6.12 7.76832 6.12 9C6.12 10.2128 5.1296 11.24 3.88 11.24ZM14.12 1.64C15.3549 1.64 16.36 2.6448 16.36 3.88C16.36 5.1152 15.3549 6.12 14.12 6.12C12.8803 6.12 11.88 5.10944 11.88 3.88C11.88 2.6448 12.8851 1.64 14.12 1.64ZM14.12 11.24C13.2291 11.24 12.4317 11.6467 11.903 12.2842L6.64288 9.80672C6.71776 9.5504 6.76 9.28 6.76 9C6.76 8.58784 6.67168 8.1968 6.51488 7.84224L11.6832 5.408C12.1933 6.21856 13.0934 6.76 14.12 6.76C15.7082 6.76 17 5.46784 17 3.88C17 2.29216 15.7082 1 14.12 1C12.5318 1 11.24 2.29216 11.24 3.88C11.24 4.21376 11.2998 4.53312 11.4051 4.83168L6.1904 7.28768C5.66496 6.5808 4.82624 6.12 3.88 6.12C2.29184 6.12 1 7.41216 1 9C1 10.5878 2.29184 11.88 3.88 11.88C4.96096 11.88 5.90336 11.2806 6.39616 10.3978L11.551 12.8256C11.3536 13.2154 11.24 13.6541 11.24 14.12C11.24 15.7078 12.5318 17 14.12 17C15.7082 17 17 15.7078 17 14.12C17 12.5322 15.7082 11.24 14.12 11.24Z" fill="black"/>
<path d="M11.903 12.2842L11.8604 12.3746L11.9305 12.4076L11.98 12.348L11.903 12.2842ZM6.64288 9.80672L6.54689 9.77868L6.52291 9.86075L6.60027 9.89719L6.64288 9.80672ZM6.51488 7.84224L6.47227 7.75177L6.38393 7.79338L6.42342 7.88269L6.51488 7.84224ZM11.6832 5.408L11.7678 5.35474L11.7207 5.27981L11.6406 5.31753L11.6832 5.408ZM11.4051 4.83168L11.4477 4.92215L11.5295 4.88365L11.4994 4.79842L11.4051 4.83168ZM6.1904 7.28768L6.11014 7.34734L6.15897 7.41302L6.23301 7.37815L6.1904 7.28768ZM6.39616 10.3978L6.43877 10.3073L6.35433 10.2675L6.30884 10.349L6.39616 10.3978ZM11.551 12.8256L11.6402 12.8708L11.6868 12.779L11.5936 12.7351L11.551 12.8256ZM14.12 16.26C12.9403 16.26 11.98 15.3 11.98 14.12H11.78C11.78 15.4104 12.8299 16.46 14.12 16.46V16.26ZM11.98 14.12C11.98 12.9544 12.933 11.98 14.12 11.98V11.78C12.8212 11.78 11.78 12.8453 11.78 14.12H11.98ZM14.12 11.98C15.2997 11.98 16.26 12.94 16.26 14.12H16.46C16.46 12.8296 15.4101 11.78 14.12 11.78V11.98ZM16.26 14.12C16.26 15.3 15.2997 16.26 14.12 16.26V16.46C15.4101 16.46 16.46 15.4104 16.46 14.12H16.26ZM3.88 11.14C2.70034 11.14 1.74 10.18 1.74 9H1.54C1.54 10.2904 2.5899 11.34 3.88 11.34V11.14ZM1.74 9C1.74 7.82004 2.70034 6.86 3.88 6.86V6.66C2.5899 6.66 1.54 7.70956 1.54 9H1.74ZM3.88 6.86C5.06111 6.86 6.02 7.82341 6.02 9H6.22C6.22 7.71323 5.17185 6.66 3.88 6.66V6.86ZM6.02 9C6.02 10.1586 5.07331 11.14 3.88 11.14V11.34C5.18589 11.34 6.22 10.267 6.22 9H6.02ZM14.12 1.74C15.2997 1.74 16.26 2.70004 16.26 3.88H16.46C16.46 2.58956 15.4101 1.54 14.12 1.54V1.74ZM16.26 3.88C16.26 5.05996 15.2997 6.02 14.12 6.02V6.22C15.4101 6.22 16.46 5.17044 16.46 3.88H16.26ZM14.12 6.02C12.9358 6.02 11.98 5.05451 11.98 3.88H11.78C11.78 5.16437 12.8248 6.22 14.12 6.22V6.02ZM11.98 3.88C11.98 2.70004 12.9403 1.74 14.12 1.74V1.54C12.8299 1.54 11.78 2.58956 11.78 3.88H11.98ZM14.12 11.14C13.198 11.14 12.3728 11.561 11.8261 12.2203L11.98 12.348C12.4905 11.7324 13.2602 11.34 14.12 11.34V11.14ZM11.9456 12.1937L6.68549 9.71625L6.60027 9.89719L11.8604 12.3746L11.9456 12.1937ZM6.73887 9.83476C6.81623 9.56996 6.86 9.29012 6.86 9H6.66C6.66 9.26988 6.61929 9.53084 6.54689 9.77868L6.73887 9.83476ZM6.86 9C6.86 8.57339 6.76856 8.16861 6.60634 7.80179L6.42342 7.88269C6.57481 8.22499 6.66 8.60229 6.66 9H6.86ZM6.55749 7.93271L11.7258 5.49847L11.6406 5.31753L6.47227 7.75177L6.55749 7.93271ZM11.5986 5.46126C12.126 6.2994 13.0573 6.86 14.12 6.86V6.66C13.1296 6.66 12.2606 6.13772 11.7678 5.35474L11.5986 5.46126ZM14.12 6.86C15.7634 6.86 17.1 5.52306 17.1 3.88H16.9C16.9 5.41262 15.6529 6.66 14.12 6.66V6.86ZM17.1 3.88C17.1 2.23694 15.7634 0.9 14.12 0.9V1.1C15.6529 1.1 16.9 2.34738 16.9 3.88H17.1ZM14.12 0.9C12.4766 0.9 11.14 2.23694 11.14 3.88H11.34C11.34 2.34738 12.5871 1.1 14.12 1.1V0.9ZM11.14 3.88C11.14 4.22584 11.202 4.55643 11.3108 4.86494L11.4994 4.79842C11.3977 4.50981 11.34 4.20168 11.34 3.88H11.14ZM11.3625 4.74121L6.14779 7.19721L6.23301 7.37815L11.4477 4.92215L11.3625 4.74121ZM6.27066 7.22802C5.72738 6.49715 4.85956 6.02 3.88 6.02V6.22C4.79292 6.22 5.60254 6.66445 6.11014 7.34734L6.27066 7.22802ZM3.88 6.02C2.2366 6.02 0.9 7.35694 0.9 9H1.1C1.1 7.46738 2.34708 6.22 3.88 6.22V6.02ZM0.9 9C0.9 10.6431 2.2366 11.98 3.88 11.98V11.78C2.34708 11.78 1.1 10.5326 1.1 9H0.9ZM3.88 11.98C4.99888 11.98 5.97385 11.3595 6.48348 10.4465L6.30884 10.349C5.83287 11.2017 4.92304 11.78 3.88 11.78V11.98ZM6.35355 10.4882L11.5084 12.9161L11.5936 12.7351L6.43877 10.3073L6.35355 10.4882ZM11.4618 12.7804C11.2577 13.1835 11.14 13.6376 11.14 14.12H11.34C11.34 13.6706 11.4495 13.2473 11.6402 12.8708L11.4618 12.7804ZM11.14 14.12C11.14 15.7631 12.4766 17.1 14.12 17.1V16.9C12.5871 16.9 11.34 15.6526 11.34 14.12H11.14ZM14.12 17.1C15.7634 17.1 17.1 15.7631 17.1 14.12H16.9C16.9 15.6526 15.6529 16.9 14.12 16.9V17.1ZM17.1 14.12C17.1 12.4769 15.7634 11.14 14.12 11.14V11.34C15.6529 11.34 16.9 12.5874 16.9 14.12H17.1Z" fill="black"/>
</svg>
