<svg width="24" height="16" viewBox="0 0 24 16" fill="none" xmlns="http://www.w3.org/2000/svg">
<path fill-rule="evenodd" clip-rule="evenodd" d="M0 1C0 0.723858 0.223858 0.5 0.5 0.5H23.5C23.7761 0.5 24 0.723858 24 1V15C24 15.2761 23.7761 15.5 23.5 15.5H0.5C0.223858 15.5 0 15.2761 0 15V1ZM1 1.5V14.5H23V1.5H20V6.5C20 6.77614 19.7761 7 19.5 7C19.2239 7 19 6.77614 19 6.5V1.5H17V9.5C17 9.77614 16.7761 10 16.5 10C16.2239 10 16 9.77614 16 9.5V1.5H14V6.5C14 6.77614 13.7761 7 13.5 7C13.2239 7 13 6.77614 13 6.5V1.5H11V6.5C11 6.77614 10.7761 7 10.5 7C10.2239 7 10 6.77614 10 6.5V1.5H8V6.5C8 6.77614 7.77614 7 7.5 7C7.22386 7 7 6.77614 7 6.5V1.5H5V9.5C5 9.77614 4.77614 10 4.5 10C4.22386 10 4 9.77614 4 9.5V1.5H1Z" fill="black"/>
</svg>
