<svg width="14" height="14" viewBox="0 0 14 14" fill="none" xmlns="http://www.w3.org/2000/svg">
<path fill-rule="evenodd" clip-rule="evenodd" d="M0.875 6.56242C0.875 2.93813 3.81321 0 7.4375 0L7.43742 0.00031346C11.0621 0.00031346 14 2.93836 14 6.56242C14 10.1871 11.062 13.1251 7.4375 13.1251C3.81321 13.1251 0.875 10.1871 0.875 6.56242ZM9.88459 9.60101C10.0773 9.7188 10.3292 9.65822 10.447 9.46489L10.4469 9.46505C10.5653 9.27228 10.5041 9.02073 10.3114 8.90239C8.58162 7.84541 6.43733 7.59942 3.93749 8.17094C3.71682 8.22109 3.57944 8.44051 3.62984 8.66063C3.67998 8.88069 3.89941 9.01869 4.11953 8.96822C6.40386 8.44638 8.34355 8.65915 9.88459 9.60101ZM11.2503 7.67826C11.1018 7.91907 10.787 7.99462 10.5465 7.84674C8.78286 6.76264 6.09362 6.44863 4.00716 7.08198C3.73656 7.16372 3.45077 7.01122 3.36864 6.7411C3.28714 6.4705 3.43972 6.18525 3.70984 6.10297C6.09315 5.37982 9.05596 5.73011 11.0817 6.97494C11.3223 7.12305 11.3983 7.43807 11.2502 7.67834L11.2503 7.67826ZM3.69518 5.05868C5.71456 4.44579 9.20383 4.5613 11.3192 5.81756H11.3193C11.61 5.99075 11.9877 5.89459 12.1601 5.60292C12.333 5.31164 12.2373 4.93494 11.9457 4.76183C9.51056 3.31624 5.65697 3.18028 3.33886 3.88399C3.01435 3.98257 2.83145 4.32526 2.92972 4.64969C3.02799 4.97396 3.37091 5.15702 3.69518 5.05868Z" fill="#393939"/>
</svg>
