<svg width="14" height="12" viewBox="0 0 14 12" fill="none" xmlns="http://www.w3.org/2000/svg">
<path fill-rule="evenodd" clip-rule="evenodd" d="M13.5312 1.96452C13.0654 2.17062 12.5656 2.31039 12.0405 2.37279C12.5767 2.05218 12.9871 1.54363 13.1817 0.939518C12.6787 1.23643 12.1235 1.45203 11.5319 1.5689C11.0582 1.0643 10.3844 0.75 9.63699 0.75C8.20315 0.75 7.04057 1.91083 7.04057 3.34173C7.04057 3.54467 7.0635 3.74289 7.1078 3.93242C4.95032 3.82422 3.03722 2.79212 1.7568 1.22379C1.53298 1.60601 1.40565 2.05137 1.40565 2.52678C1.40565 3.42623 1.86436 4.21986 2.56033 4.68418C2.13484 4.66997 1.73465 4.55309 1.38431 4.35883V4.39121C1.38431 5.6468 2.27958 6.6947 3.46666 6.9332C3.24917 6.99163 3.01982 7.02401 2.78256 7.02401C2.61491 7.02401 2.45277 7.00743 2.29381 6.97584C2.62438 8.00637 3.58293 8.75577 4.71862 8.77632C3.83047 9.47124 2.71059 9.88425 1.49425 9.88425C1.28467 9.88425 1.07824 9.87161 0.875 9.84871C2.02414 10.5855 3.38839 11.0151 4.85465 11.0151C9.6307 11.0151 12.2414 7.06508 12.2414 3.63945L12.2327 3.30384C12.7428 2.94056 13.1841 2.48413 13.5312 1.96452Z" fill="#393939"/>
</svg>
