<svg width="14" height="14" viewBox="0 0 14 14" fill="none" xmlns="http://www.w3.org/2000/svg">
<mask id="mask0_302:5215" style="mask-type:alpha" maskUnits="userSpaceOnUse" x="0" y="0" width="14" height="14">
<path fill-rule="evenodd" clip-rule="evenodd" d="M0.875 0.966309H13.4257V13.5311H0.875V0.966309Z" fill="white"/>
</mask>
<g mask="url(#mask0_302:5215)">
<path fill-rule="evenodd" clip-rule="evenodd" d="M12.3131 7.24536L12.2884 7.24469C12.2884 6.71779 12.3022 6.19022 12.2847 5.66377C12.2667 5.12932 12.2545 4.59021 12.1741 4.06309C12.0404 3.18625 11.551 2.56121 10.6833 2.3052C10.3238 2.19884 9.93793 2.14866 9.56202 2.13778C8.49512 2.10692 7.42711 2.09693 6.35976 2.10381C5.61882 2.10847 4.87565 2.12823 4.13737 2.18818C3.09156 2.27278 2.34151 2.92824 2.15012 3.95406C2.0462 4.51227 2.02644 5.09091 2.01534 5.66088C1.99513 6.71468 1.99824 7.76915 2.01445 8.82295C2.02244 9.35762 2.04087 9.89717 2.12414 10.4234C2.27224 11.358 2.81201 11.9752 3.74436 12.2248C4.24595 12.3589 4.75952 12.3605 5.2711 12.3696C6.12329 12.3849 6.97592 12.3942 7.82811 12.3831C8.60591 12.3727 9.38461 12.3485 10.1609 12.2976C10.6029 12.2683 11.017 12.1133 11.3745 11.8347C11.9705 11.3702 12.197 10.7236 12.2327 10.006C12.2787 9.08673 12.2882 8.16571 12.3131 7.24536ZM7.14933 13.5313C6.29271 13.5162 5.43563 13.5089 4.57923 13.4838C3.8576 13.4625 3.1584 13.3283 2.5318 12.9456C1.69937 12.4369 1.21466 11.6828 1.01572 10.7365C0.896258 10.1681 0.884934 9.59009 0.881159 9.01368C0.873166 7.76249 0.87139 6.51085 0.885378 5.2601C0.892928 4.60175 0.915132 3.9403 1.13562 3.30749C1.55794 2.09493 2.41279 1.35953 3.66065 1.11973C4.21863 1.01271 4.79749 0.987173 5.36791 0.978514C6.61866 0.959196 7.8703 0.965413 9.12149 0.97918C9.77984 0.986729 10.4411 1.0076 11.0745 1.22631C12.2935 1.6473 13.0327 2.50393 13.2725 3.758C13.3795 4.31599 13.4049 4.89485 13.4135 5.46504C13.4326 6.72068 13.4271 7.97698 13.4124 9.23261C13.4049 9.89073 13.3813 10.5517 13.1599 11.1846C12.7378 12.3922 11.885 13.1241 10.644 13.3652C10.0823 13.4747 9.49829 13.4862 8.92321 13.5086C8.3328 13.5317 7.74085 13.5135 7.14956 13.5135C7.14956 13.5195 7.14933 13.5253 7.14933 13.5313Z" fill="#393939"/>
</g>
<path fill-rule="evenodd" clip-rule="evenodd" d="M5.05852 7.24745C5.06185 8.39318 6.00973 9.33707 7.1539 9.33351C8.30029 9.32974 9.24285 8.38274 9.23952 7.23813C9.23619 6.0924 8.28719 5.1474 7.14458 5.15229C5.99663 5.1574 5.05541 6.10262 5.05852 7.24745ZM7.14014 10.465C5.34983 10.4646 3.92634 9.02843 3.927 7.22347C3.92767 5.43939 5.36937 4.01944 7.17877 4.021C8.95153 4.02255 10.3724 5.46781 10.3713 7.26921C10.3701 9.03887 8.92777 10.4655 7.14014 10.465Z" fill="#393939"/>
<path fill-rule="evenodd" clip-rule="evenodd" d="M11.2511 3.89605C11.2506 4.31126 10.918 4.64943 10.5059 4.65365C10.0922 4.65787 9.74096 4.31215 9.7383 3.89805C9.73563 3.48128 10.0769 3.14111 10.4979 3.14111C10.9273 3.14111 11.2515 3.46596 11.2511 3.89605Z" fill="#393939"/>
</svg>
