<svg width="19" height="16" viewBox="0 0 19 16" fill="none" xmlns="http://www.w3.org/2000/svg">
<path fill-rule="evenodd" clip-rule="evenodd" d="M4.99502 9.24901L6.48001 13.73C6.67601 14.223 6.58002 14.42 7.14602 14.42C7.58301 14.42 7.77602 14.238 8.02002 14.02L10.12 12.148L14.485 15.108C15.288 15.514 15.868 15.304 16.068 14.423L18.934 2.03601C19.228 0.958005 18.486 0.468006 17.717 0.788006L0.887015 6.74001C-0.262985 7.16201 -0.253985 7.75001 0.677015 8.01201L4.99702 9.24901L4.99502 9.24801V9.24901ZM6.00002 8.66801L14.996 3.46301C15.468 3.20101 15.901 3.34101 15.546 3.63101L7.44302 10.336L7.27802 12.606L6.00002 8.66901V8.66801Z" fill="black"/>
</svg>
