<svg width="12" height="14" viewBox="0 0 12 14" fill="none" xmlns="http://www.w3.org/2000/svg">
    <g id="Icon/Kumaş Copy 5">
        <g id="Group 8">
            <path id="Path" d="M4.22784 11.6702C4.44429 11.6702 4.61975 11.4948 4.61975 11.2783V5.00226C4.61975 4.86224 4.54505 4.73286 4.42379 4.66286C4.30254 4.59285 4.15315 4.59285 4.03189 4.66286C3.91063 4.73286 3.83594 4.86224 3.83594 5.00226V11.2783C3.83594 11.4948 4.0114 11.6702 4.22784 11.6702Z" fill="black"></path>
            <path id="Path_2" d="M8.14972 11.6702C8.36616 11.6702 8.54162 11.4948 8.54162 11.2783V5.00226C8.54162 4.78581 8.36616 4.61035 8.14972 4.61035C7.93327 4.61035 7.75781 4.78581 7.75781 5.00226V11.2783C7.75781 11.4948 7.93327 11.6702 8.14972 11.6702Z" fill="black"></path>
            <path id="Path_3" d="M6.18878 11.6702C6.40522 11.6702 6.58068 11.4948 6.58068 11.2783V5.00226C6.58068 4.86224 6.50599 4.73286 6.38473 4.66286C6.26348 4.59285 6.11408 4.59285 5.99283 4.66286C5.87157 4.73286 5.79687 4.86224 5.79688 5.00226V11.2783C5.79688 11.4948 5.97234 11.6702 6.18878 11.6702Z" fill="black"></path>
            <path id="Shape" fill-rule="evenodd" clip-rule="evenodd" d="M11.6797 2.55079H8.54172V1.86461C8.54095 1.21483 8.01439 0.688269 7.36461 0.6875H5.01039C4.36061 0.688269 3.83405 1.21483 3.83328 1.86461V2.55079H0.69665C0.588043 2.55079 0.5 2.63883 0.5 2.74744V3.33739C0.5 3.446 0.588043 3.53404 0.69665 3.53404H1.48185V11.6706C1.48415 12.5356 2.18443 13.2365 3.04947 13.2396H9.32553C10.1911 13.2373 10.8922 12.5362 10.8945 11.6706V3.53125H11.6797C11.7867 3.5305 11.8735 3.44436 11.875 3.33739V2.74744C11.875 2.63938 11.7878 2.55156 11.6797 2.55079ZM4.61849 1.86461C4.61925 1.64848 4.79427 1.47347 5.01039 1.4727H7.36461C7.58073 1.47347 7.75575 1.64848 7.75651 1.86461V2.55079H4.61849V1.86461ZM9.32692 12.4558C9.75908 12.4528 10.1085 12.1028 10.1107 11.6706V3.53125H2.26706V11.672C2.2701 12.1036 2.61925 12.4528 3.05087 12.4558H9.32692Z" fill="black"></path>
        </g>
    </g>
</svg>
