<svg width="18" height="19" viewBox="0 0 18 19" fill="none" xmlns="http://www.w3.org/2000/svg">
<path d="M15.377 2.628C16.2116 3.45895 16.8731 4.44713 17.3233 5.53536C17.7735 6.6236 18.0035 7.79031 18 8.968C17.998 13.91 13.977 17.931 9.038 17.931H9.034C7.534 17.931 6.06 17.554 4.751 16.841L0 18.086L1.271 13.441C0.485567 12.0787 0.0730461 10.5335 0.075 8.961C0.077 4.02 4.098 0 9.038 0C11.435 0 13.685 0.934 15.378 2.628H15.377ZM13.124 10.838C12.9 10.726 11.799 10.185 11.594 10.11C11.388 10.035 11.239 9.998 11.09 10.222C10.94 10.446 10.511 10.951 10.38 11.1C10.25 11.25 10.12 11.268 9.895 11.156C9.671 11.044 8.95 10.808 8.095 10.045C7.429 9.451 6.979 8.717 6.849 8.493C6.719 8.269 6.835 8.148 6.947 8.036C7.047 7.936 7.171 7.775 7.283 7.644C7.395 7.514 7.433 7.42 7.507 7.27C7.581 7.12 7.544 6.99 7.488 6.878C7.432 6.766 6.984 5.664 6.798 5.215C6.616 4.779 6.431 4.838 6.294 4.831C6.15075 4.8249 6.00738 4.82223 5.864 4.823C5.75056 4.82599 5.63897 4.85241 5.53623 4.9006C5.43349 4.94878 5.34183 5.01769 5.267 5.103C5.062 5.327 4.484 5.869 4.484 6.971C4.484 8.074 5.286 9.138 5.398 9.288C5.51 9.438 6.978 11.699 9.224 12.669C9.758 12.9 10.175 13.038 10.5 13.141C11.037 13.311 11.525 13.287 11.91 13.23C12.34 13.165 13.236 12.688 13.422 12.165C13.609 11.642 13.609 11.193 13.552 11.1C13.497 11.007 13.348 10.95 13.124 10.838Z" fill="black"/>
</svg>
