<svg width="27" height="9" viewBox="0 0 27 9" fill="none" xmlns="http://www.w3.org/2000/svg">
<path fill-rule="evenodd" clip-rule="evenodd" d="M24.9765 8.45629L24.718 7.22278H21.918L21.4585 8.45629H19.1615L22.447 0.770735C22.5248 0.577087 22.6655 0.412331 22.8485 0.300643C23.0316 0.188955 23.2473 0.136215 23.464 0.150163H25.2355L27 8.45629H24.9765ZM23.7095 2.41096L22.55 5.51859H24.359L23.7095 2.41096ZM16.245 2.45869C16.245 3.39719 19.3195 3.59864 19.3195 5.75775C19.3195 7.83667 17.051 8.60093 15.548 8.60093C14.6935 8.61449 13.8458 8.45454 13.061 8.13168L13.389 6.26758C14.289 6.97837 17.024 7.17934 17.024 6.05324C17.024 4.92714 13.9765 4.89993 13.9765 2.75418C13.9765 0.472383 16.573 0.00408936 17.666 0.00408936C18.3435 0.0202423 19.0137 0.142149 19.65 0.364976L19.3335 2.14888C18.3905 1.63906 16.245 1.51829 16.245 2.45726V2.45869ZM9.5 8.45629L10.877 0.150163H13.0805L11.7035 8.45629H9.5ZM4.217 8.45629L2.303 1.24189C1.59176 0.812474 0.81477 0.491495 0 0.290507L0.0405 0.150163H3.511C3.75222 0.124236 3.99472 0.18722 4.18894 0.326246C4.38316 0.465273 4.51445 0.669852 4.556 0.898191L5.3 4.63452L5.55 5.86468L7.65 0.153027H10.0215L6.516 8.45915H4.217V8.45629Z" fill="#AEAEAE"/>
</svg>
