<svg width="19" height="11" viewBox="0 0 19 11" fill="none" xmlns="http://www.w3.org/2000/svg">
<path fill-rule="evenodd" clip-rule="evenodd" d="M18.1739 8.57897C17.7604 8.08322 17.2898 7.63604 16.8356 7.20535C16.6736 7.05232 16.5062 6.8947 16.3451 6.73525C15.8828 6.28349 15.8665 6.11121 16.232 5.59897C16.4854 5.24434 16.7542 4.88879 17.0148 4.54515C17.25 4.23359 17.4934 3.91286 17.7269 3.58939L17.7749 3.52249C18.2219 2.90303 18.6833 2.26433 18.9286 1.49184C18.9928 1.28932 19.0598 0.98967 18.9068 0.739503C18.753 0.48842 18.4562 0.411446 18.2463 0.377541C18.1422 0.358297 18.0391 0.355548 17.9432 0.355548L15.0204 0.353715H14.996C14.5535 0.353715 14.2558 0.562646 14.0857 0.991503C13.9219 1.40112 13.7436 1.83822 13.5391 2.25242C13.1328 3.07897 12.6162 4.03291 11.8687 4.82739L11.838 4.86038C11.7493 4.95568 11.6498 5.06106 11.5765 5.06106C11.5656 5.06106 11.5529 5.06106 11.5394 5.05648C11.3846 4.99692 11.2806 4.61938 11.2851 4.4471C11.2851 4.44527 11.2851 4.44252 11.2851 4.43885L11.2833 1.05473C11.2833 1.04465 11.2824 1.03182 11.2806 1.02083C11.2064 0.470093 11.0417 0.129207 10.4191 0.00549821C10.4028 0.00274912 10.3856 0 10.3694 0H7.32898C6.83401 0 6.56074 0.202516 6.30466 0.503999C6.23589 0.585555 6.09111 0.753249 6.1626 0.956681C6.23499 1.16378 6.47025 1.20685 6.54717 1.22151C6.92722 1.2939 7.14167 1.52757 7.2023 1.93444C7.30817 2.64187 7.32174 3.39695 7.24392 4.30781C7.22221 4.56256 7.17877 4.75775 7.10819 4.92636C7.091 4.96576 7.03309 5.0913 6.97336 5.0913C6.95436 5.0913 6.90007 5.08489 6.79963 5.01708C6.56436 4.8558 6.39153 4.62396 6.19065 4.33897C5.50656 3.36946 4.93197 2.30465 4.43429 1.07672C4.24969 0.624958 3.90584 0.371126 3.46426 0.363795C2.97925 0.355548 2.53948 0.352799 2.11962 0.352799C1.66175 0.352799 1.23646 0.357381 0.821124 0.365628C0.466413 0.371126 0.220287 0.477424 0.0908903 0.683605C-0.0385067 0.887038 -0.029458 1.15645 0.116227 1.48176C1.28623 4.08514 2.34674 5.97926 3.55565 7.61954C4.40171 8.77049 5.25139 9.56589 6.22775 10.123C7.25659 10.7132 8.41031 11 9.75314 11C9.90516 11 10.0626 10.9954 10.2219 10.989C11.0019 10.9505 11.2914 10.6683 11.3276 9.9077C11.3457 9.51733 11.3882 9.10955 11.5792 8.76225C11.6995 8.54415 11.8117 8.54415 11.8488 8.54415C11.9194 8.54415 12.0081 8.57622 12.1022 8.6367C12.2723 8.7485 12.418 8.89603 12.5374 9.02707C12.6496 9.15078 12.7609 9.27541 12.8722 9.40095C13.112 9.66944 13.3609 9.94802 13.6197 10.211C14.187 10.7892 14.8123 11.0431 15.5308 10.9899H18.211C18.2164 10.9899 18.2228 10.989 18.2282 10.9881C18.4951 10.9716 18.7268 10.8222 18.8625 10.5812C19.0317 10.2834 19.0281 9.9022 18.8535 9.56131C18.6562 9.17827 18.3992 8.84838 18.1739 8.57897Z" fill="black"/>
</svg>
