<svg width="16" height="18" viewBox="0 0 16 18" fill="none" xmlns="http://www.w3.org/2000/svg">
<mask id="mask0_302:5244" style="mask-type:alpha" maskUnits="userSpaceOnUse" x="0" y="0" width="16" height="18">
<path fill-rule="evenodd" clip-rule="evenodd" d="M0 0.966797H16V17.0386H0V0.966797Z" fill="white"/>
</mask>
<g mask="url(#mask0_302:5244)">
<path fill-rule="evenodd" clip-rule="evenodd" d="M11.6656 10.598C11.4664 10.4984 10.4878 10.017 10.3054 9.95064C10.123 9.88417 9.99028 9.85102 9.85751 10.0502C9.72483 10.2494 9.34337 10.6976 9.22717 10.8305C9.11106 10.9633 8.99496 10.9798 8.79589 10.8803C8.59683 10.7807 7.95547 10.5705 7.19509 9.89264C6.60336 9.36502 6.20387 8.71337 6.08776 8.51403C5.97166 8.31487 6.07538 8.20715 6.17509 8.10789C6.26461 8.01883 6.37416 7.87559 6.4736 7.7593C6.57313 7.64319 6.60637 7.56014 6.67275 7.42737C6.73905 7.29451 6.7059 7.17822 6.65609 7.07878C6.60637 6.97907 6.20824 5.99959 6.04232 5.60119C5.88087 5.21317 5.71668 5.26562 5.59447 5.25961C5.47855 5.25378 5.34569 5.2526 5.21301 5.2526C5.08033 5.2526 4.8646 5.30241 4.68211 5.50157C4.4998 5.70081 3.98548 6.18226 3.98548 7.16174C3.98548 8.14122 4.69877 9.08736 4.79831 9.22013C4.89784 9.353 6.20196 11.3629 8.19879 12.2249C8.67369 12.4299 9.0445 12.5524 9.33362 12.6441C9.81043 12.7956 10.2443 12.7742 10.5873 12.723C10.9698 12.6658 11.765 12.2415 11.9309 11.7766C12.0968 11.3119 12.0968 10.9135 12.047 10.8305C11.9973 10.7475 11.8646 10.6977 11.6656 10.598ZM8.03351 15.5556H8.03087C6.84268 15.5551 5.67725 15.236 4.66071 14.6329L4.41885 14.4894L1.91278 15.1466L2.58174 12.704L2.42429 12.4536C1.76144 11.3997 1.41139 10.1816 1.41185 8.93083C1.4133 5.28119 4.3837 2.31189 8.03615 2.31189C9.8046 2.31262 11.4671 3.00206 12.7174 4.25318C13.9675 5.5043 14.6556 7.16748 14.6549 8.9362C14.6535 12.5861 11.6831 15.5556 8.03351 15.5556ZM13.6689 3.30248C12.1648 1.79711 10.1647 0.967708 8.03342 0.966797C3.64244 0.966797 0.0685707 4.5393 0.0668404 8.93037C0.0662941 10.334 0.433097 11.7041 1.13028 12.9117L0 17.0387L4.22324 15.9312C5.38685 16.5657 6.69689 16.9 8.03023 16.9006H8.03351C8.03378 16.9006 8.03324 16.9006 8.03351 16.9006C12.4241 16.9006 15.9983 13.3278 16.0001 8.93666C16.0008 6.80878 15.1731 4.80775 13.6689 3.30248Z" fill="#393939"/>
</g>
</svg>
