<svg width="70" height="14" viewBox="0 0 70 14" fill="none" xmlns="http://www.w3.org/2000/svg">
<path d="M5.57492 6.9551C5.57085 7.69038 6.14942 8.27776 6.87467 8.27776C7.604 8.28192 8.18257 7.70271 8.19075 6.97152C8.19075 6.23625 7.61218 5.64885 6.89097 5.64474C6.16572 5.64063 5.57899 6.22803 5.57492 6.9551Z" fill="#AEAEAE"/>
<path fill-rule="evenodd" clip-rule="evenodd" d="M9.94687 13.9054C9.59291 13.9054 9.23896 13.9079 8.88501 13.9103C8.11852 13.9157 7.35191 13.921 6.58542 13.9013C4.63376 13.852 3.02843 13.0346 1.73275 11.5804C0.677469 10.4015 0.131493 9.01308 0.0174082 7.42752C-0.231133 3.81686 2.22576 1.21256 4.56857 0.403344C7.18844 -0.496245 10.1628 0.0541852 12.2245 2.60918C13.1575 3.76345 13.6749 5.08203 13.7361 6.57314C13.7638 7.27181 13.7595 7.97048 13.7551 8.66784V8.66866C13.7531 8.99588 13.7511 9.32328 13.7524 9.64979C13.7539 10.1536 13.7537 10.6575 13.7535 11.1616V11.1623C13.7532 12.0058 13.7529 12.8502 13.7606 13.6959C13.7606 13.8848 13.7076 13.9177 13.5324 13.9177C12.6382 13.9116 11.7418 13.9123 10.8466 13.9131H10.8427C10.544 13.9134 10.2451 13.9137 9.94687 13.9137V13.9054ZM10.3462 6.96747C10.3462 5.06149 8.81412 3.49646 6.91138 3.48413C4.81711 3.47181 3.43995 5.26277 3.45625 6.95922C3.47661 8.91042 4.95564 10.4344 6.87471 10.4344C8.82635 10.4385 10.3462 8.91866 10.3462 6.96747Z" fill="#AEAEAE"/>
<path fill-rule="evenodd" clip-rule="evenodd" d="M16.6576 9.33355C16.6576 8.97106 16.6579 8.60857 16.6581 8.2461C16.6589 7.15854 16.6596 6.07102 16.6536 4.98347C16.6536 4.81095 16.6984 4.76987 16.8654 4.77398C17.2223 4.77696 17.5797 4.77561 17.9372 4.77425C18.5633 4.77187 19.1904 4.76949 19.8153 4.79041C20.9317 4.82326 21.9585 5.13134 22.7489 5.98986C23.3845 6.67995 23.6127 7.51792 23.5638 8.44627C23.4741 10.1674 22.2477 11.2765 20.5813 11.5681C20.0219 11.6646 19.4602 11.6571 18.898 11.6495C18.6947 11.6468 18.4908 11.644 18.2874 11.6462C18.1 11.6462 18.047 11.6955 18.051 11.8845C18.0577 12.2203 18.0571 12.5562 18.0565 12.8921C18.056 13.1724 18.0555 13.4527 18.0592 13.7329C18.0633 13.889 18.0144 13.9301 17.8637 13.926C17.5296 13.9136 17.1996 13.9136 16.8654 13.926C16.6984 13.9341 16.6495 13.8931 16.6495 13.7165C16.6592 12.5433 16.6586 11.3753 16.6579 10.2084V10.2068C16.6578 9.91582 16.6576 9.62449 16.6576 9.33355ZM18.0592 8.21621C18.0592 8.37546 18.0595 8.53472 18.0597 8.69391C18.0605 9.1711 18.0613 9.64792 18.0552 10.1222C18.0552 10.2783 18.0837 10.3358 18.2507 10.3317C18.6581 10.3194 19.0656 10.3235 19.4731 10.3276C19.8764 10.3317 20.2717 10.3071 20.6628 10.2002C22.0033 9.84701 22.643 8.52019 22.0481 7.30844C21.7099 6.62245 21.0988 6.31848 20.3939 6.18292C19.8959 6.08809 19.3941 6.09742 18.8925 6.10676C18.6554 6.11117 18.4181 6.11558 18.1815 6.10898C18.0522 6.10526 18.0535 6.18261 18.0549 6.26138C18.055 6.26941 18.0552 6.27764 18.0552 6.28561C18.0592 6.93032 18.0592 7.57156 18.0592 8.21621Z" fill="#AEAEAE"/>
<path d="M40.2474 13.9132C40.3626 13.9135 40.4796 13.9137 40.599 13.9137C40.5501 13.8357 40.5297 13.7946 40.5175 13.7617C40.3883 13.5631 40.2595 13.3645 40.1308 13.1659C39.7882 12.6377 39.446 12.1101 39.0996 11.5846C38.8307 11.178 38.5495 10.7754 38.0972 10.5577C38.7512 10.0017 39.1901 9.2955 39.6356 8.57882C39.8813 8.18362 40.1289 7.78524 40.4156 7.40709C40.2816 7.40709 40.1524 7.40781 40.0268 7.4085C39.7247 7.41016 39.4427 7.41172 39.1607 7.40301C39.0058 7.39892 38.9162 7.44409 38.8307 7.57557C38.4435 8.18346 38.0443 8.78733 37.6409 9.38704C37.4453 9.6746 37.1723 9.86767 36.822 9.90459C36.6425 9.92434 36.4631 9.92303 36.2836 9.92173L36.2572 9.92154C36.2214 9.92129 36.1855 9.92108 36.1497 9.92108C36.0084 9.92108 35.9381 9.92108 35.9031 9.88565C35.8685 9.85056 35.8685 9.78071 35.8685 9.64169C35.8685 9.25527 35.8683 8.86885 35.868 8.48242C35.8672 7.31616 35.8665 6.14986 35.8726 4.98357C35.8726 4.82338 35.8278 4.77408 35.6689 4.7823C35.3633 4.79462 35.0577 4.79051 34.7521 4.7823C34.6299 4.77819 34.577 4.80284 34.577 4.94661C34.581 7.88364 34.581 10.8165 34.577 13.7536C34.577 13.8973 34.6258 13.9261 34.7521 13.922C35.0659 13.9137 35.3755 13.9096 35.6892 13.922C35.8319 13.9261 35.8726 13.8809 35.8726 13.7372C35.8665 13.222 35.8672 12.7092 35.868 12.1952C35.8683 12.0247 35.8685 11.8541 35.8685 11.6833C35.8685 11.443 35.8685 11.3287 35.9251 11.2698C35.9764 11.2165 36.0742 11.2085 36.2606 11.1933C36.2869 11.1911 36.3152 11.1888 36.3452 11.1862C37.1113 11.1205 37.6409 11.4368 37.9995 12.094C38.0157 12.1228 38.0321 12.1515 38.0524 12.1803L39.0792 13.7823L39.0894 13.799C39.126 13.8593 39.1615 13.9179 39.2585 13.9179C39.5812 13.9117 39.9065 13.9125 40.2474 13.9132Z" fill="#AEAEAE"/>
<path d="M31.0037 7.31253C31.7698 7.3207 32.5806 7.68217 33.2529 8.38462C33.3384 8.47495 33.3588 8.53661 33.261 8.63519C33.0654 8.83234 32.878 9.04183 32.6946 9.25548C32.6131 9.34989 32.5643 9.35405 32.4706 9.26365C31.9979 8.79542 31.4275 8.55711 30.7634 8.56944C29.5695 8.59411 28.718 9.60053 28.7995 10.8821C28.8728 12.0076 29.9159 12.8621 31.0445 12.7306C31.5986 12.669 32.0713 12.4348 32.4664 12.0487C32.5602 11.9583 32.605 11.9625 32.6865 12.0569C32.8699 12.2705 33.0572 12.4759 33.2529 12.6731C33.3425 12.7634 33.3507 12.821 33.2569 12.9196C32.5887 13.6219 31.7738 13.9917 30.8122 13.9999C29.2436 14.0122 27.9031 12.9236 27.569 11.3832C27.1127 9.27189 28.6691 7.31661 31.0037 7.31253Z" fill="#AEAEAE"/>
<path fill-rule="evenodd" clip-rule="evenodd" d="M41.8666 8.2665C41.8663 8.62611 41.8661 8.98586 41.8661 9.34586V13.47C41.8661 13.6889 41.8661 13.7969 41.9195 13.851C41.9714 13.9034 42.0735 13.9053 42.2747 13.909L42.2979 13.9095C42.4487 13.9136 42.4935 13.8807 42.4935 13.7206C42.4894 13.3558 42.4894 12.99 42.4894 12.6242C42.4894 12.2568 42.4894 11.8893 42.4853 11.5229C42.4853 11.3668 42.5179 11.3093 42.685 11.3134C43.0847 11.3181 43.4831 11.3174 43.8817 11.3168C44.1817 11.3163 44.4824 11.3158 44.7833 11.3176C45.1785 11.3216 45.5697 11.2723 45.9527 11.182C47.4195 10.8369 48.4911 9.85932 48.5807 8.30244C48.6541 7.05785 48.2221 6.05554 47.1343 5.39009C46.4416 4.967 45.6756 4.79858 44.8811 4.78215C44.3857 4.77339 43.8891 4.77397 43.3925 4.77456C42.9581 4.77507 42.5236 4.77558 42.0901 4.76983C41.8904 4.76983 41.8619 4.83555 41.8619 5.01219C41.8681 6.09706 41.8673 7.17961 41.8666 8.26335V8.2665ZM42.4899 8.66985C42.4897 8.46233 42.4894 8.25493 42.4894 8.04779C42.4894 7.21393 42.4894 6.38005 42.4935 5.54618C42.4894 5.43938 42.4894 5.36544 42.6361 5.36955C42.9572 5.37712 43.2795 5.37298 43.602 5.36884C44.1552 5.36174 44.7093 5.35463 45.26 5.40652C46.0586 5.48457 46.7879 5.73924 47.3706 6.34308C48.2548 7.26318 48.3566 9.55943 46.5557 10.3727C46.0056 10.6192 45.4311 10.7343 44.8363 10.7383C44.5273 10.7401 44.219 10.7396 43.9108 10.7391H43.9101C43.4993 10.7384 43.0887 10.7378 42.6768 10.7424C42.5302 10.7424 42.4853 10.7137 42.4853 10.5535C42.4914 9.92701 42.4907 9.29823 42.4899 8.67062V8.66985Z" fill="#AEAEAE"/>
<path fill-rule="evenodd" clip-rule="evenodd" d="M52.6636 13.9918C50.8341 14.0041 49.3429 12.5171 49.3347 10.6728C49.3266 8.83247 50.8016 7.30441 52.5943 7.29624C54.4604 7.28799 55.972 8.75039 55.9802 10.5783C55.9883 12.4925 54.5419 13.9795 52.6636 13.9918ZM49.9459 10.6563C49.9459 12.2049 51.156 13.4414 52.6676 13.4372C54.1793 13.4332 55.4016 12.1844 55.4016 10.6523C55.4016 9.11595 54.1793 7.8672 52.6758 7.86311C51.1479 7.85895 49.9459 9.09128 49.9459 10.6563Z" fill="#AEAEAE"/>
<path d="M62.0101 7.5591C61.346 7.83849 60.8693 8.32313 60.5637 8.9845L60.5532 8.98271C60.5332 8.9793 60.5159 8.97633 60.4985 8.97633C60.4985 8.84078 60.4974 8.7056 60.4963 8.57057C60.4937 8.2556 60.4911 7.94104 60.5026 7.62484C60.5107 7.40403 60.4058 7.39898 60.236 7.39081L60.2337 7.39069C60.0463 7.38252 60.034 7.46052 60.034 7.61667C60.0381 9.58421 60.0381 11.5477 60.0381 13.5112C60.0381 13.7166 60.0381 13.8193 60.089 13.8707C60.14 13.922 60.2418 13.922 60.4456 13.922H60.4577C60.5922 13.922 60.6248 13.8809 60.6248 13.7494C60.6207 12.7965 60.6207 11.8476 60.6207 10.8946C60.6167 10.6646 60.633 10.4304 60.6615 10.2004C60.8489 8.70518 61.8879 7.80558 63.3792 7.87541C64.1859 7.91241 64.8337 8.24105 65.2045 9.00508C65.3756 9.35422 65.4612 9.72803 65.4652 10.1142C65.4707 10.8647 65.4725 11.6133 65.4743 12.3614V12.3667C65.4752 12.7387 65.4761 13.1106 65.4775 13.4824C65.4815 13.922 65.4815 13.922 65.9017 13.922H65.9135C66.0479 13.922 66.0846 13.885 66.0846 13.7494C66.0785 12.9639 66.0792 12.1783 66.08 11.3927C66.0803 11.1308 66.0805 10.8689 66.0805 10.6071C66.0805 10.3277 66.0765 10.0484 66.0398 9.76911C65.8972 8.73802 65.453 7.91649 64.4507 7.51802C63.6399 7.19763 62.8169 7.2182 62.0101 7.5591Z" fill="#AEAEAE"/>
<path d="M24.8476 9.87677C24.8483 9.11648 24.8491 8.35503 24.8429 7.59588C24.8429 7.43572 24.8837 7.3864 25.0426 7.39464C25.3522 7.40697 25.666 7.40289 25.9797 7.39464C26.106 7.39056 26.1549 7.41931 26.1549 7.55896C26.1508 9.62515 26.1508 11.6872 26.1549 13.7534C26.1549 13.8807 26.1223 13.9177 25.996 13.9136C25.67 13.9054 25.3441 13.9013 25.0181 13.9136C24.8674 13.9177 24.8429 13.8643 24.8429 13.7246C24.8491 12.9532 24.8483 12.1771 24.8476 11.4017V11.4009C24.8473 11.1444 24.8471 10.8877 24.8471 10.6315C24.8471 10.3806 24.8473 10.1295 24.8476 9.87829V9.87677Z" fill="#AEAEAE"/>
<path d="M68.9971 11.6329C68.9974 11.4019 68.9977 11.1707 68.9977 10.9396C68.9977 10.4759 68.9987 10.0132 68.9997 9.55004V9.54402L68.9997 9.53787C69.0007 9.0737 69.0017 8.60901 69.0017 8.1423C68.9977 7.97798 69.0466 7.92457 69.2054 7.94099C69.3016 7.9498 69.3998 7.9481 69.4971 7.94641C69.5359 7.94574 69.5746 7.94507 69.6129 7.94507C69.8092 7.94507 69.9059 7.94507 69.9537 7.89629C70.0001 7.8488 70.0001 7.7551 70 7.5702L70 7.54668C69.9959 7.41519 69.9511 7.38644 69.8329 7.39053C69.7332 7.39433 69.6327 7.39288 69.532 7.39143C69.4147 7.38974 69.2972 7.38805 69.181 7.39469C69.0384 7.40286 68.9977 7.35361 68.9977 7.20979C69.0038 6.79781 69.003 6.3881 69.0022 5.97898V5.97817C69.002 5.84118 69.0017 5.70367 69.0017 5.56674C69.0017 5.19687 69.0017 5.19687 68.658 5.18548L68.6351 5.18472C68.4639 5.18061 68.4028 5.21758 68.4069 5.40653C68.4135 5.73124 68.4129 6.05595 68.4123 6.38065V6.38173C68.4118 6.65228 68.4113 6.92283 68.415 7.19337C68.415 7.35769 68.3661 7.4111 68.2072 7.39469C68.117 7.38588 68.0247 7.38753 67.9318 7.3892C67.8946 7.38986 67.8574 7.39053 67.8201 7.39053C67.6056 7.39053 67.4997 7.39053 67.4495 7.44385C67.4004 7.49587 67.4044 7.59863 67.4122 7.80165L67.4127 7.81366C67.4168 7.92457 67.4616 7.94923 67.5594 7.94507C67.641 7.9435 67.7225 7.94496 67.8038 7.94643C67.9337 7.94876 68.0631 7.95108 68.1909 7.94099C68.3702 7.92866 68.415 7.98615 68.415 8.16689C68.4089 9.51128 68.4096 10.858 68.4104 12.2036V12.2073C68.4107 12.653 68.4109 13.0986 68.4109 13.5439C68.4109 13.726 68.4109 13.8164 68.4557 13.8628C68.4999 13.9085 68.5877 13.9113 68.762 13.917L68.7858 13.9177C68.9487 13.9218 69.0017 13.8848 69.0017 13.7083C68.9956 13.0184 68.9964 12.3264 68.9971 11.6337V11.6329Z" fill="#AEAEAE"/>
<path d="M58.1353 10.6562C58.1353 10.912 58.135 11.1678 58.1348 11.4236V11.4255C58.134 12.1878 58.1332 12.95 58.1393 13.7123C58.1393 13.8767 58.0945 13.9177 57.9356 13.9136L57.9128 13.9131C57.7385 13.9094 57.6495 13.9075 57.6041 13.8618C57.5567 13.814 57.5567 13.7185 57.5567 13.5234C57.5567 13.0339 57.557 12.5442 57.5572 12.0544V12.0508C57.558 10.5727 57.5587 9.09342 57.5526 7.61651C57.5526 7.43161 57.6015 7.38645 57.7767 7.39469L57.8 7.39548C57.9645 7.40106 58.0483 7.4039 58.091 7.44758C58.1353 7.49292 58.1353 7.58226 58.1353 7.76434V10.6562Z" fill="#AEAEAE"/>
<path d="M25.5113 6.70465C25.9473 6.70054 26.2773 6.39246 26.2773 5.99402C26.2773 5.60378 25.9514 5.30802 25.5195 5.30391C25.0713 5.29571 24.7209 5.61199 24.729 6.00634C24.7372 6.40068 25.0835 6.70876 25.5113 6.70465Z" fill="#AEAEAE"/>
<path d="M57.8501 5.72278C58.0783 5.72689 58.2332 5.89119 58.225 6.11301C58.2168 6.3184 58.0457 6.47038 57.8297 6.46627C57.6179 6.46216 57.4467 6.29786 57.4508 6.09658C57.4549 5.87887 57.6261 5.71867 57.8501 5.72278Z" fill="#AEAEAE"/>
</svg>
