<svg width="40" height="11" viewBox="0 0 40 11" fill="none" xmlns="http://www.w3.org/2000/svg">
<path fill-rule="evenodd" clip-rule="evenodd" d="M7.04392 2.67797H5.90333C3.62215 2.67797 1.66933 8.35593 4.34798 8.35593H6.07614C7.07848 8.35593 7.83887 8.72881 7.49324 9.67797L7.04392 11H3.74312C1.80758 10.9661 0.563302 10.0508 0.148542 8.66102C-0.335343 7.13559 0.355923 3.98305 2.32603 1.94915C2.94043 1.3218 3.68275 0.828493 4.5046 0.501407C5.32644 0.174321 6.20936 0.0207974 7.09576 0.0508474H10.8632L10.2756 1.71186C9.89539 2.76271 9.10043 2.69492 8.68567 2.69492L7.04392 2.67797ZM27.8856 4.16949H21.8024C20.8001 4.16949 20.3508 4.44068 20.178 5.01695L19.5904 6.81356H25.6735C26.6759 6.81356 27.1252 6.54237 27.298 5.9661L27.8856 4.16949ZM26.3994 8.35593H20.3335C19.3312 8.35593 18.8818 8.62712 18.709 9.20339L18.1214 11H24.2046C25.2069 11 25.6562 10.7288 25.8291 10.1525L26.4166 8.35593H26.3994ZM29.3199 0.0338983H23.2368C22.2345 0.0338983 21.7852 0.305085 21.6123 0.881356L21.0248 2.67797H27.1079C28.1102 2.67797 28.5596 2.40678 28.7324 1.83051L29.3199 0.0338983ZM14.043 2.67797H15.5638C16.8426 2.67797 16.5661 4.27119 15.9094 5.79661C15.3218 7.15254 14.3195 8.33898 13.1098 8.33898H10.5867C9.58432 8.33898 9.13499 8.61017 8.92762 9.18644L8.30548 10.9831H11.9346C13.5245 10.9831 14.8379 10.8475 16.3933 9.49152C18.0178 8.0678 19.9187 4.33898 19.5731 2.20339C19.3312 0.508475 18.398 0.0338983 16.1513 0.0338983H12.0556L9.70529 6.81356H11.2261C12.1247 6.81356 12.574 6.81356 13.0579 5.55932L14.043 2.67797ZM26.9005 10.9831H29.7693L31.0135 7.52542L32.2924 6.47458L33.2947 9.59322C33.6058 10.5424 33.9169 10.9831 34.6427 10.9831H36.8202L34.5736 4.84746L40 0H36.4745L33.1565 3.45763C32.7763 3.86441 32.3961 4.23729 31.9813 4.71186H31.9468L33.6058 0H30.737L26.9005 10.9831Z" fill="#AEAEAE"/>
</svg>
