<svg width="40" height="10" viewBox="0 0 40 10" fill="none" xmlns="http://www.w3.org/2000/svg">
<path d="M17.2629 9.99038L17.2649 9.99037C17.7235 9.98978 18.1824 9.98919 18.6418 9.98919C19.1286 9.98919 19.6148 9.98859 20.1008 9.988L20.1029 9.98799C21.0756 9.9868 22.0476 9.98561 23.0219 9.98919C23.2464 9.99454 23.345 9.92501 23.3943 9.71118C23.5147 9.19249 23.6571 8.67915 23.8049 8.16582L23.8092 8.15129C23.909 7.81292 23.909 7.81292 23.5257 7.81292H15.4771C14.9625 7.81292 14.7599 7.56694 14.8913 7.0804C15.2526 5.73291 15.6141 4.38544 15.9918 3.04331C16.1834 2.36423 16.4682 2.17174 17.1964 2.17174C19.8518 2.17174 22.5073 2.17174 25.1627 2.17708C25.3763 2.17708 25.4748 2.11292 25.5242 1.91508C25.6665 1.35363 25.8143 0.792184 25.9786 0.241431C26.0443 0.0221998 25.9566 0.000811393 25.776 0.000811393C24.7388 0.00275552 23.701 0.00187221 22.6626 0.000988515C20.8451 -0.000558298 19.0262 -0.00210632 17.2073 0.0115056C15.7126 0.0221998 14.0919 1.2146 13.6703 2.62089C13.2794 3.93246 12.9271 5.25158 12.5745 6.57188L12.5737 6.57471C12.5068 6.82522 12.4399 7.07577 12.3727 7.32632C12.2358 7.85037 12.2742 8.37436 12.5206 8.86096C12.9257 9.65766 13.632 9.98383 14.5081 9.98919C15.4277 9.99276 16.3449 9.99157 17.2629 9.99038Z" fill="#AEAEAE"/>
<path d="M12.7812 0.713594C13.0675 0.491179 13.3588 0.264798 13.6596 0.0329451C13.611 0.0258271 13.5775 0.019762 13.5524 0.0152168C13.5209 0.00952099 13.5026 0.00620954 13.4843 0.00620954C13.0272 0.00353599 12.5714 0.00353599 12.1155 0.00353599C11.6597 0.00353599 11.2039 0.00353599 10.7468 0.00086243C10.6044 0.00086243 10.5059 0.0596804 10.4018 0.139887C8.46363 1.63707 6.53087 3.12892 4.59264 4.62076C4.46123 4.72235 4.42838 4.79187 4.53788 4.93624C5.75338 6.54574 6.95794 8.16052 8.16244 9.7807C8.27747 9.93042 8.40334 9.98924 8.59499 9.98924C9.18289 9.98124 9.77386 9.98223 10.3633 9.98322H10.365C10.5598 9.98355 10.755 9.98388 10.9493 9.98388H11.3928C11.4182 9.90548 11.3881 9.87167 11.3605 9.84064C11.3523 9.83147 11.3443 9.82255 11.3381 9.81279C10.9166 9.24957 10.4964 8.68635 10.0764 8.12336C9.29615 7.07753 8.51652 6.03249 7.72995 4.98971C7.58756 4.80791 7.59304 4.71701 7.78469 4.56729C8.82419 3.77526 9.85638 2.97607 10.8902 2.17557C11.1197 1.9979 11.3493 1.82016 11.579 1.64243C11.9775 1.33796 12.3742 1.02975 12.7812 0.713594Z" fill="#AEAEAE"/>
<path d="M32.2697 6.07523C31.7713 6.07523 31.2732 6.0749 30.7753 6.07457C29.2768 6.07358 27.7799 6.07259 26.2798 6.08059C26.0499 6.08059 25.9732 6.04321 26.0499 5.80256C26.2141 5.25715 26.3619 4.71175 26.4934 4.15565C26.5426 3.94177 26.6576 3.90968 26.8602 3.90968C30.1344 3.91503 33.4086 3.91503 36.6772 3.91503C36.8581 3.91503 37.0386 3.91536 37.2189 3.9157C37.7593 3.9167 38.2981 3.9177 38.8399 3.90968C38.9877 3.90968 39.0973 3.94711 39.1904 4.06475C39.4313 4.36954 39.6777 4.66362 39.9295 4.95772C40.0171 5.05931 40.039 5.12882 39.9021 5.20903C39.4641 5.46569 39.0316 5.7277 38.6045 6.0004C38.486 6.07585 38.3627 6.07557 38.2345 6.07527L38.2103 6.07523H32.2697Z" fill="#AEAEAE"/>
<path d="M0.892195 9.9883C1.00472 9.98889 1.11747 9.98948 1.23081 9.98948C1.33258 9.98948 1.43496 9.98831 1.53775 9.98713C1.74457 9.98476 1.95314 9.98236 2.16159 9.98948C2.36417 10.0002 2.44083 9.92537 2.4901 9.73285C2.74262 8.78106 3.00367 7.83206 3.26506 6.88185C3.36634 6.51365 3.46781 6.14478 3.56871 5.77599L3.72774 5.19515C4.17856 3.5484 4.63031 1.89827 5.09082 0.252426C5.14009 0.075972 5.11819 -0.00423435 4.89919 0.00111275C4.24216 0.011807 3.58514 0.011807 2.92812 0.00111275C2.74744 0.00111275 2.67078 0.0652779 2.62698 0.225691C2.54882 0.531007 2.46434 0.834266 2.38007 1.13674C2.32857 1.32162 2.27714 1.50621 2.22729 1.6908C1.76239 3.3894 1.29748 5.08266 0.832578 6.77593L0.831116 6.78125C0.562833 7.77048 0.294549 8.75434 0.0207894 9.7382C-0.0339625 9.93067 0.0153142 9.99484 0.217896 9.98948C0.444001 9.98595 0.667712 9.98713 0.892195 9.9883Z" fill="#AEAEAE"/>
<path d="M32.2477 2.17179H27.3803C27.0518 2.17179 27.0353 2.1504 27.1229 1.83492L27.1251 1.82717C27.2722 1.30039 27.4193 0.773586 27.5555 0.241482C27.5993 0.0757221 27.6595 0.00086243 27.8402 0.00086243C30.4409 0.00620954 33.0361 0.00620954 35.6369 0.00086243C35.7628 0.00086243 35.8614 0.0329451 35.9435 0.13454C36.1732 0.414958 36.4043 0.695375 36.6353 0.975791L36.6364 0.977038C36.8676 1.25761 37.0989 1.53831 37.3287 1.81888C37.3402 1.83353 37.3542 1.84818 37.3686 1.86322C37.4223 1.91959 37.4814 1.98157 37.4382 2.07019C37.386 2.17217 37.2885 2.16967 37.1921 2.1672C37.1773 2.16682 37.1626 2.16644 37.148 2.16644C35.5109 2.17179 33.8793 2.17179 32.2477 2.17179Z" fill="#AEAEAE"/>
<path d="M25.7759 7.82374C25.5734 7.82374 25.4858 7.88255 25.4365 8.07502C25.2996 8.63645 25.1463 9.19794 24.982 9.74866C24.9163 9.96256 24.9766 10 25.1847 10C26.8558 9.99196 28.5238 9.99297 30.1934 9.99397C30.7502 9.99431 31.3071 9.99464 31.8644 9.99464C31.9958 9.99464 32.1107 9.97327 32.2257 9.90374C32.7295 9.58829 33.2386 9.27277 33.7479 8.96268C34.1366 8.7167 34.5308 8.47607 34.925 8.23545C35.0181 8.17663 35.1112 8.11246 35.0783 7.98411C35.04 7.84511 34.9305 7.81838 34.7991 7.82374H25.7759Z" fill="#AEAEAE"/>
</svg>
