<svg width="18" height="13" viewBox="0 0 18 13" fill="none" xmlns="http://www.w3.org/2000/svg">
<path fill-rule="evenodd" clip-rule="evenodd" d="M17.2984 1.11594C16.6486 0.323314 15.449 0 13.1581 0H4.84175C2.49835 0 1.2784 0.344188 0.631103 1.18806C0 2.01084 0 3.22315 0 4.90102V8.09905C0 11.3496 0.7488 13 4.84175 13H13.1581C15.1449 13 16.2457 12.7147 16.958 12.0152C17.6884 11.2979 18 10.1267 18 8.09905V4.90102C18 3.13157 17.9512 1.91211 17.2984 1.11594ZM11.556 6.94154L7.77967 8.96698C7.69525 9.01228 7.60291 9.03472 7.5107 9.03472C7.4063 9.03472 7.30213 9.00588 7.20986 8.94857C7.03616 8.84053 6.93007 8.64729 6.93007 8.43885V4.40095C6.93007 4.19288 7.03584 3.99982 7.20923 3.89173C7.38268 3.78362 7.59839 3.77623 7.77832 3.87218L11.5547 5.88457C11.7468 5.98695 11.8675 6.19049 11.8678 6.41258C11.8681 6.63483 11.7479 6.83867 11.556 6.94154Z" fill="black"/>
</svg>
